<svg width="17" height="17" viewBox="0 0 17 17" fill="none" xmlns="http://www.w3.org/2000/svg">
<path d="M15.8563 5.06951C15.4525 4.11641 14.8763 3.26022 14.1422 2.5261C13.408 1.79197 12.5519 1.21401 11.5988 0.811941C10.6115 0.393723 9.56331 0.183716 8.48456 0.183716C7.40401 0.183716 6.35577 0.395517 5.37036 0.811941C4.41725 1.2158 3.56107 1.79197 2.82694 2.5261C2.09281 3.26022 1.51485 4.11641 1.11278 5.06951C0.694565 6.05672 0.484558 7.10496 0.484558 8.18372C0.484558 9.26426 0.69636 10.3125 1.11278 11.2979C1.51664 12.251 2.09281 13.1072 2.82694 13.8413C3.56107 14.5755 4.41725 15.1534 5.37036 15.5555C6.35757 15.9737 7.40581 16.1837 8.48456 16.1837C9.56511 16.1837 10.6133 15.9719 11.5988 15.5555C12.5519 15.1516 13.408 14.5755 14.1422 13.8413C14.8763 13.1072 15.4543 12.251 15.8563 11.2979C16.2746 10.3107 16.4846 9.26247 16.4846 8.18372C16.4846 7.10317 16.2728 6.05493 15.8563 5.06951ZM13.3291 13.03C12.0349 14.3242 10.3136 15.0368 8.48276 15.0368C6.65194 15.0368 4.9306 14.3242 3.63645 13.03C2.34231 11.7359 1.62972 10.0145 1.62972 8.18372C1.62972 6.35289 2.34231 4.63155 3.63645 3.33741C4.9306 2.04326 6.65194 1.33068 8.48276 1.33068C10.3136 1.33068 12.0349 2.04326 13.3291 3.33741C14.6232 4.63155 15.3358 6.35289 15.3358 8.18372C15.3358 10.0145 14.6232 11.7359 13.3291 13.03Z" fill="white"/>
<path d="M11.7212 7.62765H9.07904V4.98551C9.07904 4.66781 8.82236 4.41113 8.50466 4.41113C8.18696 4.41113 7.93028 4.66781 7.93028 4.98551V7.62765H5.28635C4.96865 7.62765 4.71198 7.88432 4.71198 8.20202C4.71198 8.51973 4.96865 8.7764 5.28635 8.7764H7.93028V11.4203C7.93028 11.738 8.18696 11.9947 8.50466 11.9947C8.82236 11.9947 9.07904 11.738 9.07904 11.4203V8.7764H11.7212C12.0389 8.7764 12.2956 8.51973 12.2956 8.20202C12.2956 7.88432 12.0389 7.62765 11.7212 7.62765Z" fill="white"/>
</svg>
