<svg width="150" height="32" viewBox="0 0 150 32" fill="none" xmlns="http://www.w3.org/2000/svg">
<g clip-path="url(#clip0_4076_9209)">
<path d="M143.392 0H6.60793C2.95847 0 0 2.95847 0 6.60793V24.4493C0 28.0988 2.95847 31.0573 6.60793 31.0573H143.392C147.042 31.0573 150 28.0988 150 24.4493V6.60793C150 2.95847 147.042 0 143.392 0Z" fill="#475CD0"/>
<path d="M35.721 12.1116C35.3207 11.1668 34.7496 10.3182 34.0219 9.59056C33.2942 8.8629 32.4456 8.28999 31.5009 7.89146C30.5224 7.47695 29.4834 7.2688 28.4141 7.2688C27.3431 7.2688 26.3041 7.47873 25.3274 7.89146C24.3826 8.29177 23.534 8.8629 22.8064 9.59056C22.0787 10.3182 21.5058 11.1668 21.1073 12.1116C20.6928 13.0901 20.4846 14.1291 20.4846 15.1983C20.4846 16.2693 20.6946 17.3084 21.1073 18.2851C21.5076 19.2298 22.0787 20.0784 22.8064 20.8061C23.534 21.5337 24.3826 22.1066 25.3274 22.5052C26.3059 22.9197 27.3449 23.1278 28.4141 23.1278C29.4851 23.1278 30.5242 22.9179 31.5009 22.5052C32.4456 22.1049 33.2942 21.5337 34.0219 20.8061C34.7496 20.0784 35.3225 19.2298 35.721 18.2851C36.1355 17.3066 36.3436 16.2675 36.3436 15.1983C36.3436 14.1273 36.1337 13.0883 35.721 12.1116ZM33.216 20.0019C31.9333 21.2847 30.2271 21.991 28.4123 21.991C26.5977 21.991 24.8915 21.2847 23.6087 20.0019C22.326 18.7192 21.6197 17.013 21.6197 15.1983C21.6197 13.3836 22.326 11.6775 23.6087 10.3947C24.8915 9.11195 26.5977 8.40563 28.4123 8.40563C30.2271 8.40563 31.9333 9.11195 33.216 10.3947C34.4987 11.6775 35.205 13.3836 35.205 15.1983C35.205 17.013 34.4987 18.7192 33.216 20.0019Z" fill="white"/>
<path d="M31.6223 14.6471H29.0034V12.0283C29.0034 11.7134 28.7489 11.459 28.4341 11.459C28.1191 11.459 27.8647 11.7134 27.8647 12.0283V14.6471H25.2441C24.9292 14.6471 24.6748 14.9015 24.6748 15.2165C24.6748 15.5314 24.9292 15.7858 25.2441 15.7858H27.8647V18.4064C27.8647 18.7213 28.1191 18.9757 28.4341 18.9757C28.7489 18.9757 29.0034 18.7213 29.0034 18.4064V15.7858H31.6223C31.9371 15.7858 32.1915 15.5314 32.1915 15.2165C32.1915 14.9015 31.9371 14.6471 31.6223 14.6471Z" fill="white"/>
<path d="M52.7444 13.9824V9.72686H61.4669V13.2026H53.9471V13.7313C53.9471 13.9779 53.9691 14.1586 54.0131 14.2731C54.0572 14.3788 54.1409 14.4537 54.2642 14.4978C54.3964 14.5419 54.6079 14.5727 54.8986 14.5903C55.6387 14.6255 56.4757 14.6432 57.4096 14.6432C58.4228 14.6432 59.3391 14.6255 60.1585 14.5903C60.4581 14.5727 60.6827 14.5506 60.8325 14.5242C60.9823 14.489 61.0881 14.4405 61.1497 14.3788C61.2114 14.3083 61.2554 14.207 61.2819 14.0749C61.3435 13.8193 61.3832 13.5815 61.4008 13.3612L62.6695 13.837C62.6255 14.1982 62.5638 14.5154 62.4845 14.7885C62.4052 15.0793 62.2422 15.2907 61.9955 15.4229C61.7488 15.5463 61.3083 15.6211 60.6739 15.6476C59.3171 15.6828 58.2951 15.7004 57.6079 15.7004C56.9383 15.7004 55.9162 15.6828 54.5418 15.6476C54.066 15.6299 53.7004 15.5771 53.4449 15.489C53.1982 15.392 53.0175 15.2291 52.903 15C52.7973 14.7621 52.7444 14.4229 52.7444 13.9824ZM60.2246 12.1321V10.837H53.9471V12.1321H60.2246ZM63.1321 16.8502V17.9603H60.8061V19.3612C60.8061 19.8018 60.7532 20.1322 60.6475 20.3524C60.5418 20.5727 60.3655 20.7269 60.1189 20.815C59.8722 20.9119 59.4933 20.978 58.9823 21.0132L58.0836 21.0925L57.7268 19.9691L58.6651 19.9163C58.9382 19.8986 59.1409 19.8634 59.2731 19.8106C59.4052 19.7577 59.4933 19.674 59.5374 19.5595C59.5814 19.4449 59.6035 19.2731 59.6035 19.044V17.9603H54.6079C55.392 18.4449 56.0704 18.9207 56.6431 19.3877L56.0484 20.3921C55.7312 20.119 55.3259 19.8061 54.8325 19.4537C54.3391 19.0925 53.9074 18.7929 53.5374 18.5551L53.9735 17.9603H51.5286V16.8502H59.6035V15.9515L60.8061 15.9912V16.8502H63.1321ZM76.34 19.9559L75.3885 21.0661C74.4805 20.2995 73.7272 19.5815 73.1286 18.9119C72.5378 18.2334 72.0316 17.4978 71.6087 16.7048C71.1858 15.9119 70.8026 14.9736 70.459 13.8899C69.666 16.5595 67.9387 18.9427 65.278 21.0396L64.3397 19.9824C65.9256 18.8282 67.155 17.5771 68.0272 16.2291C68.9081 14.881 69.485 13.4802 69.7585 12.0264C69.485 11.5594 69.1413 11.1718 68.7277 10.8634L67.9876 10.3612L68.6484 9.40968L69.3488 9.8458C69.8153 10.163 70.2032 10.5242 70.5118 10.9295C70.8198 11.3348 71.0709 11.859 71.2651 12.5022C71.5559 13.6035 71.9167 14.5771 72.3488 15.4229C72.7803 16.2599 73.3136 17.0397 73.9479 17.7621C74.5909 18.4758 75.3885 19.2071 76.34 19.9559ZM79.5297 10.9295H77.5869V9.89866H83.7852V10.9295H82.0539V12.3172H83.5605V20.7621H78.0627V12.3172H79.5297V10.9295ZM89.2301 17.8282C89.2123 17.9868 89.2037 18.1013 89.2037 18.1718C89.1686 18.5595 89.133 18.8722 89.0979 19.1101C89.0272 19.5771 88.9394 19.9207 88.8336 20.141C88.7365 20.3701 88.5872 20.533 88.3843 20.6299C88.1907 20.7269 87.8907 20.7885 87.4856 20.815C87.3006 20.8326 87.0316 20.8414 86.6794 20.8414C86.3272 20.8414 86.0537 20.8326 85.8601 20.815C85.455 20.7973 85.1418 20.7401 84.9217 20.6432C84.7103 20.5462 84.5563 20.3833 84.4592 20.1542C84.3713 19.9251 84.327 19.5859 84.327 19.1365V13.9031H87.3667V11.0749H84.3535V9.89866H88.5429V15.0793H85.5032V18.8722C85.5032 19.0837 85.5211 19.2378 85.5561 19.3348C85.5911 19.4317 85.6532 19.5022 85.7411 19.5462C85.829 19.5815 85.979 19.6079 86.1905 19.6255C86.3048 19.6343 86.468 19.6388 86.6794 19.6388C86.8823 19.6388 87.0409 19.6343 87.1552 19.6255C87.3931 19.5991 87.5603 19.5639 87.6574 19.5198C87.7631 19.4669 87.8378 19.3832 87.8821 19.2687C87.9264 19.1542 87.966 18.9603 88.001 18.6872C88.0625 18.2555 88.0935 17.8458 88.0935 17.4581L89.2301 17.8282ZM80.5076 12.3172H81.1024V10.9295H80.5076V12.3172ZM81.1288 13.348H80.4944V13.6388C80.4944 14.4053 80.4198 15.022 80.2698 15.489C80.129 15.956 79.8686 16.4229 79.49 16.8899L79.0671 16.5727V17.4449H82.5561V16.348H82.1332C81.781 16.348 81.5253 16.2687 81.3667 16.1101C81.2081 15.9515 81.1288 15.6828 81.1288 15.304V13.348ZM79.675 13.348H79.0671V15.9647C79.2964 15.6564 79.455 15.3216 79.5429 14.9603C79.6308 14.5991 79.675 14.1101 79.675 13.4934V13.348ZM82.5561 15.4625V13.348H81.9614V14.9603C81.9614 15.1541 82.001 15.2863 82.0803 15.3568C82.1596 15.4273 82.3004 15.4625 82.5032 15.4625H82.5561ZM79.0671 18.4493V19.7313H82.5561V18.4493H79.0671ZM91.5482 9.91188H101.222V12.4758H91.5482V9.91188ZM94.4821 10.718H92.6979V11.6696H94.4821V10.718ZM97.2442 11.6696V10.718H95.5526V11.6696H97.2442ZM98.3147 11.6696H100.086V10.718H98.3147V11.6696ZM100.429 14.6696V19.9824H102.2V20.881H90.5834V19.9824H92.3543V14.6696H95.8037V14.0484H91.1649V13.2158H95.8037V12.6343L96.9799 12.6872V13.2158H101.605V14.0484H96.9799V14.6696H100.429ZM99.253 16.0705V15.5022H93.5305V16.0705H99.253ZM93.5305 17.3788H99.253V16.8106H93.5305V17.3788ZM99.253 18.7136V18.1321H93.5305V18.7136H99.253ZM99.253 19.4405H93.5305V19.9824H99.253V19.4405ZM114.813 21.0661C113.641 20.6255 112.614 20.1762 111.733 19.718C110.853 19.2511 110.081 18.7401 109.421 18.185C108.76 18.7313 107.989 19.2467 107.108 19.7313C106.227 20.207 105.196 20.674 104.015 21.1321L103.421 19.8899C104.557 19.4934 105.54 19.0881 106.368 18.674C107.196 18.2599 107.909 17.815 108.509 17.3392C107.883 16.6872 107.35 15.9515 106.91 15.1321C106.478 14.304 106.112 13.3524 105.813 12.2775H103.87V11.0881H108.826C108.597 10.2775 108.421 9.68721 108.297 9.31717L109.553 9.10571C109.685 9.45811 109.888 10.1189 110.161 11.0881H114.892V12.2775H112.896C112.632 13.3524 112.288 14.304 111.866 15.1321C111.443 15.9515 110.919 16.696 110.293 17.3656C110.919 17.8502 111.641 18.2907 112.46 18.6872C113.288 19.0749 114.249 19.4449 115.341 19.7973L114.813 21.0661ZM107.095 12.2775C107.333 13.1762 107.636 13.9779 108.007 14.6828C108.385 15.3788 108.848 16 109.394 16.5462C109.923 15.9912 110.364 15.37 110.716 14.6828C111.068 13.9868 111.359 13.185 111.588 12.2775H107.095ZM128.364 15.9119V17.0749H124.955V21.1454H123.739V17.0749H119.959V15.9119H123.739V12.9912H121.955C121.707 13.7665 121.435 14.4978 121.135 15.185L119.946 14.696C120.272 14.0088 120.571 13.2378 120.844 12.3832C121.126 11.5286 121.351 10.696 121.518 9.88545L122.668 10.2026C122.571 10.7048 122.444 11.2511 122.285 11.8414H123.739V9.14536L124.955 9.19822V11.8414H127.796V12.9912H124.955V15.9119H128.364ZM120.17 9.62113C119.941 10.4229 119.677 11.1982 119.377 11.9471V21.1189H118.175V14.4449C117.84 15.0264 117.435 15.6431 116.959 16.2951L116.206 15.2247C116.769 14.4317 117.307 13.5066 117.818 12.4493C118.329 11.3921 118.73 10.348 119.021 9.31717L120.17 9.62113Z" fill="white"/>
</g>
<defs>
<clipPath id="clip0_4076_9209">
<rect width="150" height="31.0573" fill="white"/>
</clipPath>
</defs>
</svg>
