<svg width="38" height="25" viewBox="0 0 38 25" fill="none" xmlns="http://www.w3.org/2000/svg">
<g clip-path="url(#clip0_4266_5025)">
<path d="M30.7143 0H7.14286C3.19797 0 0 3.19797 0 7.14286V17.8571C0 21.802 3.19797 25 7.14286 25H30.7143C34.6592 25 37.8571 21.802 37.8571 17.8571V7.14286C37.8571 3.19797 34.6592 0 30.7143 0Z" fill="#101010"/>
<path d="M25.8398 9.58043C25.4611 8.68693 24.921 7.88421 24.2327 7.196C23.5445 6.50774 22.7418 5.96589 21.8483 5.58896C20.9228 5.19688 19.9401 5 18.9287 5C17.9157 5 16.933 5.19856 16.0091 5.58896C15.1156 5.96758 14.3129 6.50774 13.6247 7.196C12.9364 7.88421 12.3946 8.68693 12.0176 9.58043C11.6256 10.5059 11.4287 11.4886 11.4287 12.5C11.4287 13.513 11.6273 14.4957 12.0176 15.4196C12.3963 16.3131 12.9364 17.1158 13.6247 17.804C14.3129 18.4923 15.1156 19.0341 16.0091 19.4111C16.9346 19.8031 17.9174 20 18.9287 20C19.9417 20 20.9244 19.8014 21.8483 19.4111C22.7418 19.0324 23.5445 18.4923 24.2327 17.804C24.921 17.1158 25.4628 16.3131 25.8398 15.4196C26.2319 14.4941 26.4287 13.5114 26.4287 12.5C26.4287 11.487 26.2301 10.5043 25.8398 9.58043ZM23.4704 17.0434C22.2572 18.2566 20.6434 18.9247 18.927 18.9247C17.2106 18.9247 15.5969 18.2566 14.3836 17.0434C13.1704 15.8301 12.5023 14.2164 12.5023 12.5C12.5023 10.7836 13.1704 9.16986 14.3836 7.95657C15.5969 6.74332 17.2106 6.07527 18.927 6.07527C20.6434 6.07527 22.2572 6.74332 23.4704 7.95657C24.6837 9.16986 25.3518 10.7836 25.3518 12.5C25.3518 14.2164 24.6837 15.8301 23.4704 17.0434Z" fill="white"/>
<path d="M21.9632 11.9788H19.4862V9.50176C19.4862 9.2039 19.2456 8.96326 18.9477 8.96326C18.6499 8.96326 18.4093 9.2039 18.4093 9.50176V11.9788H15.9306C15.6327 11.9788 15.3921 12.2193 15.3921 12.5172C15.3921 12.815 15.6327 13.0557 15.9306 13.0557H18.4093V15.5344C18.4093 15.8322 18.6499 16.0728 18.9477 16.0728C19.2456 16.0728 19.4862 15.8322 19.4862 15.5344V13.0557H21.9632C22.2611 13.0557 22.5017 12.815 22.5017 12.5172C22.5017 12.2193 22.2611 11.9788 21.9632 11.9788Z" fill="white"/>
</g>
<rect x="0.5" y="0.5" width="36.8571" height="24" rx="6.16" stroke="#D9D9D9"/>
<defs>
<clipPath id="clip0_4266_5025">
<rect width="37.8571" height="25" rx="6.66" fill="white"/>
</clipPath>
</defs>
</svg>
