<svg width="32" height="32" viewBox="0 0 32 32" fill="none" xmlns="http://www.w3.org/2000/svg">
<rect width="32" height="32" rx="10" fill="#475CD0"/>
<path d="M23.869 13.1599C23.4565 12.1865 22.8681 11.3121 22.1184 10.5624C21.3686 9.81264 20.4942 9.22238 19.5208 8.81176C18.5126 8.38464 17.4421 8.17017 16.3404 8.17017C15.2368 8.17017 14.1663 8.38647 13.1599 8.81176C12.1865 9.22421 11.3121 9.81264 10.5624 10.5624C9.81264 11.3121 9.22238 12.1865 8.81176 13.1599C8.38464 14.1681 8.17017 15.2387 8.17017 16.3404C8.17017 17.4439 8.38647 18.5145 8.81176 19.5208C9.22421 20.4942 9.81264 21.3686 10.5624 22.1184C11.3121 22.8681 12.1865 23.4584 13.1599 23.869C14.1681 24.2961 15.2387 24.5106 16.3404 24.5106C17.4439 24.5106 18.5145 24.2943 19.5208 23.869C20.4942 23.4565 21.3686 22.8681 22.1184 22.1184C22.8681 21.3686 23.4584 20.4942 23.869 19.5208C24.2961 18.5126 24.5106 17.4421 24.5106 16.3404C24.5106 15.2368 24.2943 14.1663 23.869 13.1599ZM21.288 21.2898C19.9663 22.6115 18.2083 23.3392 16.3385 23.3392C14.4688 23.3392 12.7108 22.6115 11.3891 21.2898C10.0674 19.9681 9.3397 18.2102 9.3397 16.3404C9.3397 14.4706 10.0674 12.7126 11.3891 11.391C12.7108 10.0693 14.4688 9.34153 16.3385 9.34153C18.2083 9.34153 19.9663 10.0693 21.288 11.391C22.6096 12.7126 23.3374 14.4706 23.3374 16.3404C23.3374 18.2102 22.6096 19.9681 21.288 21.2898Z" fill="white"/>
<path d="M19.6459 15.7725H16.9475V13.0741C16.9475 12.7497 16.6854 12.4875 16.3609 12.4875C16.0365 12.4875 15.7743 12.7497 15.7743 13.0741V15.7725H13.0741C12.7497 15.7725 12.4875 16.0346 12.4875 16.3591C12.4875 16.6836 12.7497 16.9457 13.0741 16.9457H15.7743V19.6459C15.7743 19.9703 16.0365 20.2325 16.3609 20.2325C16.6854 20.2325 16.9475 19.9703 16.9475 19.6459V16.9457H19.6459C19.9703 16.9457 20.2325 16.6836 20.2325 16.3591C20.2325 16.0346 19.9703 15.7725 19.6459 15.7725Z" fill="white"/>
</svg>
