<svg width="118" height="65" viewBox="0 0 118 65" fill="none" xmlns="http://www.w3.org/2000/svg">
<g clip-path="url(#clip0_4103_9782)">
<path d="M117.938 0H0V65H117.938V0Z" fill="black"/>
<path d="M59.2103 26.2815C59.6302 27.443 60.1931 28.4348 60.8989 29.2568C61.6047 30.0698 62.5429 30.8427 63.7134 31.5753L63.0165 32.7413C61.7656 31.9193 60.7649 31.0616 60.0144 30.1681C59.2639 29.2657 58.6161 28.1131 58.0711 26.7104L59.2103 26.2815ZM56.8247 26.9516C56.4405 27.8273 55.9804 28.6269 55.4443 29.3506C54.9171 30.0654 54.2828 30.7623 53.5412 31.4413H61.1402C61.1044 32.165 61.0464 33.0541 60.9659 34.1083C60.8944 35.1537 60.8319 35.9355 60.7783 36.4537C60.7247 36.9183 60.6264 37.2667 60.4835 37.4991C60.3494 37.7403 60.1484 37.91 59.8804 38.0083C59.6123 38.1156 59.2237 38.1871 58.7144 38.2228L57.4814 38.3166L57.0793 37.0836L58.3257 37.0032C58.6474 36.9764 58.8841 36.9362 59.036 36.8826C59.1969 36.82 59.3086 36.7217 59.3711 36.5877C59.4426 36.4448 59.4962 36.2259 59.5319 35.931C59.5766 35.4306 59.6212 34.8633 59.6659 34.229C59.7195 33.5857 59.7598 33.063 59.7866 32.6609H56.3556L56.3154 33.3712C56.2618 34.1932 56.1233 34.8946 55.9 35.4753C55.6766 36.0471 55.3014 36.5922 54.7742 37.1104C54.256 37.6197 53.5189 38.1513 52.5628 38.7052L51.6515 37.7001C52.5271 37.2444 53.1883 36.8156 53.635 36.4135C54.0907 36.0114 54.4123 35.5826 54.6 35.1269C54.7965 34.6712 54.9395 34.0815 55.0288 33.3578L55.0958 32.6609H53.3938V31.5753C53.0006 31.9149 52.5673 32.2678 52.0938 32.6341L51.3433 31.5619C52.3171 30.8918 53.1704 30.1234 53.9031 29.2568C54.6447 28.3901 55.2254 27.4654 55.6453 26.4826L56.8247 26.9516ZM69.1466 33.9073C68.8691 33.4337 68.4631 32.8575 67.927 32.1784V38.5176H66.7607V32.5537C66.3139 33.5544 65.8225 34.4791 65.2864 35.3279L64.3617 34.6176C64.7727 34.019 65.1926 33.3087 65.6215 32.4867C66.0593 31.6647 66.4167 30.8561 66.6936 30.0609H65.0854V28.8815H66.7607V26.4692L67.927 26.5094V28.8815H69.5888V30.0609H67.927V31.2805L68.2888 30.9454C68.5301 31.2135 68.8202 31.5709 69.16 32.0176C69.5084 32.4554 69.7671 32.8172 69.9373 33.1032L69.1466 33.9073ZM76.5981 31.0795V32.2991H74.6548V38.464H73.4084V32.2991H71.2909C71.2728 33.3623 71.2105 34.2379 71.1033 34.9259C70.996 35.6139 70.8124 36.2393 70.5538 36.8021C70.2944 37.365 69.9145 37.9815 69.4146 38.6516L68.3022 37.9949C68.8289 37.3248 69.2136 36.7307 69.4548 36.2125C69.7048 35.6853 69.8743 35.0912 69.9641 34.43C70.0532 33.7599 70.0981 32.8351 70.0981 31.6558V27.6083C71.9744 27.4743 73.8279 27.1884 75.66 26.7506L75.9816 27.9568C75.2579 28.1265 74.4759 28.2784 73.6362 28.4125C72.8053 28.5465 72.0233 28.6492 71.2909 28.7207V31.0795H76.5981ZM85.8636 27.5279C86.3548 27.9747 86.9579 28.5733 87.6729 29.3238C88.3966 30.0654 88.9776 30.7042 89.4152 31.2403L88.5976 32.1784C88.3564 31.8747 88.1152 31.5843 87.8739 31.3073C85.2739 31.3698 83.0941 31.4413 81.3337 31.5217C80.2079 31.5664 79.3013 31.6245 78.6131 31.696L78.3049 30.4362C78.5997 30.3826 78.8188 30.329 78.9616 30.2753C79.1137 30.2217 79.2564 30.1413 79.3904 30.0341C79.8729 29.6767 80.4847 29.096 81.2265 28.2918C81.977 27.4788 82.5486 26.7729 82.942 26.1743L84.0275 26.8042C83.5806 27.4207 83.0445 28.0729 82.4193 28.7609C81.7941 29.4399 81.2667 29.9537 80.8378 30.3022L86.7884 30.1011C86.1183 29.3774 85.5239 28.7788 85.0059 28.3052L85.8636 27.5279ZM80.7306 38.5176H79.4976V32.8753H88.2358V38.5176H86.9894V37.8743H80.7306V38.5176ZM86.9894 36.7351V34.0681H80.7306V36.7351H86.9894Z" fill="white"/>
<path d="M36.052 32.2152C36.3724 31.876 36.5726 31.4613 36.5726 30.9713H35.7717C35.7717 31.6121 35.2511 32.1021 34.5703 32.1021C33.8896 32.1021 33.3689 31.6121 33.3689 30.9713C33.3689 30.3305 33.8896 29.8405 34.5703 29.8405V29.0866C34.0497 29.0866 33.5692 29.2751 33.2088 29.6144L31.647 28.1443H29.4845V28.8982H31.3266L32.7683 30.2551C32.6481 30.4813 32.6081 30.7451 32.6081 30.9713C32.6081 32.0267 33.4891 32.856 34.6104 32.856C34.9308 32.856 35.2111 32.7806 35.4514 32.6675L37.0532 34.1752H39.536V33.4213H37.4136L36.052 32.2152Z" fill="white"/>
<path d="M29.4845 30.7828H31.4948V31.5367H29.4845V30.7828ZM29.4845 33.4213H31.8969V34.1752H29.4845V33.4213ZM35.9175 28.9358C35.8371 28.8982 35.7567 28.8982 35.7165 28.8982C35.2742 28.8982 34.9123 29.2374 34.9123 29.652C34.9123 30.0666 35.2742 30.4059 35.7165 30.4059C36.1587 30.4059 36.5206 30.0666 36.5206 29.652C36.5206 29.5766 36.5206 29.5389 36.4804 29.4635L37.0835 28.8982H39.536V28.1443H36.7618L35.9175 28.9358Z" fill="white"/>
<path d="M40.1118 25.7991H28.2472C27.4522 25.7991 26.8041 26.4472 26.8041 27.2422V34.7256C26.8041 35.5206 27.4522 36.1687 28.2472 36.1687H33.6394V38.7352H28.6274C28.3249 38.7352 28.0916 38.9772 28.0916 39.271C28.0916 39.5648 28.3336 39.8067 28.6274 39.8067H39.7316C40.034 39.8067 40.2673 39.5648 40.2673 39.271C40.2673 38.9772 40.0253 38.7352 39.7316 38.7352H34.7196V36.1687H40.1118C40.9068 36.1687 41.5463 35.5206 41.5463 34.7256V27.2336C41.5549 26.4472 40.9068 25.7991 40.1118 25.7991ZM40.4747 34.7256C40.4747 34.9243 40.3105 35.0886 40.1118 35.0886H28.2472C28.0485 35.0886 27.8842 34.9243 27.8842 34.7256V27.2422C27.8842 27.0435 28.0485 26.8792 28.2472 26.8792H40.1118C40.3105 26.8792 40.4747 27.0435 40.4747 27.2422V34.7256Z" fill="white"/>
</g>
<defs>
<clipPath id="clip0_4103_9782">
<rect width="117.938" height="65" fill="white"/>
</clipPath>
</defs>
</svg>
