<svg width="16" height="14" viewBox="0 0 16 14" fill="none" xmlns="http://www.w3.org/2000/svg">
<path d="M9.7848 6.38144C10.1036 6.04404 10.3028 5.63166 10.3028 5.14431H9.50585C9.50585 5.78162 8.98781 6.26897 8.31036 6.26897C7.63292 6.26897 7.11487 5.78162 7.11487 5.14431C7.11487 4.507 7.63292 4.01964 8.31036 4.01964V3.26986C7.79232 3.26986 7.31412 3.45731 6.95547 3.79471L5.40133 2.33264H3.24945V3.08242H5.08254L6.51713 4.43202C6.39758 4.65695 6.35773 4.91937 6.35773 5.14431C6.35773 6.19399 7.23442 7.01875 8.35021 7.01875C8.66901 7.01875 8.94796 6.94377 9.18705 6.8313L10.781 8.33086H13.2517V7.58108H11.1397L9.7848 6.38144Z" fill="white"/>
<path d="M3.24945 4.95686H5.24991V5.70664H3.24945V4.95686ZM3.24945 7.58108H5.65V8.33086H3.24945V7.58108ZM9.65091 3.11991C9.57089 3.08242 9.49087 3.08242 9.45086 3.08242C9.01076 3.08242 8.65068 3.41982 8.65068 3.8322C8.65068 4.24457 9.01076 4.58197 9.45086 4.58197C9.89096 4.58197 10.251 4.24457 10.251 3.8322C10.251 3.75722 10.251 3.71973 10.211 3.64475L10.8112 3.08242H13.2517V2.33264H10.4911L9.65091 3.11991Z" fill="white"/>
<path d="M13.8247 0H2.01825C1.22714 0 0.582214 0.644588 0.582214 1.43528V8.87812C0.582214 9.66882 1.22714 10.3134 2.01825 10.3134H7.38403V12.866H2.39661C2.09564 12.866 1.86347 13.1066 1.86347 13.3988C1.86347 13.691 2.10424 13.9317 2.39661 13.9317H13.4463C13.7473 13.9317 13.9795 13.691 13.9795 13.3988C13.9795 13.1066 13.7387 12.866 13.4463 12.866H8.45891V10.3134H13.8247C14.6158 10.3134 15.2521 9.66882 15.2521 8.87812V1.42669C15.2607 0.644588 14.6158 0 13.8247 0ZM14.1859 8.87812C14.1859 9.0758 14.0225 9.23909 13.8247 9.23909H2.01825C1.82047 9.23909 1.65709 9.0758 1.65709 8.87812V1.43528C1.65709 1.23761 1.82047 1.07431 2.01825 1.07431H13.8247C14.0225 1.07431 14.1859 1.23761 14.1859 1.43528V8.87812Z" fill="white"/>
</svg>
