<svg width="130" height="27" viewBox="0 0 130 27" fill="none" xmlns="http://www.w3.org/2000/svg">
<g clip-path="url(#clip0_4248_5014)">
<path d="M23.3333 0H3.33333C1.49238 0 0 1.49238 0 3.33333V23.3333C0 25.1743 1.49238 26.6667 3.33333 26.6667H23.3333C25.1743 26.6667 26.6667 25.1743 26.6667 23.3333V3.33333C26.6667 1.49238 25.1743 0 23.3333 0Z" fill="white"/>
<path d="M9.28458 11.4321H7.34325V17.4161H5.73259V11.4321H3.79126V10.0134H9.28458V11.4321ZM13.9854 15.5814H10.9774L10.3374 17.4161H8.65211L11.4148 10.0134H13.5908L16.3321 17.4161H14.6148L13.9854 15.5814ZM13.5161 14.2374L12.5561 11.4321H12.4281L11.4468 14.2374H13.5161ZM20.4061 17.5227C19.8656 17.5227 19.375 17.4694 18.9341 17.3627C18.4932 17.2561 18.1163 17.0641 17.8034 16.7867C17.4905 16.5023 17.2488 16.1147 17.0781 15.6241C16.9074 15.1263 16.8221 14.4899 16.8221 13.7147C16.8221 13.0036 16.9038 12.4063 17.0674 11.9227C17.2381 11.4321 17.4798 11.0374 17.7928 10.7387C18.1056 10.4401 18.479 10.2267 18.9128 10.0987C19.3536 9.97074 19.8478 9.90674 20.3954 9.90674C21.0923 9.90674 21.6683 9.98854 22.1234 10.1521V11.5494C21.8958 11.4712 21.647 11.4107 21.3768 11.3681C21.1065 11.3183 20.815 11.2934 20.5021 11.2934C20.1678 11.2934 19.8798 11.3361 19.6381 11.4214C19.3963 11.4996 19.1972 11.6347 19.0408 11.8267C18.8843 12.0116 18.767 12.2569 18.6888 12.5627C18.6176 12.8685 18.5821 13.2489 18.5821 13.7041C18.5821 14.1876 18.6176 14.5859 18.6888 14.8987C18.767 15.2045 18.8843 15.4499 19.0408 15.6347C19.1972 15.8125 19.3928 15.9369 19.6274 16.0081C19.8692 16.0792 20.1536 16.1147 20.4808 16.1147C20.7865 16.1147 21.0781 16.0934 21.3554 16.0507C21.6398 16.0009 21.9243 15.9263 22.2088 15.8267V17.2134C21.9883 17.3059 21.7216 17.3805 21.4088 17.4374C21.0958 17.4943 20.7616 17.5227 20.4061 17.5227Z" fill="#475CD0"/>
<path d="M42.9199 8.74667V10.0667H40.3199V18H38.8266V10.0667H36.2266V8.74667H42.9199ZM49.1206 12.9333V18H47.8673L47.694 17C47.5073 17.3467 47.1873 17.6222 46.734 17.8267C46.2895 18.0311 45.7873 18.1333 45.2273 18.1333C43.574 18.1333 42.7473 17.4133 42.7473 15.9733C42.7473 15.1555 42.9918 14.5689 43.4806 14.2133C43.9695 13.8578 44.6895 13.68 45.6406 13.68H47.694V13.2267C47.694 12.7555 47.574 12.4133 47.334 12.2C47.1028 11.9778 46.6584 11.8667 46.0006 11.8667C45.4673 11.8667 44.9473 11.92 44.4406 12.0267V10.7867C44.974 10.7067 45.534 10.6667 46.1206 10.6667C47.2228 10.6667 47.9962 10.8622 48.4406 11.2533C48.894 11.6355 49.1206 12.1955 49.1206 12.9333ZM47.694 15.8V14.7467H45.8006C45.214 14.7467 44.7962 14.8311 44.5473 15C44.3073 15.16 44.1873 15.4711 44.1873 15.9333C44.1873 16.2889 44.2895 16.5555 44.494 16.7333C44.6984 16.9022 45.0228 16.9867 45.4673 16.9867C46.0095 16.9867 46.4718 16.8845 46.854 16.68C47.2451 16.4667 47.5251 16.1733 47.694 15.8ZM50.9908 14.4C50.9908 13.4578 51.1196 12.7155 51.3774 12.1733C51.6441 11.6222 52.0263 11.2355 52.5241 11.0133C53.0218 10.7822 53.6485 10.6667 54.4041 10.6667C54.7596 10.6667 55.1018 10.6933 55.4308 10.7467C55.7685 10.7911 56.053 10.8489 56.2841 10.92V12.1733C55.7241 11.9778 55.133 11.88 54.5108 11.88C54.0041 11.88 53.6041 11.9555 53.3108 12.1067C53.0263 12.2578 52.8174 12.5155 52.6841 12.88C52.5508 13.2445 52.4841 13.7555 52.4841 14.4133C52.4841 15.0622 52.5508 15.5645 52.6841 15.92C52.8174 16.2755 53.0263 16.5289 53.3108 16.68C53.6041 16.8311 54.0085 16.9067 54.5241 16.9067C55.2441 16.9067 55.8441 16.8089 56.3241 16.6133V17.8667C56.1108 17.9378 55.8218 18 55.4574 18.0533C55.093 18.1067 54.7418 18.1333 54.4041 18.1333C53.6485 18.1333 53.0218 18.0222 52.5241 17.8C52.0263 17.5689 51.6441 17.1822 51.3774 16.64C51.1196 16.0889 50.9908 15.3422 50.9908 14.4ZM57.8314 17.96V16.68C58.4447 16.8311 59.1247 16.9067 59.8714 16.9067C60.5825 16.9067 61.138 16.7911 61.538 16.56C61.9469 16.3289 62.1514 15.9289 62.1514 15.36C62.1514 14.7822 61.9469 14.3778 61.538 14.1467C61.1292 13.9067 60.4936 13.7867 59.6314 13.7867H58.9114V12.6667H59.618C60.3736 12.6667 60.9514 12.5422 61.3514 12.2933C61.7602 12.0355 61.9647 11.6578 61.9647 11.16C61.9647 10.68 61.8092 10.3378 61.498 10.1333C61.1958 9.92 60.7292 9.81334 60.098 9.81334C59.8136 9.81334 59.498 9.84 59.1514 9.89334C58.8136 9.9378 58.5114 10 58.2447 10.08V8.88C58.4847 8.80887 58.7869 8.74667 59.1514 8.69334C59.5158 8.64 59.8714 8.61334 60.218 8.61334C61.258 8.61334 62.0402 8.80887 62.5647 9.2C63.098 9.59114 63.3647 10.2178 63.3647 11.08C63.3647 11.6311 63.2314 12.0755 62.9647 12.4133C62.698 12.7422 62.3025 12.9867 61.778 13.1467V13.2267C62.3914 13.3422 62.8492 13.5867 63.1514 13.96C63.4536 14.3333 63.6047 14.8222 63.6047 15.4267C63.6047 17.2311 62.378 18.1333 59.9247 18.1333C59.1158 18.1333 58.418 18.0755 57.8314 17.96ZM68.6586 8.74667C69.6366 8.74667 70.4452 8.87114 71.0852 9.12C71.7346 9.36887 72.2366 9.83114 72.5919 10.5067C72.9566 11.1822 73.1386 12.1378 73.1386 13.3733C73.1386 15.0622 72.7519 16.2578 71.9786 16.96C71.2146 17.6533 70.1079 18 68.6586 18H65.8188V8.74667H68.6586ZM68.6052 16.6933C69.6012 16.6933 70.3479 16.4489 70.8452 15.96C71.3432 15.4711 71.5919 14.6089 71.5919 13.3733C71.5919 12.4933 71.4719 11.8089 71.2319 11.32C70.9919 10.8311 70.6546 10.4933 70.2186 10.3067C69.7919 10.12 69.2546 10.0267 68.6052 10.0267H67.3119V16.6933H68.6052ZM81.4712 8.74667C82.4492 8.74667 83.2579 8.87114 83.8979 9.12C84.5466 9.36887 85.0492 9.83114 85.4046 10.5067C85.7692 11.1822 85.9512 12.1378 85.9512 13.3733C85.9512 15.0622 85.5646 16.2578 84.7912 16.96C84.0266 17.6533 82.9199 18 81.4712 18H78.6312V8.74667H81.4712ZM81.4179 16.6933C82.4132 16.6933 83.1599 16.4489 83.6579 15.96C84.1559 15.4711 84.4046 14.6089 84.4046 13.3733C84.4046 12.4933 84.2846 11.8089 84.0446 11.32C83.8046 10.8311 83.4666 10.4933 83.0312 10.3067C82.6046 10.12 82.0666 10.0267 81.4179 10.0267H80.1246V16.6933H81.4179ZM93.8326 14.6267L89.0459 14.9333C89.0639 15.6355 89.2372 16.1467 89.5659 16.4667C89.8946 16.7778 90.4459 16.9333 91.2192 16.9333C91.6279 16.9333 92.0459 16.8889 92.4726 16.8C92.9079 16.7022 93.2592 16.5867 93.5259 16.4533V17.68C93.2946 17.8045 92.9439 17.9111 92.4726 18C92.0012 18.0889 91.5039 18.1333 90.9792 18.1333C90.2239 18.1333 89.5972 18.0222 89.0992 17.8C88.6106 17.5689 88.2326 17.1822 87.9659 16.64C87.7079 16.0889 87.5792 15.3422 87.5792 14.4C87.5792 13.4578 87.7079 12.7155 87.9659 12.1733C88.2239 11.6222 88.5972 11.2355 89.0859 11.0133C89.5839 10.7822 90.2059 10.6667 90.9526 10.6667C92.0812 10.6667 92.8546 10.9467 93.2726 11.5067C93.6906 12.0667 93.8992 12.8089 93.8992 13.7333C93.8992 14.0178 93.8772 14.3155 93.8326 14.6267ZM92.5392 13.64C92.5392 13.0533 92.4326 12.6 92.2192 12.28C92.0146 11.96 91.5926 11.8 90.9526 11.8C90.2412 11.8 89.7479 11.9689 89.4726 12.3067C89.2059 12.6445 89.0639 13.1733 89.0459 13.8933L92.5392 13.64ZM95.3532 17.8533V16.64C95.6466 16.7289 95.9886 16.8045 96.3799 16.8667C96.7799 16.92 97.1399 16.9467 97.4599 16.9467C97.9846 16.9467 98.3666 16.8755 98.6066 16.7333C98.8466 16.5911 98.9666 16.3378 98.9666 15.9733C98.9666 15.7155 98.9266 15.52 98.8466 15.3867C98.7752 15.2445 98.6332 15.1289 98.4199 15.04C98.2152 14.9511 97.8866 14.8533 97.4332 14.7467C96.8999 14.6222 96.4912 14.48 96.2066 14.32C95.9312 14.1511 95.7352 13.9422 95.6199 13.6933C95.5132 13.4355 95.4599 13.0978 95.4599 12.68C95.4599 12.0489 95.6819 11.5555 96.1266 11.2C96.5712 10.8445 97.2419 10.6667 98.1399 10.6667C98.5046 10.6667 98.8599 10.6889 99.2066 10.7333C99.5619 10.7778 99.8332 10.8355 100.02 10.9067L99.9399 12.0667C99.7266 11.9867 99.4552 11.92 99.1266 11.8667C98.8066 11.8133 98.4912 11.7867 98.1799 11.7867C97.6819 11.7867 97.3266 11.8533 97.1132 11.9867C96.8999 12.12 96.7932 12.3555 96.7932 12.6933C96.7932 12.9067 96.8286 13.0711 96.8999 13.1867C96.9712 13.3022 97.0952 13.3955 97.2732 13.4667C97.4599 13.5378 97.7532 13.6222 98.1532 13.72C98.7132 13.8533 99.1446 14.0045 99.4466 14.1733C99.7579 14.3422 99.9799 14.5645 100.113 14.84C100.247 15.1067 100.313 15.4667 100.313 15.92C100.313 16.6667 100.073 17.2133 99.5932 17.56C99.1219 17.9067 98.4286 18.08 97.5132 18.08C97.1312 18.08 96.7352 18.0578 96.3266 18.0133C95.9179 17.9689 95.5932 17.9155 95.3532 17.8533ZM105.159 14.1467L108.159 18H106.359L103.972 14.7467H103.612V18H102.172V7.86667H103.612V13.64H104.025L106.292 10.8H108.012L105.159 14.1467ZM112.533 16.8533V18.0133C112.223 18.0578 111.938 18.08 111.68 18.08C111.103 18.08 110.653 18.0178 110.333 17.8933C110.013 17.76 109.783 17.5289 109.64 17.2C109.498 16.8711 109.427 16.3911 109.427 15.76V11.96H108.4V10.8H109.427V9.09334H110.867V10.8H112.533V11.96H110.867V15.6533C110.867 16.0089 110.889 16.2755 110.933 16.4533C110.987 16.6222 111.08 16.7422 111.213 16.8133C111.347 16.8845 111.551 16.92 111.827 16.92C112.111 16.92 112.347 16.8978 112.533 16.8533ZM113.53 14.4C113.53 13.4578 113.659 12.7155 113.917 12.1733C114.183 11.6222 114.561 11.2355 115.05 11.0133C115.548 10.7822 116.175 10.6667 116.93 10.6667C117.695 10.6667 118.321 10.7822 118.81 11.0133C119.308 11.2355 119.685 11.6222 119.943 12.1733C120.201 12.7155 120.33 13.4578 120.33 14.4C120.33 15.3422 120.201 16.0889 119.943 16.64C119.685 17.1822 119.308 17.5689 118.81 17.8C118.321 18.0222 117.695 18.1333 116.93 18.1333C116.175 18.1333 115.548 18.0222 115.05 17.8C114.561 17.5689 114.183 17.1822 113.917 16.64C113.659 16.0889 113.53 15.3422 113.53 14.4ZM118.837 14.4C118.837 13.7333 118.775 13.2133 118.65 12.84C118.535 12.4667 118.339 12.2 118.063 12.04C117.797 11.88 117.419 11.8 116.93 11.8C116.441 11.8 116.059 11.88 115.783 12.04C115.508 12.2 115.312 12.4667 115.197 12.84C115.081 13.2133 115.023 13.7333 115.023 14.4C115.023 15.0667 115.081 15.5867 115.197 15.96C115.321 16.3245 115.521 16.5867 115.797 16.7467C116.072 16.9067 116.45 16.9867 116.93 16.9867C117.428 16.9867 117.81 16.9067 118.077 16.7467C118.352 16.5867 118.548 16.3245 118.663 15.96C118.779 15.5955 118.837 15.0755 118.837 14.4ZM128.839 14.4C128.839 15.5467 128.621 16.4578 128.185 17.1333C127.759 17.8 126.994 18.1333 125.892 18.1333C125.243 18.1333 124.741 18.0267 124.385 17.8133C124.039 17.5911 123.785 17.2755 123.625 16.8667V20.6667H122.185V10.8H123.625V11.9333C123.963 11.0889 124.719 10.6667 125.892 10.6667C126.656 10.6667 127.252 10.8178 127.679 11.12C128.114 11.4222 128.416 11.8445 128.585 12.3867C128.754 12.9289 128.839 13.6 128.839 14.4ZM127.345 14.4C127.345 13.8489 127.301 13.3911 127.212 13.0267C127.123 12.6533 126.949 12.3555 126.692 12.1333C126.443 11.9111 126.074 11.8 125.585 11.8C124.829 11.8 124.301 12.0178 123.999 12.4533C123.696 12.88 123.545 13.5289 123.545 14.4C123.545 15.2445 123.696 15.8889 123.999 16.3333C124.309 16.7689 124.839 16.9867 125.585 16.9867C126.083 16.9867 126.456 16.8711 126.705 16.64C126.963 16.4089 127.132 16.1111 127.212 15.7467C127.301 15.3822 127.345 14.9333 127.345 14.4Z" fill="#BDBDBD"/>
</g>
<defs>
<clipPath id="clip0_4248_5014">
<rect width="130" height="26.6667" fill="white"/>
</clipPath>
</defs>
</svg>
