<svg width="32" height="32" viewBox="0 0 32 32" fill="none" xmlns="http://www.w3.org/2000/svg">
<g clip-path="url(#clip0_4085_9240)">
<path d="M28.5957 0H3.40426C1.52414 0 0 1.52414 0 3.40426V28.5957C0 30.4759 1.52414 32 3.40426 32H28.5957C30.4759 32 32 30.4759 32 28.5957V3.40426C32 1.52414 30.4759 0 28.5957 0Z" fill="white"/>
<path d="M12.3199 13.6335H10.3373V19.7448H8.69233V13.6335H6.70972V12.1846H12.3199V13.6335ZM17.1208 17.8711H14.0488L13.3952 19.7448H11.674L14.4954 12.1846H16.7177L19.5174 19.7448H17.7635L17.1208 17.8711ZM16.6415 16.4985L15.661 13.6335H15.5303L14.5281 16.4985H16.6415ZM23.6781 19.8537C23.1261 19.8537 22.625 19.7993 22.1747 19.6903C21.7245 19.5814 21.3395 19.3853 21.02 19.1021C20.7005 18.8115 20.4536 18.4158 20.2793 17.9147C20.105 17.4063 20.0178 16.7563 20.0178 15.9647C20.0178 15.2384 20.1013 14.6284 20.2684 14.1346C20.4427 13.6335 20.6896 13.2304 21.0091 12.9254C21.3287 12.6204 21.7099 12.4025 22.153 12.2718C22.6032 12.141 23.108 12.0757 23.6672 12.0757C24.3789 12.0757 24.9671 12.1592 25.4319 12.3262V13.7533C25.1996 13.6734 24.9453 13.6117 24.6694 13.5681C24.3934 13.5172 24.0956 13.4919 23.7761 13.4919C23.4348 13.4919 23.1407 13.5354 22.8937 13.6226C22.6468 13.7024 22.4435 13.8404 22.2837 14.0365C22.1239 14.2253 22.0041 14.4759 21.9242 14.7882C21.8515 15.1005 21.8153 15.489 21.8153 15.9538C21.8153 16.4476 21.8515 16.8544 21.9242 17.1739C22.0041 17.4862 22.1239 17.7368 22.2837 17.9256C22.4435 18.1071 22.6432 18.2342 22.8828 18.3068C23.1298 18.3795 23.4202 18.4158 23.7543 18.4158C24.0666 18.4158 24.3644 18.394 24.6476 18.3504C24.9381 18.2995 25.2286 18.2233 25.5191 18.1216V19.5378C25.2939 19.6322 25.0216 19.7085 24.7021 19.7666C24.3825 19.8247 24.0412 19.8537 23.6781 19.8537Z" fill="#475CD0"/>
</g>
<defs>
<clipPath id="clip0_4085_9240">
<rect width="32" height="32" fill="white"/>
</clipPath>
</defs>
</svg>
