<svg width="75" height="30" viewBox="0 0 75 30" fill="none" xmlns="http://www.w3.org/2000/svg">
<g clip-path="url(#clip0_4175_4318)">
<path d="M6.52182 0.32605H68.1523C71.5742 0.32605 74.3479 3.09994 74.3479 6.5217V23.4782C74.3479 26.9 71.5742 29.6739 68.1523 29.6739H6.52182C3.10006 29.6739 0.326172 26.9 0.326172 23.4782V6.5217C0.326172 3.09994 3.10006 0.32605 6.52182 0.32605Z" stroke="#475CD0"/>
<path d="M14.3481 20.3805C14.168 20.3805 14.022 20.5265 14.022 20.7066C14.022 20.8866 14.168 21.0327 14.3481 21.0327V20.3805ZM14.3481 21.0327H29.022V20.3805H14.3481V21.0327Z" fill="white"/>
<path d="M21.8479 9.29349C21.8479 9.11343 21.7019 8.96741 21.5219 8.96741C21.3418 8.96741 21.1958 9.11343 21.1958 9.29349H21.8479ZM21.5219 20.3805L23.4046 17.1196H19.6392L21.5219 20.3805ZM21.1958 9.29349V17.4457H21.8479V9.29349H21.1958Z" fill="white"/>
<path d="M46.2865 10.7218V11.9218H39.4517V10.7218H42.1908C42.0604 10.2348 41.9169 9.75218 41.7604 9.27395L42.8952 9.09134C43.0778 9.65658 43.243 10.2 43.3908 10.7218H46.2865ZM46.743 19.8652L46.0908 21.0392C44.6822 20.3696 43.5343 19.5783 42.6474 18.6652C41.7257 19.587 40.5387 20.4131 39.0865 21.1435L38.4474 20.0218C39.9169 19.3435 41.0604 18.5914 41.8778 17.7652C41.3213 17.0435 40.8604 16.2044 40.4952 15.2479C40.1822 15.6305 39.9474 15.9087 39.7908 16.0826L39.3343 15.6131L38.8517 16.1479C38.6604 15.8174 38.3691 15.4174 37.9778 14.9479V20.8826H36.83V15.1957C36.343 16.2827 35.8517 17.1957 35.3561 17.9348L34.6387 16.9044C35.0126 16.3391 35.3952 15.6739 35.7865 14.9087C36.1865 14.1348 36.5169 13.3913 36.7778 12.6783H35.2778V11.5174H36.83V9.15655L37.9778 9.20873V11.5174H39.2691V12.6783H37.9778V13.8652L38.1865 13.6435C38.4909 13.9218 38.8648 14.3392 39.3082 14.8957C40.03 14.0261 40.643 13.087 41.1474 12.0783L42.1648 12.7044C41.7821 13.4348 41.3213 14.1566 40.7822 14.8696L41.4343 14.5957C41.7648 15.4913 42.1648 16.2566 42.6343 16.8913C43.1126 16.2392 43.5039 15.4696 43.8082 14.5826L44.8778 15.0261C44.4952 16.0783 44.0039 17.0001 43.4039 17.7913C44.1865 18.5653 45.2996 19.2566 46.743 19.8652ZM44.043 12.0652C44.3822 12.4218 44.7952 12.9131 45.2822 13.5392C45.7778 14.1566 46.1561 14.6696 46.4169 15.0783L45.5822 15.9392C45.3387 15.5131 44.9691 14.9739 44.4735 14.3218C43.9865 13.6696 43.5648 13.1479 43.2082 12.7566L44.043 12.0652ZM59.4001 18.9522V19.9826H53.0218V20.8305H51.8349V13.8913C51.5392 14.3783 51.2305 14.8261 50.9088 15.2348L50.087 14.2435C51.2696 12.8087 52.1218 11.0392 52.6436 8.93481L53.8697 9.13047C53.7392 9.73914 53.5436 10.3609 53.2827 10.9957H55.461C55.2783 10.3348 55.1044 9.77827 54.9392 9.32612L56.0218 9.11742C56.1958 9.5609 56.3957 10.187 56.6218 10.9957H59.2044V12.0783H56.374V13.6044H58.8914V14.6348H56.374V16.1609H58.8914V17.2044H56.374V18.9522H59.4001ZM49.8131 13.3696C49.6392 12.9261 49.374 12.3478 49.0175 11.6348C48.6697 10.9218 48.387 10.3826 48.1697 10.0174L49.187 9.4696C49.4392 9.85223 49.7262 10.3566 50.0479 10.9826C50.3784 11.6087 50.6479 12.1652 50.8566 12.6522L49.8131 13.3696ZM53.0218 13.6044H55.2392V12.0783H53.0218V13.6044ZM53.0218 16.1609H55.2392V14.6348H53.0218V16.1609ZM50.2566 15.3783L50.8044 15.587C50.274 17.4566 49.7175 19.0696 49.1349 20.4261L47.9479 19.9826C48.2784 19.2522 48.5957 18.4479 48.9001 17.5696C49.2131 16.6913 49.4653 15.887 49.6566 15.1566L50.2566 15.3783ZM55.2392 17.2044H53.0218V18.9522H55.2392V17.2044Z" fill="white"/>
</g>
<defs>
<clipPath id="clip0_4175_4318">
<rect width="75" height="30" fill="white"/>
</clipPath>
</defs>
</svg>
