<svg width="18" height="18" viewBox="0 0 18 18" fill="none" xmlns="http://www.w3.org/2000/svg">
<g clip-path="url(#clip0_4190_9878)">
<path d="M17.6539 0.346191H0.346191V17.6539H17.6539V0.346191Z" fill="#475CD0" stroke="#475CD0"/>
<path d="M14.2151 4.46748C14.3997 4.27161 14.6496 4.15917 14.9116 4.154C15.1737 4.14882 15.4274 4.25134 15.6188 4.43979C15.7895 4.60766 15.8961 4.83535 15.9186 5.08012C15.9412 5.32488 15.8781 5.56988 15.7411 5.76913L15.6464 5.88683L8.52285 13.5319C8.35109 13.7144 8.12228 13.8251 7.87893 13.8434C7.63552 13.8618 7.39411 13.7865 7.19943 13.6316L7.08631 13.5264L3.04104 9.12845C2.95171 9.03174 2.88167 8.91716 2.83505 8.79151C2.78844 8.66585 2.7662 8.53162 2.76963 8.39682C2.77307 8.26196 2.80211 8.12918 2.85504 8.00629C2.90798 7.88348 2.98375 7.77299 3.07787 7.68146C3.25184 7.5115 3.47721 7.41167 3.71426 7.39955C3.95131 7.38737 4.18483 7.46366 4.37367 7.615L4.48286 7.71746L7.81379 11.3357L14.2138 4.46748H14.2151Z" fill="white"/>
</g>
<defs>
<clipPath id="clip0_4190_9878">
<rect width="18" height="18" fill="white"/>
</clipPath>
</defs>
</svg>
