<svg width="27" height="27" viewBox="0 0 27 27" fill="none" xmlns="http://www.w3.org/2000/svg">
<g clip-path="url(#clip0_4286_5036)">
<path d="M20.2499 0.337502H6.7499C3.20838 0.337502 0.337402 3.20848 0.337402 6.75V20.25C0.337402 23.7915 3.20838 26.6625 6.7499 26.6625H20.2499C23.7914 26.6625 26.6624 23.7915 26.6624 20.25V6.75C26.6624 3.20848 23.7914 0.337502 20.2499 0.337502Z" fill="#2C2D35"/>
<path d="M20.2499 0.337502H6.7499C3.20838 0.337502 0.337402 3.20848 0.337402 6.75V20.25C0.337402 23.7915 3.20838 26.6625 6.7499 26.6625H20.2499C23.7914 26.6625 26.6624 23.7915 26.6624 20.25V6.75C26.6624 3.20848 23.7914 0.337502 20.2499 0.337502Z" stroke="#2C2D35"/>
<path d="M8.58855 7.7762L19.2232 18.4108L18.4107 19.2233L7.77612 8.5887L8.58855 7.7762Z" fill="white"/>
<path d="M19.2375 8.57499L8.57495 19.2375L7.76245 18.425L18.425 7.7625L19.2375 8.57499Z" fill="white"/>
</g>
<defs>
<clipPath id="clip0_4286_5036">
<rect width="27" height="27" fill="white"/>
</clipPath>
</defs>
</svg>
