<svg width="27" height="27" viewBox="0 0 27 27" fill="none" xmlns="http://www.w3.org/2000/svg">
<g clip-path="url(#clip0_4109_1759)">
<path d="M20.25 0.337402H6.75002C3.2085 0.337402 0.337524 3.20838 0.337524 6.7499V20.2499C0.337524 23.7914 3.2085 26.6624 6.75002 26.6624H20.25C23.7916 26.6624 26.6625 23.7914 26.6625 20.2499V6.7499C26.6625 3.20838 23.7916 0.337402 20.25 0.337402Z" fill="#252525"/>
<path d="M20.25 0.337402H6.75002C3.2085 0.337402 0.337524 3.20838 0.337524 6.7499V20.2499C0.337524 23.7914 3.2085 26.6624 6.75002 26.6624H20.25C23.7916 26.6624 26.6625 23.7914 26.6625 20.2499V6.7499C26.6625 3.20838 23.7916 0.337402 20.25 0.337402Z" stroke="#252525"/>
<path d="M8.58861 7.77612L19.2233 18.4107L18.4108 19.2232L7.77618 8.58862L8.58861 7.77612Z" fill="white"/>
<path d="M19.2375 8.57495L8.57501 19.2375L7.76251 18.425L18.425 7.76245L19.2375 8.57495Z" fill="white"/>
</g>
<defs>
<clipPath id="clip0_4109_1759">
<rect width="27" height="27" fill="white"/>
</clipPath>
</defs>
</svg>
