<svg width="16" height="16" viewBox="0 0 16 16" fill="none" xmlns="http://www.w3.org/2000/svg">
<g clip-path="url(#clip0_4208_11798)">
<path d="M7.2 0.319946H8.16C8.23578 0.319946 8.29715 0.381318 8.29715 0.457089V4.70852C8.29715 4.78429 8.23578 4.84566 8.16 4.84566H7.2C7.12422 4.84566 7.06285 4.78429 7.06285 4.70852V0.457089C7.06285 0.381318 7.12422 0.319946 7.2 0.319946ZM7.2 11.1543H8.16C8.23578 11.1543 8.29715 11.2156 8.29715 11.2914V15.5428C8.29715 15.6186 8.23578 15.6799 8.16 15.6799H7.2C7.12422 15.6799 7.06285 15.6186 7.06285 15.5428V11.2914C7.06285 11.2156 7.12422 11.1543 7.2 11.1543ZM12.7711 2.23L13.4499 2.90886C13.5034 2.96235 13.5034 3.04926 13.4499 3.10275L10.4438 6.10892C10.3903 6.1624 10.3034 6.1624 10.2499 6.10892L9.57101 5.43006C9.51757 5.37657 9.51757 5.28966 9.57101 5.23618L12.5772 2.23C12.6308 2.17634 12.7176 2.17634 12.7711 2.23ZM5.11011 9.89095L5.78897 10.5698C5.84246 10.6233 5.84246 10.7102 5.78897 10.7637L2.7828 13.7699C2.72931 13.8234 2.6424 13.8234 2.58892 13.7699L1.91005 13.091C1.85657 13.0376 1.85657 12.9506 1.91005 12.8972L4.91623 9.89095C4.92895 9.87822 4.94406 9.86811 4.96069 9.86119C4.97732 9.85428 4.99516 9.85076 5.01317 9.85076C5.03118 9.85076 5.04902 9.85428 5.06565 9.86119C5.08229 9.86811 5.0974 9.87822 5.11011 9.89095ZM15.36 7.51995V8.47995C15.36 8.55572 15.2986 8.6171 15.2228 8.6171H10.9715C10.8957 8.6171 10.8343 8.55572 10.8343 8.47995V7.51995C10.8343 7.44417 10.8957 7.38279 10.9715 7.38279H15.2228C15.2986 7.38279 15.36 7.44417 15.36 7.51995ZM4.52572 7.51995V8.47995C4.52572 8.55572 4.46435 8.6171 4.38857 8.6171H0.137143C0.0613715 8.6171 0 8.55572 0 8.47995V7.51995C0 7.44417 0.0613715 7.38279 0.137143 7.38279H4.38857C4.46435 7.38279 4.52572 7.44417 4.52572 7.51995ZM13.4499 13.091L12.7711 13.7699C12.7176 13.8234 12.6307 13.8234 12.5772 13.7699L9.57101 10.7637C9.51757 10.7102 9.51757 10.6233 9.57101 10.5698L10.2499 9.89095C10.3034 9.83751 10.3903 9.83751 10.4438 9.89095L13.4499 12.8972C13.5036 12.9508 13.5036 13.0376 13.4499 13.091ZM5.78897 5.43006L5.11011 6.10892C5.05663 6.1624 4.96972 6.1624 4.91623 6.10892L1.91005 3.10275C1.85657 3.04926 1.85657 2.96235 1.91005 2.90886L2.58892 2.23C2.6424 2.17652 2.72931 2.17652 2.7828 2.23L5.78897 5.23618C5.80173 5.24889 5.81185 5.264 5.81875 5.28064C5.82566 5.29727 5.82922 5.31511 5.82922 5.33312C5.82922 5.35113 5.82566 5.36896 5.81875 5.3856C5.81185 5.40224 5.80173 5.41734 5.78897 5.43006Z" fill="white"/>
</g>
<defs>
<clipPath id="clip0_4208_11798">
<rect width="15.36" height="16" fill="white"/>
</clipPath>
</defs>
</svg>
