<svg width="27" height="27" viewBox="0 0 27 27" fill="none" xmlns="http://www.w3.org/2000/svg">
<rect width="27" height="27" rx="6.66" fill="#595959"/>
<path d="M6.61125 7H20.0587C20.4662 7 20.6699 7.20745 20.6699 7.62236C20.6699 8.03727 20.4662 8.24473 20.0587 8.24473H6.61125C6.20375 8.24473 6 8.03727 6 7.62236C6 7.20745 6.20375 7 6.61125 7Z" fill="white"/>
<path d="M6.61125 18.2026H20.0587C20.4662 18.2026 20.6699 18.41 20.6699 18.8249C20.6699 19.2398 20.4662 19.4473 20.0587 19.4473H6.61125C6.20375 19.4473 6 19.2398 6 18.8249C6 18.41 6.20375 18.2026 6.61125 18.2026Z" fill="white"/>
<path d="M11.5014 14.4684H20.0588C20.4663 14.4684 20.6701 14.6758 20.6701 15.0907C20.6701 15.5056 20.4663 15.7131 20.0588 15.7131H11.5014C11.0939 15.7131 10.8901 15.5056 10.8901 15.0907C10.8901 14.6758 11.0939 14.4684 11.5014 14.4684Z" fill="white"/>
<path d="M11.5014 10.7342H20.0588C20.4663 10.7342 20.6701 10.9416 20.6701 11.3565C20.6701 11.7714 20.4663 11.9789 20.0588 11.9789H11.5014C11.0939 11.9789 10.8901 11.7714 10.8901 11.3565C10.8901 10.9416 11.0939 10.7342 11.5014 10.7342Z" fill="white"/>
<path d="M6.08904 13.5259L9.3531 15.8802C9.38488 15.9032 9.42227 15.9167 9.46115 15.9194C9.50002 15.9221 9.53886 15.9138 9.57338 15.8954C9.6079 15.877 9.63675 15.8492 9.65674 15.8151C9.67673 15.7811 9.68709 15.7421 9.68667 15.7024V10.9956C9.68709 10.9559 9.67673 10.9169 9.65674 10.8828C9.63675 10.8488 9.6079 10.821 9.57338 10.8026C9.53886 10.7842 9.50002 10.7759 9.46115 10.7786C9.42227 10.7812 9.38488 10.7948 9.3531 10.8177L6.08904 13.1738C6.06163 13.1939 6.03931 13.2204 6.02391 13.251C6.00852 13.2816 6.00049 13.3155 6.00049 13.3499C6.00049 13.3843 6.00852 13.4182 6.02391 13.4488C6.03931 13.4794 6.06163 13.5058 6.08904 13.5259Z" fill="white"/>
</svg>
