<svg width="13" height="12" viewBox="0 0 13 12" fill="none" xmlns="http://www.w3.org/2000/svg">
<path fill-rule="evenodd" clip-rule="evenodd" d="M1.71038 9.41391C1.71038 9.65108 1.79475 9.85177 1.96351 10.016C2.13227 10.1802 2.33523 10.2623 2.57241 10.2623H5.97948V11.9726H1.71038C1.4732 11.9726 1.252 11.927 1.04675 11.8358C0.841505 11.7446 0.661345 11.6214 0.506271 11.4664C0.351197 11.3113 0.22805 11.1311 0.13683 10.9259C0.0456101 10.7206 0 10.4994 0 10.2623V1.71038C0 1.4732 0.0456101 1.252 0.13683 1.04675C0.22805 0.841505 0.351197 0.661345 0.506271 0.506271C0.661345 0.351197 0.841505 0.22805 1.04675 0.13683C1.252 0.04561 1.4732 0 1.71038 0H11.1243C11.3615 0 11.5827 0.04561 11.7879 0.13683C11.9932 0.22805 12.1733 0.351197 12.3284 0.506271C12.4835 0.661345 12.6066 0.841505 12.6978 1.04675C12.7891 1.252 12.8347 1.4732 12.8347 1.71038V5.10376L11.1243 5.14481V4.28278C11.1243 4.04561 11.0399 3.84265 10.8712 3.67389C10.7024 3.50513 10.4994 3.42075 10.2623 3.42075H2.57241C2.33523 3.42075 2.13227 3.50513 1.96351 3.67389C1.79475 3.84265 1.71038 4.04561 1.71038 4.28278V9.41391ZM9.85177 5.97948C10.2623 5.97948 10.6499 6.05701 11.0148 6.21209C11.3797 6.36716 11.699 6.58153 11.9726 6.85519C12.2463 7.12885 12.4629 7.44812 12.6226 7.813C12.7822 8.17788 12.862 8.57013 12.862 8.98974C12.862 9.40935 12.7822 9.8016 12.6226 10.1665C12.4695 10.5164 12.2639 10.8244 12.0059 11.0905C11.5172 11.648 10.7997 12 10 12C9.9763 12 9.95267 11.9997 9.92911 11.9991C9.90342 11.9997 9.87764 12 9.85177 12C9.43216 12 9.03991 11.9225 8.67503 11.7674C8.31015 11.6123 7.99088 11.3979 7.71722 11.1243C7.44356 10.8506 7.22691 10.5314 7.06728 10.1665C6.90764 9.8016 6.82782 9.40935 6.82782 8.98974C6.82782 8.57013 6.90764 8.17788 7.06728 7.813C7.22691 7.44812 7.44356 7.12885 7.71722 6.85519C7.99088 6.58153 8.31015 6.36716 8.67503 6.21209C9.03991 6.05701 9.43216 5.97948 9.85177 5.97948ZM12 8.53337H7.66667V9.5067H12V8.53337Z" fill="#D9D9D9"/>
</svg>
