<svg width="74" height="31" viewBox="0 0 74 31" fill="none" xmlns="http://www.w3.org/2000/svg">
<g clip-path="url(#clip0_4317_6750)">
<path d="M0.32605 7.02182C0.32605 3.60006 3.09994 0.826172 6.5217 0.826172H66.5217C69.9437 0.826172 72.7174 3.60006 72.7174 7.02182V23.9783C72.7174 27.4001 69.9437 30.174 66.5217 30.174H6.5217C3.09994 30.174 0.32605 27.4001 0.32605 23.9783V7.02182Z" stroke="#475CD0"/>
<path d="M20.326 17.6739V9.52173C20.326 9.22284 20.5706 8.97827 20.8696 8.97827C21.1685 8.97827 21.413 9.22284 21.413 9.52173V17.6739C21.413 17.9729 21.1685 18.2174 20.8696 18.2174C20.5706 18.2174 20.326 17.9729 20.326 17.6739Z" fill="white"/>
<path d="M17.2291 12.3929L20.4851 9.13682C20.5872 9.03527 20.7253 8.97827 20.8693 8.97827C21.0133 8.97827 21.1515 9.03527 21.2536 9.13682C21.465 9.34825 21.465 9.69442 21.2536 9.90527L17.9976 13.1614C17.8955 13.2629 17.7574 13.3199 17.6134 13.3199C17.4694 13.3199 17.3312 13.2629 17.2291 13.1614C17.1276 13.0592 17.0706 12.9211 17.0706 12.7771C17.0706 12.6331 17.1276 12.495 17.2291 12.3929Z" fill="white"/>
<path d="M21.2523 9.13686L24.5083 12.3928C24.6099 12.4949 24.6669 12.633 24.6669 12.777C24.6669 12.921 24.6099 13.0592 24.5083 13.1613C24.2969 13.3728 23.9507 13.3728 23.7399 13.1613L20.4839 9.90552C20.3823 9.80345 20.3253 9.66525 20.3253 9.52132C20.3253 9.37732 20.3823 9.23912 20.4839 9.13706C20.586 9.03552 20.7241 8.97852 20.8681 8.97852C21.0121 8.97852 21.1502 9.03532 21.2523 9.13686ZM25.7608 22.0219H15.9782C15.0793 22.0219 14.3478 21.2903 14.3478 20.3914V17.1306C14.3478 16.83 14.5907 16.587 14.8912 16.587C15.1918 16.587 15.4348 16.83 15.4348 17.1306V20.3914C15.4348 20.6914 15.6782 20.9349 15.9782 20.9349H25.7608C26.0608 20.9349 26.3043 20.6914 26.3043 20.3914V17.1306C26.3043 16.83 26.5472 16.587 26.8478 16.587C27.1483 16.587 27.3913 16.83 27.3913 17.1306V20.3914C27.3913 21.2903 26.6597 22.0219 25.7608 22.0219Z" fill="white"/>
<path d="M34.6517 14.3V10.1H43.2604V13.5305H35.8386V14.0522C35.8386 14.2957 35.8603 14.474 35.9038 14.587C35.9473 14.6913 36.0299 14.7652 36.1517 14.8087C36.2821 14.8522 36.4908 14.8826 36.7777 14.9C37.5082 14.9348 38.3343 14.9522 39.256 14.9522C40.256 14.9522 41.1604 14.9348 41.9691 14.9C42.2647 14.8826 42.4864 14.8609 42.6343 14.8348C42.7821 14.8001 42.8865 14.7522 42.9473 14.6913C43.0082 14.6218 43.0517 14.5218 43.0777 14.3913C43.1386 14.1391 43.1777 13.9044 43.1951 13.687L44.4473 14.1566C44.4038 14.5131 44.343 14.8261 44.2647 15.0957C44.1864 15.3826 44.0256 15.5913 43.7821 15.7218C43.5386 15.8435 43.1038 15.9174 42.4777 15.9435C41.1386 15.9783 40.1299 15.9957 39.4517 15.9957C38.7908 15.9957 37.7821 15.9783 36.4256 15.9435C35.956 15.9261 35.5952 15.8739 35.343 15.787C35.0995 15.6913 34.9212 15.5305 34.8082 15.3044C34.7038 15.0696 34.6517 14.7348 34.6517 14.3ZM42.0343 12.4739V11.1957H35.8386V12.4739H42.0343ZM44.9038 17.1305V18.2261H42.6082V19.6087C42.6082 20.0435 42.556 20.3696 42.4517 20.587C42.3473 20.8044 42.1734 20.9566 41.9299 21.0435C41.6865 21.1392 41.3125 21.2044 40.8082 21.2392L39.9212 21.3174L39.5691 20.2087L40.4951 20.1566C40.7647 20.1391 40.9647 20.1044 41.0951 20.0522C41.2256 20 41.3125 19.9174 41.356 19.8044C41.3995 19.6914 41.4212 19.5218 41.4212 19.2957V18.2261H36.4908C37.2647 18.7044 37.9342 19.1739 38.4995 19.6348L37.9125 20.6261C37.5995 20.3566 37.1995 20.0478 36.7125 19.7C36.2256 19.3435 35.7995 19.0479 35.4343 18.8131L35.8647 18.2261H33.4517V17.1305H41.4212V16.2435L42.6082 16.2826V17.1305H44.9038ZM55.7609 19.7V16.1522L56.987 16.2044V21.3305H55.7609V20.8348H47.1392V16.1783L48.3653 16.2305V19.7H51.4566V15.2392H47.5696V10.7L48.7826 10.7392V14.0653H51.4566V9.52612L52.6435 9.5783V14.0653H55.3305V10.7L56.5435 10.7392V15.2392H52.6435V19.7H55.7609Z" fill="white"/>
</g>
<defs>
<clipPath id="clip0_4317_6750">
<rect width="73.0435" height="30" fill="white" transform="translate(0 0.5)"/>
</clipPath>
</defs>
</svg>
