<svg width="27" height="27" viewBox="0 0 27 27" fill="none" xmlns="http://www.w3.org/2000/svg">
<rect width="27" height="27" rx="6.66" fill="#2C2D35"/>
<path d="M20.4793 12.8973L17.6406 10.9095C17.4206 10.7482 17.1199 10.7922 16.9512 11.0049C16.8851 11.0856 16.8558 11.1883 16.8558 11.2983V15.3179C16.8558 15.7066 17.2959 15.9487 17.6406 15.7066L20.4866 13.7189C20.7287 13.4768 20.7287 13.088 20.4793 12.8973ZM20.0832 8.17359H6.58679C6.26406 8.17359 6 7.90953 6 7.58679C6 7.26406 6.26406 7 6.58679 7H20.0832C20.4059 7 20.67 7.26406 20.67 7.58679C20.67 7.90953 20.4133 8.17359 20.0832 8.17359ZM20.0832 19.6162H6.58679C6.26406 19.6162 6 19.3521 6 19.0294C6 18.7067 6.26406 18.4426 6.58679 18.4426H20.0832C20.4059 18.4426 20.67 18.7067 20.67 19.0294C20.67 19.3521 20.4133 19.6162 20.0832 19.6162ZM15.0954 11.9878H6.58679C6.26406 11.9878 6 11.7237 6 11.401C6 11.0783 6.26406 10.8142 6.58679 10.8142H15.0954C15.4181 10.8142 15.6822 11.0782 15.6822 11.401C15.6822 11.7238 15.4255 11.9878 15.0954 11.9878ZM15.1027 15.802H6.58679C6.26406 15.802 6 15.5379 6 15.2152C6 14.8925 6.26406 14.6284 6.58679 14.6284H15.1027C15.4255 14.6284 15.6895 14.8925 15.6895 15.2152V15.2225C15.6822 15.5379 15.4255 15.802 15.1027 15.802Z" fill="white"/>
</svg>
