<svg width="27" height="27" viewBox="0 0 27 27" fill="none" xmlns="http://www.w3.org/2000/svg">
<g clip-path="url(#clip0_4109_1736)">
<path d="M19.7535 0.329346H6.58538C3.13024 0.329346 0.329285 3.1303 0.329285 6.58544V19.7803C0.329285 23.2355 3.13024 26.0364 6.58538 26.0364H19.7535C23.2086 26.0364 26.0096 23.2355 26.0096 19.7803V6.58544C26.0096 3.1303 23.2086 0.329346 19.7535 0.329346Z" fill="#252525"/>
<path d="M19.7535 0.329346H6.58538C3.13024 0.329346 0.329285 3.1303 0.329285 6.58544V19.7803C0.329285 23.2355 3.13024 26.0364 6.58538 26.0364H19.7535C23.2086 26.0364 26.0096 23.2355 26.0096 19.7803V6.58544C26.0096 3.1303 23.2086 0.329346 19.7535 0.329346Z" stroke="#252525"/>
<path d="M16.8871 18.6706H9.47852C8.49072 18.6706 7.69501 17.8749 7.69501 16.8871V9.47858C7.69501 8.49078 8.49072 7.69507 9.47852 7.69507H16.8597C17.8475 7.69507 18.6432 8.49078 18.6432 9.47858V16.8597C18.6706 17.8749 17.8749 18.6706 16.8871 18.6706ZM9.47852 8.51824C8.95722 8.51824 8.51818 8.95722 8.51818 9.47858V16.8597C8.51818 17.381 8.95722 17.8201 9.47852 17.8201H16.8597C17.381 17.8201 17.82 17.381 17.82 16.8597V9.47858C17.8475 8.95722 17.4084 8.51824 16.8871 8.51824H9.47852Z" fill="white"/>
</g>
<defs>
<clipPath id="clip0_4109_1736">
<rect width="26.3415" height="27" fill="white"/>
</clipPath>
</defs>
</svg>
