<svg width="27" height="27" viewBox="0 0 27 27" fill="none" xmlns="http://www.w3.org/2000/svg">
<g clip-path="url(#clip0_4109_1732)">
<path d="M19.7601 0.329346H6.58538C3.13023 0.329346 0.329285 3.1303 0.329285 6.58544V19.7869C0.329285 23.2421 3.13023 26.043 6.58538 26.043H19.7601C23.2152 26.043 26.0162 23.2421 26.0162 19.7869V6.58544C26.0162 3.1303 23.2152 0.329346 19.7601 0.329346Z" fill="#595959"/>
<path d="M19.7601 0.329346H6.58538C3.13023 0.329346 0.329285 3.1303 0.329285 6.58544V19.7869C0.329285 23.2421 3.13023 26.043 6.58538 26.043H19.7601C23.2152 26.043 26.0162 23.2421 26.0162 19.7869V6.58544C26.0162 3.1303 23.2152 0.329346 19.7601 0.329346Z" stroke="#595959"/>
<path d="M16.8904 18.6739H9.48182C8.49401 18.6739 7.6983 17.8782 7.6983 16.8904V9.48182C7.6983 8.49402 8.49401 7.69824 9.48182 7.69824H16.863C17.8508 7.69824 18.6465 8.49402 18.6465 9.48182V16.8629C18.6739 17.8782 17.8782 18.6739 16.8904 18.6739ZM9.48182 8.52141C8.96052 8.52141 8.52147 8.96046 8.52147 9.48182V16.8629C8.52147 17.3843 8.96052 17.8232 9.48182 17.8232H16.863C17.3843 17.8232 17.8233 17.3843 17.8233 16.8629V9.48182C17.8508 8.96046 17.4117 8.52141 16.8904 8.52141H9.48182Z" fill="white"/>
</g>
<defs>
<clipPath id="clip0_4109_1732">
<rect width="26.3415" height="27" fill="white"/>
</clipPath>
</defs>
</svg>
