<svg width="27" height="27" viewBox="0 0 27 27" fill="none" xmlns="http://www.w3.org/2000/svg">
<g clip-path="url(#clip0_4109_1745)">
<path d="M20.25 0.337402H6.75002C3.2085 0.337402 0.337524 3.20838 0.337524 6.7499V20.2499C0.337524 23.7914 3.2085 26.6624 6.75002 26.6624H20.25C23.7916 26.6624 26.6625 23.7914 26.6625 20.2499V6.7499C26.6625 3.20838 23.7916 0.337402 20.25 0.337402Z" fill="#252525"/>
<path d="M20.25 0.337402H6.75002C3.2085 0.337402 0.337524 3.20838 0.337524 6.7499V20.2499C0.337524 23.7914 3.2085 26.6624 6.75002 26.6624H20.25C23.7916 26.6624 26.6625 23.7914 26.6625 20.2499V6.7499C26.6625 3.20838 23.7916 0.337402 20.25 0.337402Z" stroke="#252525"/>
<path d="M13.5 7.22286C14.7415 7.22286 15.9551 7.591 16.9874 8.28072C18.0196 8.9705 18.8242 9.9508 19.2993 11.0978C19.7744 12.2448 19.8987 13.5069 19.6565 14.7245C19.4143 15.9422 18.8164 17.0606 17.9386 17.9385C17.0607 18.8164 15.9422 19.4142 14.7246 19.6564C13.507 19.8986 12.2448 19.7743 11.0979 19.2992C9.95086 18.8241 8.97056 18.0195 8.28078 16.9873C7.59106 15.9551 7.22292 14.7414 7.22292 13.5C7.22487 11.8357 7.88685 10.2403 9.06364 9.06351C10.2404 7.88679 11.8358 7.22481 13.5 7.22286ZM13.5 6.07495C12.0315 6.07495 10.596 6.51042 9.37488 7.32627C8.15388 8.14214 7.20219 9.30179 6.64021 10.6585C6.07823 12.0153 5.93119 13.5082 6.21769 14.9485C6.50418 16.3888 7.21137 17.7118 8.24973 18.7502C9.28815 19.7886 10.6111 20.4958 12.0515 20.7823C13.4918 21.0688 14.9847 20.9217 16.3414 20.3598C17.6982 19.7978 18.8578 18.8461 19.6737 17.6251C20.4896 16.404 20.925 14.9685 20.925 13.5C20.925 11.5307 20.1428 9.64212 18.7503 8.24967C17.3578 6.85721 15.4693 6.07495 13.5 6.07495Z" fill="white"/>
<path d="M14.3005 9.72217C14.1425 9.72244 13.9882 9.76949 13.857 9.85724C13.7257 9.94505 13.6233 10.0697 13.5628 10.2156C13.5022 10.3615 13.4862 10.522 13.5166 10.6769C13.5471 10.8319 13.6227 10.9744 13.7339 11.0865C13.8452 11.1985 13.9871 11.2752 14.1419 11.3068C14.2966 11.3384 14.4572 11.3235 14.6035 11.264C14.7498 11.2045 14.8752 11.1031 14.964 10.9725C15.0528 10.8419 15.1009 10.6879 15.1024 10.53C15.1024 10.3177 15.018 10.1141 14.868 9.96402C14.7178 9.8139 14.5143 9.72959 14.302 9.72959L14.3005 9.72217ZM13.1214 17.7456C13.0224 17.747 12.9241 17.7294 12.8318 17.6936C12.7331 17.655 12.6459 17.5917 12.5786 17.5098C12.5113 17.428 12.466 17.3302 12.4472 17.2259C12.4205 17.0774 12.419 17.064 12.7769 15.4632C12.9061 14.8825 13.0873 14.0732 13.2224 13.4465C13.0909 13.5052 12.9422 13.5124 12.8056 13.4667C12.6692 13.421 12.5547 13.3257 12.4852 13.1997C12.4155 13.0737 12.3957 12.9261 12.4297 12.7862C12.4636 12.6463 12.5488 12.5242 12.6685 12.4442C13.4941 11.9125 14.005 11.7017 14.3762 12.0952C14.6123 12.3506 14.5723 12.5912 14.3465 13.6827C14.2218 14.2885 14.0495 15.0459 13.901 15.7141L13.7763 16.274L13.806 16.2532C13.8668 16.2087 13.9358 16.1767 14.009 16.1589C14.0823 16.1411 14.1583 16.1379 14.2327 16.1495C14.3072 16.1611 14.3787 16.1872 14.4431 16.2264C14.5074 16.2656 14.5634 16.3171 14.6079 16.3779C14.6523 16.4388 14.6844 16.5077 14.7022 16.581C14.7199 16.6542 14.7232 16.7302 14.7116 16.8047C14.7 16.8792 14.6738 16.9506 14.6347 17.015C14.5955 17.0793 14.544 17.1354 14.4832 17.1798C14.3317 17.2868 13.6723 17.7456 13.1214 17.7456Z" fill="white"/>
</g>
<defs>
<clipPath id="clip0_4109_1745">
<rect width="27" height="27" fill="white"/>
</clipPath>
</defs>
</svg>
