<svg width="24" height="24" viewBox="0 0 24 24" fill="none" xmlns="http://www.w3.org/2000/svg">
<g clip-path="url(#clip0_4396_5263)">
<path d="M24.0001 12.75V11.25C24.0001 11.1316 23.9042 11.0357 23.7858 11.0357H17.143C17.0246 11.0357 16.9287 11.1316 16.9287 11.25V12.75C16.9287 12.8684 17.0246 12.9643 17.143 12.9643H23.7858C23.9042 12.9643 24.0001 12.8684 24.0001 12.75Z" fill="white" fill-opacity="0.875"/>
<path d="M21.0155 4.04519L19.9548 2.98449C19.8713 2.90089 19.7354 2.90089 19.6519 2.98449L14.9547 7.68159C14.8712 7.76519 14.8712 7.90099 14.9547 7.98459L16.0154 9.04529C16.099 9.12879 16.2348 9.12879 16.3184 9.04529L21.0155 4.34809C21.0994 4.26429 21.0994 4.12869 21.0155 4.04519Z" fill="white" fill-opacity="0.75"/>
<path d="M11.2499 7.07141H12.7499C12.8683 7.07141 12.9642 6.97551 12.9642 6.85711V0.214312C12.9642 0.0959116 12.8683 1.14441e-05 12.7499 1.14441e-05H11.2499C11.1315 1.14441e-05 11.0356 0.0959116 11.0356 0.214312V6.85711C11.0356 6.97551 11.1315 7.07141 11.2499 7.07141Z" fill="white" fill-opacity="0.625"/>
<path d="M7.98464 9.04529L9.04536 7.98459C9.12893 7.90099 9.12893 7.76519 9.04536 7.68159L4.34821 2.98449C4.26464 2.90089 4.12884 2.90089 4.04527 2.98449L2.98455 4.04519C2.90098 4.12869 2.90098 4.26459 2.98455 4.34809L7.6817 9.04529C7.70157 9.06519 7.72517 9.08099 7.75117 9.09179C7.77716 9.10259 7.80503 9.10809 7.83317 9.10809C7.86131 9.10809 7.88918 9.10259 7.91517 9.09179C7.94117 9.08099 7.96477 9.06519 7.98464 9.04529Z" fill="white" fill-opacity="0.5"/>
<path d="M7.07143 12.75V11.25C7.07143 11.1316 6.97554 11.0357 6.85714 11.0357H0.214286C0.0958929 11.0357 0 11.1316 0 11.25V12.75C0 12.8684 0.0958929 12.9643 0.214286 12.9643H6.85714C6.97554 12.9643 7.07143 12.8684 7.07143 12.75Z" fill="white" fill-opacity="0.375"/>
<path d="M9.04536 16.0155L7.98464 14.9548C7.90107 14.8712 7.76527 14.8712 7.6817 14.9548L2.98455 19.6519C2.90098 19.7355 2.90098 19.8713 2.98455 19.9548L4.04527 21.0156C4.12884 21.0991 4.26464 21.0991 4.34821 21.0156L9.04536 16.3184C9.06529 16.2985 9.0811 16.2749 9.09189 16.2489C9.10268 16.223 9.10824 16.1951 9.10824 16.1669C9.10824 16.1388 9.10268 16.1109 9.09189 16.0849C9.0811 16.0589 9.06529 16.0353 9.04536 16.0155Z" fill="white" fill-opacity="0.25"/>
<path d="M11.2499 24H12.7499C12.8683 24 12.9642 23.9041 12.9642 23.7857V17.1429C12.9642 17.0245 12.8683 16.9286 12.7499 16.9286H11.2499C11.1315 16.9286 11.0356 17.0245 11.0356 17.1429V23.7857C11.0356 23.9041 11.1315 24 11.2499 24Z" fill="white" fill-opacity="0.125"/>
<path d="M19.9548 21.0156L21.0155 19.9548C21.0991 19.8713 21.0991 19.7355 21.0155 19.6519L16.3184 14.9547C16.2348 14.8712 16.099 14.8712 16.0154 14.9547L14.9547 16.0155C14.8712 16.099 14.8712 16.2348 14.9547 16.3184L19.6519 21.0156C19.7357 21.0994 19.8713 21.0994 19.9548 21.0156Z" fill="white"/>
</g>
<defs>
<clipPath id="clip0_4396_5263">
<rect width="24" height="24" fill="white" transform="matrix(1 0 0 -1 0 24)"/>
</clipPath>
</defs>
</svg>
