<svg width="64" height="64" viewBox="0 0 64 64" fill="none" xmlns="http://www.w3.org/2000/svg">
<rect width="64" height="64" rx="5" fill="white"/>
<path d="M23.8454 27.1529H19.4774V40.6169H15.8534V27.1529H11.4854V23.9609H23.8454V27.1529ZM34.4223 36.4889H27.6543L26.2143 40.6169H22.4223L28.6383 23.9609H33.5343L39.7023 40.6169H35.8383L34.4223 36.4889ZM33.3663 33.4649L31.2063 27.1529H30.9183L28.7103 33.4649H33.3663ZM48.8688 40.8569C47.6528 40.8569 46.5488 40.7369 45.5568 40.4969C44.5648 40.2569 43.7168 39.8249 43.0128 39.2009C42.3088 38.5609 41.7648 37.6889 41.3808 36.5849C40.9968 35.4649 40.8048 34.0329 40.8048 32.2889C40.8048 30.6889 40.9888 29.3449 41.3568 28.2569C41.7408 27.1529 42.2848 26.2649 42.9888 25.5929C43.6928 24.9209 44.5328 24.4409 45.5088 24.1529C46.5008 23.8649 47.6128 23.7209 48.8448 23.7209C50.4128 23.7209 51.7088 23.9049 52.7328 24.2729V27.4169C52.2208 27.2409 51.6608 27.1049 51.0528 27.0089C50.4448 26.8969 49.7888 26.8409 49.0848 26.8409C48.3328 26.8409 47.6848 26.9369 47.1408 27.1289C46.5968 27.3049 46.1488 27.6089 45.7968 28.0409C45.4448 28.4569 45.1808 29.0089 45.0048 29.6969C44.8448 30.3849 44.7648 31.2409 44.7648 32.2649C44.7648 33.3529 44.8448 34.2489 45.0048 34.9529C45.1808 35.6409 45.4448 36.1929 45.7968 36.6089C46.1488 37.0089 46.5888 37.2889 47.1168 37.4489C47.6608 37.6089 48.3008 37.6889 49.0368 37.6889C49.7248 37.6889 50.3808 37.6409 51.0048 37.5449C51.6448 37.4329 52.2848 37.2649 52.9248 37.0409V40.1609C52.4288 40.3689 51.8288 40.5369 51.1248 40.6649C50.4208 40.7929 49.6688 40.8569 48.8688 40.8569Z" fill="#475CD0"/>
</svg>
