<svg width="27" height="27" viewBox="0 0 27 27" fill="none" xmlns="http://www.w3.org/2000/svg">
<rect width="27" height="27" rx="5" fill="white"/>
<path d="M9.68795 11.5488H7.86794V17.1588H6.35794V11.5488H4.53794V10.2188H9.68795V11.5488ZM14.095 15.4388H11.275L10.675 17.1588H9.09498L11.685 10.2188H13.725L16.295 17.1588H14.685L14.095 15.4388ZM13.655 14.1788L12.755 11.5488H12.635L11.715 14.1788H13.655ZM20.1144 17.2588C19.6077 17.2588 19.1477 17.2088 18.7344 17.1088C18.321 17.0088 17.9677 16.8288 17.6744 16.5688C17.381 16.3021 17.1544 15.9388 16.9944 15.4788C16.8344 15.0121 16.7544 14.4155 16.7544 13.6888C16.7544 13.0221 16.831 12.4621 16.9844 12.0088C17.1444 11.5488 17.371 11.1788 17.6644 10.8988C17.9577 10.6188 18.3077 10.4188 18.7144 10.2988C19.1277 10.1788 19.591 10.1188 20.1044 10.1188C20.7577 10.1188 21.2977 10.1955 21.7244 10.3488V11.6588C21.511 11.5855 21.2777 11.5288 21.0244 11.4888C20.771 11.4421 20.4977 11.4188 20.2044 11.4188C19.891 11.4188 19.621 11.4588 19.3944 11.5388C19.1677 11.6121 18.981 11.7388 18.8344 11.9188C18.6877 12.0921 18.5777 12.3221 18.5044 12.6088C18.4377 12.8955 18.4044 13.2521 18.4044 13.6788C18.4044 14.1321 18.4377 14.5055 18.5044 14.7988C18.5777 15.0855 18.6877 15.3155 18.8344 15.4888C18.981 15.6555 19.1644 15.7721 19.3844 15.8388C19.611 15.9055 19.8777 15.9388 20.1844 15.9388C20.471 15.9388 20.7444 15.9188 21.0044 15.8788C21.271 15.8321 21.5377 15.7621 21.8044 15.6688V16.9688C21.5977 17.0555 21.3477 17.1255 21.0544 17.1788C20.761 17.2321 20.4477 17.2588 20.1144 17.2588Z" fill="#475CD0"/>
</svg>
