<svg width="118" height="65" viewBox="0 0 118 65" fill="none" xmlns="http://www.w3.org/2000/svg">
<g clip-path="url(#clip0_4103_9766)">
<path d="M117.938 0H0V65H117.938V0Z" fill="#252525"/>
<path d="M56.4897 31.83V32.9558H55.3506V26.496L56.4897 26.5362V31.696C56.9275 30.9454 57.343 30.0743 57.7361 29.0826C58.1293 28.0908 58.4152 27.1795 58.5939 26.3485L59.8001 26.6166C59.6749 27.1616 59.5499 27.6396 59.4248 28.0506H63.2176V29.23H59.0227C58.585 30.4273 58.0846 31.5083 57.5217 32.4733L56.4897 31.83ZM52.697 26.9918L53.8361 27.0454V32.6073H52.697V26.9918ZM59.8939 29.5382C60.2244 29.7974 60.6489 30.1904 61.1671 30.7176C61.6853 31.2358 62.0918 31.6781 62.3867 32.0444L61.4887 32.9424C61.2386 32.6028 60.8588 32.174 60.3495 31.6558C59.8492 31.1286 59.4114 30.6953 59.0361 30.3558L59.8939 29.5382ZM62.0114 33.4114V36.9764H63.4856V38.0753H51.5176V36.9764H52.9516V33.4114H62.0114ZM55.6722 34.5104H54.1042V36.9764H55.6722V34.5104ZM56.731 36.9764H58.2454V34.5104H56.731V36.9764ZM59.3042 36.9764H60.8722V34.5104H59.3042V36.9764ZM70.125 29.0424V30.5836H68.9724V27.9166H72.0147C71.9162 27.5681 71.7735 27.1259 71.5858 26.5898L72.7652 26.4156C72.9435 26.8891 73.1137 27.3894 73.2745 27.9166H76.2363V30.5836H75.1106V29.0424H70.125ZM68.49 32.7011C68.3291 32.7815 68.0075 32.929 67.525 33.1434V36.9898C67.525 37.3829 67.4801 37.6733 67.391 37.8609C67.3012 38.0575 67.1451 38.196 66.9216 38.2764C66.7071 38.3568 66.3721 38.4149 65.9164 38.4506L65.3535 38.5042L65.0185 37.3382L65.6752 37.2846C65.8985 37.2667 66.0549 37.2399 66.1443 37.2042C66.2426 37.1774 66.3096 37.1238 66.3453 37.0434C66.381 36.9541 66.3989 36.8111 66.3989 36.6145V33.6125C65.7645 33.8716 65.2329 34.0681 64.804 34.2022L64.536 33.0228C65.0632 32.8619 65.6841 32.6296 66.3989 32.3259V29.9805H64.9381V28.7877H66.3989V26.4424L67.525 26.4826V28.7877H68.6106V29.9805H67.525V31.8434C67.7481 31.7451 67.9807 31.6379 68.2219 31.5217L68.3157 31.964L68.49 32.7011ZM68.6106 32.2454C69.0837 31.9595 69.5755 31.6066 70.0848 31.1867C70.6028 30.7578 71.0451 30.3379 71.4116 29.9269L72.1755 30.7578C71.7909 31.1599 71.3352 31.5753 70.8085 32.0042C70.2898 32.4331 69.7672 32.8307 69.2405 33.197L68.6106 32.2454ZM73.5559 29.9403C73.9754 30.2172 74.5162 30.6059 75.1776 31.1063C75.8477 31.5977 76.3436 31.9863 76.6652 32.2723L76.0353 33.3176C75.6601 32.9602 75.1461 32.5269 74.4941 32.0176C73.8414 31.4994 73.3147 31.1108 72.9126 30.8516L73.5559 29.9403ZM75.6601 34.497H73.1539V36.8424H76.6116V37.9547H68.49V36.8424H71.9075V34.497H69.3879V33.3846H75.6601V34.497ZM85.8637 27.5279C86.3549 27.9747 86.958 28.5733 87.673 29.3238C88.3967 30.0654 88.9777 30.7042 89.4153 31.2403L88.5977 32.1784C88.3565 31.8747 88.1153 31.5843 87.874 31.3073C85.274 31.3698 83.0942 31.4413 81.3338 31.5217C80.208 31.5664 79.3014 31.6245 78.6132 31.696L78.305 30.4362C78.5998 30.3826 78.8189 30.329 78.9617 30.2753C79.1138 30.2217 79.2565 30.1413 79.3905 30.0341C79.873 29.6767 80.4848 29.096 81.2266 28.2918C81.9771 27.4788 82.5487 26.7729 82.9421 26.1743L84.0276 26.8042C83.5807 27.4207 83.0446 28.0729 82.4194 28.7609C81.7942 29.4399 81.2668 29.9537 80.8379 30.3022L86.7885 30.1011C86.1184 29.3774 85.524 28.7788 85.006 28.3052L85.8637 27.5279ZM80.7307 38.5176H79.4977V32.8753H88.2359V38.5176H86.9895V37.8743H80.7307V38.5176ZM86.9895 36.7351V34.0681H80.7307V36.7351H86.9895Z" fill="white"/>
<path d="M38.0983 29.7307C37.986 29.627 37.8391 29.5666 37.6922 29.5839C37.5367 29.6011 37.407 29.6875 37.3206 29.8085L35.6442 32.28L34.4258 28.2617C34.3653 28.0629 34.2097 27.9247 34.011 27.8901C33.8209 27.8555 33.6221 27.942 33.5097 28.1061L31.7555 30.6121L31.1334 29.9122C30.9519 29.7048 30.6408 29.6789 30.4248 29.8517L28.5583 31.3812C28.3336 31.5627 28.299 31.9084 28.4718 32.1417C28.6447 32.375 28.9817 32.4096 29.2063 32.2281L30.684 31.0096L31.4099 31.8306C31.5136 31.9516 31.6692 32.012 31.8247 32.0034C31.9802 31.9948 32.1271 31.917 32.2136 31.7787L33.7344 29.6097L34.9615 33.6453C35.022 33.844 35.1862 33.9823 35.3763 34.0169C35.4022 34.0255 35.4281 34.0255 35.454 34.0255C35.6182 34.0255 35.7825 33.9391 35.8775 33.7922L37.8131 30.9319L39.118 32.2194C39.3254 32.4268 39.6538 32.4182 39.8525 32.2022C40.0513 31.9861 40.0426 31.6491 39.8352 31.4417L38.0983 29.7307Z" fill="white"/>
<path d="M40.1118 25.7991H28.2472C27.4522 25.7991 26.8041 26.4472 26.8041 27.2422V34.7256C26.8041 35.5206 27.4522 36.1687 28.2472 36.1687H33.6394V38.7352H28.6274C28.3249 38.7352 28.0916 38.9772 28.0916 39.271C28.0916 39.5648 28.3336 39.8067 28.6274 39.8067H39.7316C40.034 39.8067 40.2673 39.5648 40.2673 39.271C40.2673 38.9772 40.0253 38.7352 39.7316 38.7352H34.7196V36.1687H40.1118C40.9068 36.1687 41.5463 35.5206 41.5463 34.7256V27.2336C41.5549 26.4472 40.9068 25.7991 40.1118 25.7991ZM40.4747 34.7256C40.4747 34.9243 40.3105 35.0886 40.1118 35.0886H28.2472C28.0485 35.0886 27.8842 34.9243 27.8842 34.7256V27.2422C27.8842 27.0435 28.0485 26.8792 28.2472 26.8792H40.1118C40.3105 26.8792 40.4747 27.0435 40.4747 27.2422V34.7256Z" fill="white"/>
</g>
<defs>
<clipPath id="clip0_4103_9766">
<rect width="117.938" height="65" fill="white"/>
</clipPath>
</defs>
</svg>
