<svg width="15" height="15" viewBox="0 0 15 15" fill="none" xmlns="http://www.w3.org/2000/svg">
<path d="M11.4039 4.41258C11.2921 4.30939 11.1459 4.2492 10.9997 4.26639C10.845 4.28359 10.716 4.36958 10.63 4.48997L8.96177 6.94929L7.74931 2.95074C7.68911 2.75297 7.53433 2.61538 7.33655 2.58099C7.14738 2.54659 6.9496 2.63258 6.83781 2.79596L5.09221 5.28968L4.47308 4.59316C4.2925 4.38678 3.98294 4.36098 3.76796 4.53296L1.91058 6.05499C1.687 6.23557 1.65261 6.57953 1.82459 6.8117C1.99657 7.04387 2.33193 7.07827 2.5555 6.89769L4.02593 5.68523L4.74825 6.50214C4.85144 6.62252 5.00622 6.68272 5.161 6.67412C5.31579 6.66552 5.46197 6.58813 5.54796 6.45054L7.06139 4.29219L8.28244 8.30793C8.34264 8.50571 8.50602 8.64329 8.6952 8.67769C8.72099 8.68629 8.74679 8.68629 8.77259 8.68629C8.93597 8.68629 9.09935 8.6003 9.19394 8.45411L11.1201 5.60784L12.4186 6.88909C12.6249 7.09547 12.9517 7.08687 13.1495 6.87189C13.3473 6.65692 13.3387 6.32156 13.1323 6.11518L11.4039 4.41258Z" fill="white"/>
<path d="M13.4075 0.5H1.60107C0.809965 0.5 0.165039 1.14493 0.165039 1.93604V9.38278C0.165039 10.1739 0.809965 10.8188 1.60107 10.8188H6.96686V13.3727H1.97943C1.67847 13.3727 1.44629 13.6135 1.44629 13.9059C1.44629 14.1982 1.68706 14.439 1.97943 14.439H13.0292C13.3301 14.439 13.5623 14.1982 13.5623 13.9059C13.5623 13.6135 13.3215 13.3727 13.0292 13.3727H8.04173V10.8188H13.4075C14.1986 10.8188 14.835 10.1739 14.835 9.38278V1.92744C14.8436 1.14493 14.1986 0.5 13.4075 0.5ZM13.7687 9.38278C13.7687 9.58056 13.6053 9.74394 13.4075 9.74394H1.60107C1.4033 9.74394 1.23992 9.58056 1.23992 9.38278V1.93604C1.23992 1.73826 1.4033 1.57488 1.60107 1.57488H13.4075C13.6053 1.57488 13.7687 1.73826 13.7687 1.93604V9.38278Z" fill="white"/>
</svg>
