<svg width="74" height="30" viewBox="0 0 74 30" fill="none" xmlns="http://www.w3.org/2000/svg">
<g clip-path="url(#clip0_4175_4323)">
<path d="M0.652344 6.5217C0.652344 3.09994 3.42623 0.32605 6.848 0.32605H66.1958C69.6178 0.32605 72.3915 3.09993 72.3915 6.5217V23.4782C72.3915 26.9 69.6178 29.6739 66.1958 29.6739H6.848C3.42624 29.6739 0.652344 26.9 0.652344 23.4782V6.5217Z" stroke="#475CD0"/>
<path d="M20.8695 10.1828C23.5259 10.1828 25.6866 12.3436 25.6866 15C25.6866 17.6563 23.5259 19.8171 20.8695 19.8171C18.2131 19.8171 16.0523 17.6563 16.0523 15C16.0523 12.3436 18.2131 10.1828 20.8695 10.1828ZM20.8695 8.80432C17.4464 8.80432 14.6738 11.5769 14.6738 15C14.6738 18.4231 17.4464 21.1956 20.8695 21.1956C24.2926 21.1956 27.0651 18.4231 27.0651 15C27.0651 11.5769 24.2926 8.80432 20.8695 8.80432Z" fill="white"/>
<path d="M18.7397 14.9381C18.7397 15.2178 18.7948 15.4947 18.9019 15.7531C19.0089 16.0115 19.1657 16.2463 19.3636 16.4441C19.5613 16.6418 19.7961 16.7987 20.0545 16.9058C20.3129 17.0128 20.5898 17.0679 20.8695 17.0679C21.1491 17.0679 21.4261 17.0128 21.6845 16.9058C21.9429 16.7987 22.1777 16.6418 22.3754 16.4441C22.5732 16.2463 22.7301 16.0115 22.8371 15.7531C22.9442 15.4947 22.9992 15.2178 22.9992 14.9381C22.9992 14.3732 22.7749 13.8315 22.3754 13.4322C21.976 13.0328 21.4343 12.8083 20.8695 12.8083C20.3046 12.8083 19.7629 13.0328 19.3636 13.4322C18.9641 13.8315 18.7397 14.3732 18.7397 14.9381Z" fill="white"/>
<path d="M44.708 19.1478L44.1211 20.2173C42.9646 19.7217 42.0211 19.226 41.2906 18.7304C40.5689 18.2347 39.9558 17.6434 39.4515 16.9565V19.213C39.4515 19.5956 39.3993 19.8869 39.295 20.0869C39.1906 20.2869 39.0167 20.4304 38.7732 20.5173C38.5298 20.6043 38.1732 20.6695 37.7037 20.713L36.7385 20.8043L36.3732 19.6695L37.3254 19.6043C37.621 19.5782 37.8341 19.5435 37.9645 19.5C38.095 19.4565 38.1819 19.3826 38.2254 19.2782C38.2689 19.1739 38.2906 19.0087 38.2906 18.7826V17.413C37.908 17.6565 37.1341 18.126 35.9689 18.8217C34.8037 19.5086 34.0428 19.9521 33.6863 20.1521L33.0732 19.1217C33.4559 18.9478 34.2341 18.5217 35.408 17.8434C36.5906 17.1565 37.3863 16.6739 37.795 16.3956L38.095 16.9434L38.2906 17.3086V14.7782H34.9254C35.2037 14.9695 35.5385 15.2173 35.9298 15.5217C36.3211 15.8173 36.6385 16.0695 36.8819 16.2782L36.2037 17.2434C35.9776 17.0173 35.6559 16.7391 35.2385 16.4086C34.8297 16.0695 34.4776 15.7912 34.1819 15.5739L34.7689 14.7782H33.3863V13.7478H41.695V12.7173H34.7037V11.6869H41.695V10.6434H34.3645V9.59995H42.8689V13.7478H44.4993V14.7782H42.9993L43.6906 15.6782C43.395 15.9217 43.0341 16.2043 42.608 16.526C42.182 16.8478 41.7776 17.1347 41.395 17.3869C42.2384 18.0478 43.3428 18.6347 44.708 19.1478ZM39.4515 14.7782V14.9739C39.7298 15.5565 40.0906 16.0956 40.5341 16.5913C41.5254 15.913 42.3167 15.3086 42.908 14.7782H39.4515ZM50.2694 11.9478V13.3173H52.9303V14.4H50.2694V15.5739H52.5912V18.926C52.5912 19.3173 52.5042 19.5913 52.3303 19.7478C52.1564 19.9043 51.8433 20.0043 51.3912 20.0478L50.8825 20.0869L50.5173 19.0304L50.9999 18.9913C51.2172 18.9738 51.3607 18.9347 51.4303 18.8739C51.4999 18.813 51.5347 18.6826 51.5347 18.4826V16.6434H50.2694V20.9608H49.1607V16.6434H47.752V20.0739H46.7086V15.5739H49.1607V14.4H45.9651V13.3173H49.1607V11.9478H47.6738C47.5086 12.4173 47.339 12.8304 47.1651 13.1869L46.1477 12.8217C46.6434 11.7347 46.9999 10.6478 47.2173 9.56082L48.2868 9.73039C48.2086 10.113 48.1173 10.4869 48.0129 10.8521H49.1607V9.14343L50.2694 9.19561V10.8521H52.6564V11.9478H50.2694ZM55.839 9.29995L56.9477 9.35213V19.2391C56.9477 19.6391 56.8999 19.9391 56.8042 20.1391C56.7173 20.3478 56.5564 20.4956 56.3216 20.5826C56.0955 20.6782 55.7477 20.7521 55.2781 20.8043L54.4564 20.8956L54.052 19.7217L54.926 19.6434C55.2912 19.6087 55.5346 19.5391 55.6564 19.4347C55.7782 19.3304 55.839 19.1217 55.839 18.8086V9.29995ZM53.5694 10.3695L54.6912 10.4217V18.1304H53.5694V10.3695Z" fill="white"/>
</g>
<defs>
<clipPath id="clip0_4175_4323">
<rect width="73.0435" height="30" fill="white"/>
</clipPath>
</defs>
</svg>
