<svg width="13" height="14" viewBox="0 0 13 14" fill="none" xmlns="http://www.w3.org/2000/svg">
<path d="M6.5 1.94625C9.28688 1.94625 11.5538 4.21313 11.5538 7C11.5538 9.78688 9.28688 12.0538 6.5 12.0538C3.71313 12.0538 1.44625 9.78688 1.44625 7C1.44625 4.21313 3.71313 1.94625 6.5 1.94625ZM6.5 0.5C2.90875 0.5 0 3.40875 0 7C0 10.5913 2.90875 13.5 6.5 13.5C10.0913 13.5 13 10.5913 13 7C13 3.40875 10.0913 0.5 6.5 0.5Z" fill="white"/>
<path d="M4.26572 6.93506C4.26572 7.22848 4.32351 7.51903 4.4358 7.79012C4.54809 8.0612 4.71267 8.30752 4.92015 8.515C5.12763 8.72248 5.37395 8.88706 5.64503 8.99935C5.91612 9.11164 6.20667 9.16943 6.50009 9.16943C6.79351 9.16943 7.08406 9.11164 7.35515 8.99935C7.62624 8.88706 7.87255 8.72248 8.08003 8.515C8.28751 8.30752 8.4521 8.0612 8.56438 7.79012C8.67667 7.51903 8.73447 7.22848 8.73447 6.93506C8.73447 6.34247 8.49906 5.77414 8.08003 5.35512C7.66101 4.93609 7.09268 4.70068 6.50009 4.70068C5.9075 4.70068 5.33918 4.93609 4.92015 5.35512C4.50112 5.77414 4.26572 6.34247 4.26572 6.93506Z" fill="white"/>
</svg>
