<svg width="73" height="30" viewBox="0 0 73 30" fill="none" xmlns="http://www.w3.org/2000/svg">
<g clip-path="url(#clip0_4216_11800)">
<path d="M0.326172 6.52173C0.326172 3.09997 3.10006 0.32608 6.52182 0.32608H65.8696C69.2916 0.32608 72.0653 3.09997 72.0653 6.52173V23.4783C72.0653 26.9 69.2916 29.6739 65.8696 29.6739H6.52182C3.10006 29.6739 0.326172 26.9 0.326172 23.4783V6.52173Z" fill="#475CD0"/>
<path d="M0.326172 6.52173C0.326172 3.09997 3.10006 0.32608 6.52182 0.32608H65.8696C69.2916 0.32608 72.0653 3.09997 72.0653 6.52173V23.4783C72.0653 26.9 69.2916 29.6739 65.8696 29.6739H6.52182C3.10006 29.6739 0.326172 26.9 0.326172 23.4783V6.52173Z" stroke="#475CD0"/>
<path d="M17.4216 9.12842H16.3297C15.9555 9.12842 15.6521 9.43181 15.6521 9.80609V20.1939C15.6521 20.5681 15.9555 20.8716 16.3297 20.8716H17.4216C17.7959 20.8716 18.0993 20.5681 18.0993 20.1939V9.80609C18.0993 9.43181 17.7959 9.12842 17.4216 9.12842ZM24.7571 9.12842H23.6652C23.2909 9.12842 22.9875 9.43181 22.9875 9.80609V20.1939C22.9875 20.5681 23.2909 20.8716 23.6652 20.8716H24.7571C25.1313 20.8716 25.4347 20.5681 25.4347 20.1939V9.80609C25.4347 9.43181 25.1313 9.12842 24.7571 9.12842Z" fill="white"/>
<path d="M34.456 15.6783V14.8044C32.8646 14.9261 31.9211 15.0044 31.6255 15.0391L31.5603 14.087C31.9168 14.0783 32.8821 14.0217 34.456 13.9174V13.0565H32.1603V12.2348C32.4386 11.9043 32.7342 11.4652 33.0473 10.9174H31.8473V10.0174H33.5299C33.756 9.57392 33.9125 9.22175 33.9994 8.96088L35.082 9.22175C34.9777 9.45653 34.8516 9.72177 34.7038 10.0174H37.2733V10.9174H34.2473C33.9516 11.4566 33.6951 11.8739 33.4777 12.1696H34.456V11.2565L35.5907 11.3087V12.1696H37.1299V13.0565H35.5907V13.8261C35.7647 13.8087 35.8907 13.8 35.969 13.8C36.4472 13.7652 36.8342 13.7304 37.1299 13.6957V14.6087L35.5907 14.7261V15.6783H34.456ZM43.0125 12.1826V13.1609H41.4212V15.587H40.2864V13.1609H38.7473C38.7125 13.7261 38.6168 14.2087 38.4603 14.6087C38.3125 15 38.0473 15.4391 37.6646 15.9261L36.7516 15.3783C37.0647 14.987 37.2864 14.6522 37.4168 14.3739C37.5473 14.087 37.6255 13.7913 37.6516 13.487C37.6864 13.1739 37.7038 12.7 37.7038 12.0652V10.0044C39.0429 9.92609 40.5168 9.69131 42.1255 9.30001L42.4255 10.3435C41.2342 10.6479 40.0168 10.8652 38.7733 10.9957V12.1826H43.0125ZM34.3907 20.8435H33.1647V15.9261H41.369V20.8304H40.1299V20.2957H34.3907V20.8435ZM40.1299 17.7V16.8261H34.3907V17.7H40.1299ZM34.3907 18.587V19.4348H40.1299V18.587H34.3907ZM55.6435 10.2522V11.2044H47.8565V10.2522H51.0782C51.0174 10.0609 50.9 9.71303 50.7261 9.2087L51.9 9.02609C52.0391 9.39131 52.1826 9.80003 52.3304 10.2522H55.6435ZM47.7652 9.27392C47.4521 10.3609 47.1391 11.2913 46.8261 12.0652V20.7522H45.7435V14.2696C45.4043 14.8435 45.0696 15.3478 44.7391 15.7826L43.9435 14.8174C44.4826 14.0956 44.9826 13.2348 45.4435 12.2348C45.9043 11.2348 46.2913 10.1783 46.6043 9.06522L47.7652 9.27392ZM48.4695 14.2957V11.8957H54.6913V14.2957H48.4695ZM49.5913 13.487H53.5695V12.7044H49.5913V13.487ZM48.6391 17.2304H47.5304V14.9217H55.6435V17.2435H54.5087V15.8609H48.6391V17.2304ZM48.913 17.7522V16.7739H54.2348V17.7522H52.3043V19.3696C52.3043 19.7174 52.2565 19.9826 52.1608 20.1652C52.0652 20.3478 51.8956 20.4826 51.6521 20.5696C51.4174 20.6565 51.0608 20.7174 50.5826 20.7522L49.7869 20.8044L49.4348 19.7087L50.3348 19.6565C50.5782 19.6391 50.7522 19.613 50.8565 19.5783C50.9608 19.5522 51.0304 19.5 51.0652 19.4217C51.1087 19.3435 51.1304 19.2217 51.1304 19.0565V17.7522H48.913Z" fill="white"/>
</g>
<defs>
<clipPath id="clip0_4216_11800">
<rect width="72.3913" height="30" fill="white"/>
</clipPath>
</defs>
</svg>
