<svg width="144" height="52" viewBox="0 0 144 52" fill="none" xmlns="http://www.w3.org/2000/svg">
<g clip-path="url(#clip0_4296_5022)">
<path d="M58.9422 11.9938C58.9152 12.426 58.8657 12.8672 58.7937 13.3174C58.6946 13.8396 58.573 14.2313 58.429 14.4925C58.2939 14.7536 58.0778 14.9382 57.7807 15.0462C57.4925 15.1543 57.0648 15.2218 56.4976 15.2488C55.372 15.2939 54.359 15.3164 53.4586 15.3164C52.6302 15.3164 51.6982 15.2939 50.6628 15.2488C50.0774 15.2218 49.6317 15.1408 49.3256 15.0057C49.0195 14.8796 48.7989 14.6635 48.6638 14.3574C48.5287 14.0513 48.4612 13.6056 48.4612 13.0203V6.64519L49.7713 6.69921V8.36051H56.43V5.37558H48.1235V4.09246H57.7267V9.60311H49.7713V12.6826C49.7713 13.0518 49.8029 13.3219 49.8659 13.493C49.9379 13.664 50.0595 13.7856 50.2305 13.8577C50.4107 13.9207 50.6943 13.9612 51.0815 13.9792C52.0089 14.0243 52.8463 14.0467 53.5937 14.0467C54.341 14.0467 55.1784 14.0243 56.1059 13.9792C56.493 13.9522 56.7722 13.9117 56.9433 13.8577C57.1234 13.8036 57.2539 13.7046 57.335 13.5605C57.416 13.4074 57.4835 13.1688 57.5376 12.8447C57.6006 12.4395 57.6411 12.0118 57.6591 11.5616L58.9422 11.9938ZM63.3369 6.44259C63.0848 6.15445 62.7201 5.81679 62.2429 5.4296C61.7747 5.04242 61.3739 4.73627 61.0408 4.51116L61.7567 3.57921C62.0628 3.77731 62.45 4.05645 62.9182 4.41662C63.3864 4.77679 63.7511 5.07843 64.0122 5.32155L63.3369 6.44259ZM72.0624 11.7641C71.6302 11.485 71.2385 11.2104 70.8874 10.9403C71.1035 11.3454 71.3601 11.8812 71.6572 12.5475C71.9632 13.2048 72.2016 13.7586 72.3731 14.2088L71.3871 14.6951C71.2338 14.2178 71.0089 13.6416 70.7118 12.9662C70.4147 12.2909 70.1486 11.7371 69.9149 11.3049L70.8198 10.8862C69.7663 10.0488 68.9647 9.08986 68.4157 8.00934H67.3889C67.0197 8.76571 66.5425 9.45906 65.9572 10.0893C65.3719 10.7196 64.6425 11.3454 63.7691 11.9667L63.1208 11.0618C62.9677 11.7191 62.7607 12.471 62.4995 13.3174C62.2384 14.1638 61.9998 14.8526 61.7837 15.3839L60.5951 15.0597C60.8022 14.5825 61.0678 13.8306 61.392 12.8041C61.7161 11.7687 61.9368 10.9627 62.0538 10.3865L62.6211 10.5351L63.2018 10.6971C63.1838 10.7692 63.1748 10.8187 63.1748 10.8457C63.8591 10.4135 64.4399 9.96779 64.9172 9.50856C65.3944 9.04934 65.7951 8.5496 66.1192 8.00934H63.7691V6.90181H66.646C66.8531 6.35255 67.0152 5.76276 67.1322 5.13246H64.566V4.03843H71.5627V5.13246H68.3347C68.2171 5.74476 68.0598 6.33454 67.8619 6.90181H72.184V8.00934H69.6853C70.0095 8.57662 70.4146 9.06737 70.9009 9.48155C71.3871 9.89573 71.9902 10.2874 72.7108 10.6566L72.0624 11.7641ZM62.8237 9.60311C62.5535 9.31495 62.1708 8.9683 61.6756 8.56311C61.1804 8.14893 60.7662 7.82923 60.433 7.60415L61.1218 6.65869C61.455 6.85677 61.8602 7.14493 62.3374 7.52311C62.8237 7.90129 63.2154 8.22545 63.5125 8.49558L62.8237 9.60311ZM67.0512 9.31947L68.1456 9.3735V13.9387C68.1456 14.3169 68.1003 14.6005 68.0105 14.7896C67.92 14.9877 67.7674 15.1273 67.5513 15.2083C67.3438 15.2983 67.0377 15.3614 66.6325 15.3974L65.9977 15.4649L65.6465 14.3169L66.2678 14.2629C66.502 14.2448 66.6685 14.2178 66.7676 14.1818C66.8756 14.1458 66.9477 14.0827 66.9837 13.9927C67.0287 13.8936 67.0512 13.7451 67.0512 13.547V9.31947ZM69.2936 10.9808C69.4645 11.3679 69.6623 11.8902 69.8879 12.5475C70.1128 13.2048 70.2884 13.7676 70.4146 14.2358L69.4287 14.6275C69.3294 14.1953 69.1673 13.6416 68.9424 12.9662C68.7263 12.2819 68.5325 11.7282 68.3617 11.3049L69.2936 10.9808ZM66.1328 11.3454C65.9526 11.8677 65.7051 12.4665 65.3899 13.1418C65.0747 13.8171 64.7866 14.3709 64.5255 14.8031L63.5395 14.2493C63.8277 13.8171 64.1203 13.3084 64.4174 12.7231C64.7146 12.1288 64.9577 11.5616 65.1468 11.0213L66.1328 11.3454ZM76.889 3.3361C76.889 3.94839 76.8755 4.67324 76.8485 5.51064H79.6983L79.5228 13.4795C79.514 13.9117 79.4505 14.2448 79.3337 14.479C79.2168 14.7131 79.0318 14.8841 78.7799 14.9922C78.528 15.1003 78.1721 15.1768 77.7129 15.2218L76.889 15.3029L76.4703 13.9927L77.4292 13.9117C77.6724 13.8937 77.8527 13.8577 77.9695 13.8036C78.0863 13.7496 78.1674 13.6596 78.2126 13.5335C78.2579 13.4074 78.2849 13.2139 78.2937 12.9527C78.3024 12.8357 78.3524 10.9988 78.4422 7.44207C78.4422 7.22597 78.4422 7.06389 78.4422 6.95584C78.451 6.84779 78.4557 6.77127 78.4557 6.72623H76.8079C76.7539 8.20296 76.6459 9.43651 76.4838 10.427C76.3305 11.4085 76.1009 12.2909 75.795 13.0743C75.489 13.8487 75.0656 14.6861 74.5254 15.5865L73.4043 14.9382C73.9176 14.1278 74.318 13.3624 74.6064 12.6421C74.9035 11.9217 75.1284 11.1023 75.2817 10.1839C75.435 9.26545 75.5431 8.11287 75.6059 6.72623H74.0391V5.51064H75.6329L75.6599 3.28207L76.889 3.3361ZM80.6168 15.2758V4.78129H85.2765V15.2758H84.0609V14.2629H81.8459V15.2758H80.6168ZM81.8459 6.01038V13.0878H84.0609V6.01038H81.8459ZM99.1531 8.73869H93.8045C93.6512 9.27895 93.5162 9.69313 93.3993 9.98129H98.032V11.1023L97.843 11.3725C97.2122 12.2909 96.6632 13.0608 96.1952 13.6821C96.8975 14.0422 97.4553 14.3439 97.87 14.587L97.4648 15.8296C96.7172 15.3524 95.7495 14.8211 94.5609 14.2358C93.3811 13.6596 92.3769 13.2139 91.5489 12.8987L92.0082 11.8047C92.9171 12.1469 93.9571 12.597 95.1282 13.1553C95.6414 12.471 96.1182 11.7912 96.5598 11.1158H92.0622V10.0893C92.2418 9.62114 92.3951 9.1709 92.5214 8.73869H90.5089V7.60415H92.8456C92.9084 7.36103 93.0211 6.90181 93.1832 6.22649H91.2113V5.07843H93.4257C93.5702 4.3851 93.6735 3.7638 93.737 3.21454L94.9661 3.36311C94.8668 4.02042 94.7675 4.5922 94.6689 5.07843H98.5183V6.22649H94.4393L94.1145 7.60415H99.1531V8.73869ZM91.0627 3.57921C90.7473 4.55168 90.3914 5.46112 89.9957 6.30753V15.5325H88.8206V8.45506C88.4154 9.09439 87.9697 9.71569 87.4835 10.319L86.7001 9.31947C87.2944 8.54508 87.8792 7.62218 88.456 6.55064C89.032 5.47012 89.5047 4.3806 89.8741 3.28207L91.0627 3.57921ZM110.665 11.7641C110.359 11.7641 110.076 11.6831 109.814 11.521C109.563 11.359 109.283 11.0753 108.977 10.6701C108.869 10.5261 108.793 10.418 108.747 10.346C108.342 10.7422 107.928 11.0933 107.505 11.3995L106.897 10.6161V11.0753H103.318V8.30649H106.897V10.4C107.383 10.0398 107.815 9.67064 108.194 9.29246C107.797 8.36504 107.496 7.21699 107.289 5.8483H102.764V7.0909C102.764 8.20742 102.656 9.13491 102.44 9.87324C102.224 10.6026 101.827 11.377 101.251 12.1964L100.211 11.548C100.617 10.9988 100.914 10.5126 101.103 10.0893C101.301 9.66612 101.436 9.2069 101.508 8.71168C101.58 8.20742 101.616 7.5456 101.616 6.72623V4.8083H107.154C107.081 4.31307 107.027 3.83133 106.992 3.36311L108.18 3.40363C108.189 3.52068 108.221 3.84484 108.275 4.3761L108.315 4.8083H109.855C109.63 4.54718 109.319 4.23203 108.923 3.86285L109.612 3.22805C110.116 3.67826 110.557 4.11497 110.935 4.53817L110.679 4.8083H111.921V5.8483H108.464C108.653 6.91984 108.847 7.7482 109.045 8.3335C109.549 7.66716 109.99 6.9243 110.368 6.10493L111.327 6.59116C110.742 7.77075 110.147 8.72971 109.544 9.46805C109.652 9.64815 109.787 9.84623 109.95 10.0623C110.211 10.3775 110.449 10.5351 110.665 10.5351C110.873 10.5351 111.048 10.2784 111.192 9.76519C111.282 9.45906 111.349 9.17543 111.395 8.91428L112.327 9.35999C112.281 9.63012 112.187 9.96778 112.043 10.373C111.755 11.3004 111.295 11.7641 110.665 11.7641ZM103.142 6.73973H107.221V7.63116H103.142V6.73973ZM104.25 10.2244H105.925V9.13038H104.25V10.2244ZM106.992 13.6416C106.83 13.4074 106.586 13.1103 106.262 12.7501C105.938 12.3809 105.677 12.1063 105.479 11.9262L106.235 11.1699C106.443 11.359 106.708 11.6201 107.032 11.9532C107.365 12.2864 107.613 12.5475 107.775 12.7366L106.992 13.6416ZM110.422 11.7777C110.674 12.0658 110.99 12.4575 111.368 12.9527C111.755 13.4479 112.061 13.8666 112.286 14.2088L111.314 14.9382C111.098 14.569 110.809 14.1323 110.449 13.628C110.098 13.1238 109.783 12.7096 109.504 12.3854L110.422 11.7777ZM108.356 12.7096L109.409 13.1148C109.346 13.61 109.288 13.9702 109.234 14.1953C109.18 14.4654 109.094 14.668 108.977 14.8031C108.86 14.9472 108.685 15.0508 108.45 15.1138C108.225 15.1768 107.897 15.2218 107.464 15.2488C107.059 15.2758 106.649 15.2893 106.235 15.2893C105.83 15.2893 105.416 15.2758 104.993 15.2488C104.417 15.2128 104.007 15.1003 103.764 14.9112C103.529 14.7221 103.412 14.3979 103.412 13.9387V11.8317L104.56 11.8857V13.493C104.56 13.7631 104.61 13.9432 104.709 14.0332C104.817 14.1143 105.028 14.1683 105.344 14.1953C105.56 14.2133 105.889 14.2223 106.33 14.2223C106.771 14.2223 107.1 14.2133 107.316 14.1953C107.649 14.1683 107.87 14.1233 107.978 14.0603C108.086 13.9882 108.162 13.8487 108.207 13.6416C108.252 13.4795 108.302 13.1688 108.356 12.7096ZM100.265 14.4925C100.887 13.628 101.405 12.7546 101.819 11.8722L102.872 12.2909C102.476 13.1733 101.958 14.1053 101.319 15.0867L100.265 14.4925ZM125.474 12.0073C125.275 11.9713 124.988 11.9082 124.609 11.8182V15.3704H123.515V14.8031H121.26V15.3704H120.166V11.2239H122.719C121.539 10.7737 120.589 10.1884 119.869 9.46805H119.396C119.108 9.8282 118.743 10.1479 118.302 10.427C117.86 10.7061 117.289 10.9718 116.587 11.2239H119.126V15.3704H118.032V14.8031H115.844V15.3704H114.75V11.8047L113.912 12.0343L113.561 10.9132C114.623 10.7152 115.493 10.5035 116.168 10.2784C116.843 10.0443 117.383 9.77417 117.789 9.46805H114.115V8.41454H118.68C118.833 8.13543 118.959 7.79776 119.058 7.40155L120.301 7.60415C120.193 7.93729 120.094 8.20742 120.004 8.41454H122.124C121.746 8.09038 121.494 7.88326 121.368 7.79324L121.814 7.32051H120.152V3.86285H124.663V7.32051H122.232C122.601 7.60867 122.908 7.87428 123.151 8.1174L122.921 8.41454H125.231V9.46805H121.422C121.881 9.81921 122.462 10.1074 123.164 10.3325C123.875 10.5575 124.758 10.7466 125.812 10.8997L125.474 12.0073ZM114.669 3.87636H119.139V7.32051H114.669V3.87636ZM115.749 6.33454H118.072V4.86233H115.749V6.33454ZM123.596 4.86233H121.233V6.32103H123.596V4.86233ZM115.844 13.8712H118.032V12.1964H115.844V13.8712ZM121.26 12.2099V13.8712H123.515V12.2099H121.26Z" fill="#BDBDBD"/>
<path d="M29.5659 4.7332C30.2563 5.42562 30.8038 6.24829 31.1769 7.15394C31.55 8.05962 31.7415 9.03046 31.7402 10.0107C31.7428 11.9346 31.0038 13.7847 29.6782 15.1729L29.5704 15.2837L28.8365 14.5476C29.4295 13.952 29.8997 13.2448 30.2201 12.4662C30.5406 11.6877 30.7049 10.8532 30.7037 10.0107C30.7061 8.35885 30.0728 6.77002 28.9363 5.57661L28.8327 5.46967L29.5659 4.7332ZM19.0636 4.72729L19.7961 5.46446C19.2003 6.06032 18.7277 6.7688 18.4057 7.54907C18.0836 8.32934 17.9184 9.16593 17.9196 10.0107C17.9172 11.6599 18.5485 13.2464 19.6817 14.4392L19.7851 14.5458L19.0509 15.2816C18.3624 14.5894 17.8166 13.7676 17.4446 12.8631C17.0726 11.9587 16.8818 10.9894 16.8831 10.0107C16.8831 8.00201 17.6774 6.11829 19.0636 4.72729ZM20.53 6.19988L21.2618 6.93736C20.8588 7.34006 20.5391 7.819 20.3213 8.34649C20.1035 8.87399 19.9918 9.43958 19.9927 10.0107C19.9927 11.1427 20.4249 12.2038 21.1847 13.0048L21.2704 13.0927L20.5407 13.8323C20.0379 13.3325 19.6389 12.7373 19.3669 12.0812C19.0949 11.4252 18.9553 10.7214 18.9562 10.0107C18.9562 8.56172 19.5294 7.2027 20.53 6.19988ZM28.0988 6.20509C28.5968 6.70434 28.9917 7.29758 29.2608 7.95062C29.5299 8.60373 29.668 9.30383 29.6671 10.0107C29.6689 11.3925 29.1401 12.7219 28.1907 13.7215L28.0953 13.8198L27.3629 13.0823C27.7654 12.6797 28.0847 12.201 28.3023 11.6738C28.5199 11.1467 28.6314 10.5814 28.6305 10.0107C28.6324 8.90161 28.2099 7.83426 27.4506 7.02941L27.3657 6.94189L28.0988 6.20509ZM21.9836 7.68535L22.7188 8.4197C22.5113 8.62878 22.3468 8.87689 22.2348 9.14993C22.1228 9.42289 22.0653 9.71538 22.0658 10.0107C22.0658 10.585 22.2797 11.1239 22.657 11.5367L22.7254 11.6083L21.9929 12.3458C21.687 12.0396 21.4443 11.6758 21.279 11.275C21.1136 10.8742 21.0287 10.4445 21.0292 10.0107C21.0282 9.13912 21.3715 8.3028 21.9836 7.68535ZM26.6377 7.68326C26.9414 7.98905 27.1821 8.35203 27.3462 8.75135C27.5103 9.15074 27.5945 9.57862 27.5941 10.0107C27.595 10.8424 27.2825 11.6434 26.7192 12.2528L26.6418 12.334L25.9058 11.6003C26.3241 11.1781 26.5584 10.6064 26.5575 10.0107C26.5584 9.44971 26.3505 8.9087 25.9746 8.49399L25.9031 8.41835L26.6377 7.68326ZM24.3116 8.62176C24.6782 8.62176 25.0297 8.7681 25.2889 9.02857C25.5481 9.28905 25.6937 9.64231 25.6937 10.0107C25.6937 10.3791 25.5481 10.7323 25.2889 10.9928C25.0297 11.2533 24.6782 11.3996 24.3116 11.3996C23.9451 11.3996 23.5936 11.2533 23.3344 10.9928C23.0752 10.7323 22.9296 10.3791 22.9296 10.0107C22.9296 9.64231 23.0752 9.28905 23.3344 9.02857C23.5936 8.7681 23.9451 8.62176 24.3116 8.62176Z" fill="#475CD0"/>
<path d="M7.19316 25.5003H13.5898V28.4069H7.19316V25.5003ZM13.028 26.7429V25.9757H7.75503V26.7429H13.028ZM7.75503 27.1643V27.9314H13.028V27.1643H7.75503ZM5.59395 29.1308H15.1782V29.6063H10.0457V33.1071L10.7805 32.9775L10.8021 33.2368L10.8237 33.4637L10.0457 33.5934V34.8576H9.51627V33.669L7.67939 33.9283C7.27595 33.9788 6.64206 34.0688 5.77764 34.1985L5.70201 33.6906L6.80417 33.561V29.6063H5.59395V29.1308ZM7.35523 30.5463H9.51627V29.6063H7.35523V30.5463ZM14.303 30.8813C13.9644 31.7241 13.5034 32.4516 12.9199 33.0639C13.4457 33.5033 14.1589 33.8923 15.0593 34.2309L14.8108 34.7171C13.8743 34.3497 13.118 33.9175 12.5417 33.4205C12.0231 33.8887 11.3711 34.3101 10.586 34.6847L10.3159 34.2201C11.0506 33.8959 11.6701 33.5142 12.1744 33.0747C11.6269 32.5129 11.2019 31.7781 10.8993 30.8705H10.5212V30.4058H14.303V30.8813ZM11.4288 30.8705C11.7097 31.6341 12.0807 32.2535 12.5417 32.729C13.0459 32.2031 13.4386 31.5836 13.7195 30.8705H11.4288ZM7.35523 31.9186H9.51627V30.9785H7.35523V31.9186ZM7.35523 33.4853C7.9171 33.4133 8.53658 33.3305 9.21373 33.2368L9.51627 33.1936V32.3616H7.35523V33.4853ZM19.9689 26.6456C19.7168 26.8401 19.4755 27.013 19.245 27.1643C19.4827 27.2796 19.76 27.4272 20.077 27.6073C20.3939 27.7802 20.6424 27.9242 20.8226 28.0395L20.466 28.4933C20.3003 28.3637 20.0409 28.198 19.688 27.9963C19.335 27.7946 19.0217 27.6253 18.748 27.4884C18.2077 27.8126 17.6818 28.0971 17.1704 28.342L16.8354 27.899C17.6926 27.4884 18.4778 27.0274 19.191 26.516C19.9113 26.0045 20.4984 25.4931 20.9522 24.9816L21.4601 25.241C21.2079 25.5435 20.9198 25.8388 20.5956 26.127H24.8745V26.6456C23.9453 27.5028 22.8107 28.2448 21.4709 28.8715C20.131 29.4982 18.539 30.0133 16.695 30.4166L16.4465 29.9088C19.7888 29.1957 22.3137 28.1079 24.0209 26.6456H19.9689ZM25.2203 30.1033V30.6327C24.6296 31.3171 23.9813 31.9078 23.2753 32.4048C22.5766 32.9018 21.6941 33.3557 20.6281 33.7663C19.5619 34.1768 18.2293 34.5623 16.6301 34.9224L16.3384 34.393C17.8727 34.0544 19.1513 33.6978 20.1742 33.3232C21.1971 32.9486 22.0363 32.5488 22.6919 32.1239C23.3473 31.6917 23.9272 31.1946 24.4315 30.6327H20.5524C20.257 30.8632 19.9617 31.0685 19.6664 31.2486C20.4083 31.6736 20.9846 32.0266 21.3952 32.3076L21.0171 32.7938C20.6641 32.4985 20.0446 32.0879 19.1586 31.562C18.5319 31.9294 17.8259 32.2895 17.0407 32.6425L16.749 32.1563C17.7647 31.7241 18.6903 31.2306 19.5259 30.676C20.3687 30.1213 21.0495 29.563 21.5681 29.0012L22.0219 29.2929C21.7482 29.5882 21.4744 29.8584 21.2007 30.1033H25.2203ZM36.2348 34.8035C35.1831 34.5226 34.2791 34.2273 33.5227 33.9175C32.7735 33.615 32.1252 33.2728 31.5778 32.891C31.0375 33.2296 30.3964 33.5501 29.6545 33.8527C28.9197 34.1552 28.0408 34.4686 27.018 34.7927L26.7911 34.166C28.628 33.6258 30.047 33.0675 31.0483 32.4912C30.5873 32.1095 30.1767 31.6736 29.8165 31.1838C29.4635 30.694 29.1322 30.1177 28.8225 29.455H27.9905V28.8715H31.3293V27.1859H27.0828V26.6024H31.3293V25.0681L31.956 25.0897V26.6024H36.2132V27.1859H31.956V28.8715H34.6032V29.455C34.2935 30.1177 33.9405 30.6976 33.5443 31.1946C33.1553 31.6844 32.6871 32.1274 32.1397 32.5237C32.6511 32.855 33.2562 33.1539 33.9549 33.4205C34.6536 33.6798 35.482 33.9319 36.4401 34.1769L36.2348 34.8035ZM29.514 29.455C29.7877 30.0312 30.0938 30.5391 30.4324 30.9785C30.771 31.4179 31.16 31.8069 31.5994 32.1455C32.1397 31.7853 32.5935 31.3891 32.9608 30.9569C33.3354 30.5175 33.6524 30.0168 33.9117 29.455H29.514ZM40.6582 29.8656L40.6906 30.0817C40.6042 30.1177 40.3304 30.2186 39.8694 30.3842C39.8262 30.3986 39.7793 30.4166 39.7289 30.4383C39.6857 30.4526 39.6317 30.4707 39.5669 30.4923V33.6366C39.5669 33.8887 39.5345 34.076 39.4696 34.1985C39.4048 34.3281 39.2967 34.4181 39.1455 34.4686C39.0014 34.5262 38.7817 34.5658 38.4864 34.5874L37.8488 34.6415L37.676 34.1012L38.3351 34.058C38.6088 34.0436 38.7853 34.0004 38.8645 33.9283C38.951 33.8563 38.9942 33.705 38.9942 33.4745V30.676C38.6268 30.7984 38.0829 30.9749 37.3626 31.2054L37.2221 30.6327C37.6327 30.5319 38.2234 30.3554 38.9942 30.1033V27.7153H37.5139V27.1859H38.9942V25.0681L39.5669 25.0897V27.1859H40.8635V27.7153H39.5669V29.898C40.0711 29.7179 40.4168 29.5882 40.6042 29.509L40.6582 29.8656ZM47.0116 29.2173H45.3368V30.6111H46.7631V31.1514H45.3368V33.4421C45.3368 33.7303 45.2972 33.9535 45.218 34.112C45.1459 34.2705 45.0127 34.3857 44.8182 34.4578C44.6309 34.537 44.3536 34.591 43.9862 34.6199L43.2839 34.6631L43.0894 34.1012L43.8565 34.058C44.123 34.0364 44.3175 34.004 44.44 33.9607C44.5624 33.9175 44.6453 33.8455 44.6885 33.7446C44.7318 33.6438 44.7534 33.4889 44.7534 33.28V31.1514H40.7122V30.6111H44.7534V29.2173H40.5609V28.677H43.3919V27.1535H41.2093V26.6024H43.3919V25.1221L43.9754 25.1437V26.6024H46.3741V27.1535H43.9754V28.677H47.0116V29.2173ZM41.7387 31.5404C41.9332 31.706 42.1709 31.9402 42.4518 32.2427C42.7328 32.5453 42.9561 32.801 43.1218 33.0099L42.7112 33.4529C42.5455 33.2152 42.3258 32.9415 42.0521 32.6317C41.7783 32.3219 41.5406 32.0771 41.3389 31.897L41.7387 31.5404ZM48.8202 25.7812H56.8052V33.3773C56.8052 33.7014 56.7656 33.9464 56.6864 34.112C56.6071 34.2777 56.4702 34.3965 56.2758 34.4686C56.0884 34.5406 55.8003 34.591 55.4113 34.6199L54.763 34.6631L54.5685 34.1012L55.2925 34.0472C55.5662 34.0256 55.7643 33.9932 55.8868 33.9499C56.0092 33.9067 56.0921 33.8347 56.1353 33.7338C56.1857 33.6258 56.2109 33.4601 56.2109 33.2368V26.3431H49.3928V34.6847H48.8202V25.7812ZM50.1492 28.3312V27.791H55.4762V28.3312H50.1492ZM50.8624 32.9018V29.6603H54.7522V32.9018H50.8624ZM54.2012 30.1897H51.4134V32.3832H54.2012V30.1897ZM68.4463 27.348V27.9314H66.9121V33.28C66.9121 33.6258 66.8689 33.8851 66.7825 34.058C66.696 34.2381 66.5447 34.3641 66.3286 34.4362C66.1125 34.5154 65.7847 34.5694 65.3454 34.5983L64.5458 34.6523L64.3513 34.0472L65.2481 34.004C65.5723 33.9824 65.8028 33.9464 65.9396 33.8959C66.0837 33.8527 66.1774 33.7771 66.2206 33.669C66.271 33.5537 66.2962 33.3737 66.2962 33.1287V27.9314H62.9358V27.348H66.2962V25.1005L66.9121 25.1329V27.348H68.4463ZM62.4712 33.8311H59.4349V26.0621H62.4712V33.8311ZM61.9201 29.6063V26.6672H59.986V29.6063H61.9201ZM64.8483 31.7673C64.6971 31.4215 64.4557 30.9569 64.1244 30.3734C63.793 29.7827 63.5229 29.3361 63.314 29.0336L63.8002 28.7634C64.0091 29.0444 64.2792 29.4766 64.6106 30.0601C64.9419 30.6436 65.1869 31.1082 65.3454 31.4539L64.8483 31.7673ZM59.986 30.1789V33.226H61.9201V30.1789H59.986ZM70.8491 25.6407H77.5699V29.5306H70.8491V25.6407ZM76.9864 27.3264V26.1918H71.4325V27.3264H76.9864ZM71.4325 27.8558V28.9795H76.9864V27.8558H71.4325ZM75.5709 29.9196V33.7879H78.953V34.3389H69.466V33.7879H72.8588V29.8872L73.4423 29.9196V33.7879H74.9874V29.8872L75.5709 29.9196ZM76.23 32.729C76.4752 32.4048 76.7527 31.9798 77.062 31.4539C77.372 30.9281 77.5915 30.5031 77.7212 30.1789L78.2182 30.4599C78.0669 30.7912 77.84 31.2126 77.5375 31.7241C77.2424 32.2283 76.9614 32.6677 76.6947 33.0423L76.23 32.729ZM71.7567 33.0423C71.5912 32.7109 71.3285 32.2535 70.9679 31.67C70.6154 31.0866 70.3594 30.6976 70.2007 30.5031L70.6438 30.2005C70.7883 30.3878 71.0402 30.7696 71.4001 31.3459C71.7675 31.9221 72.0376 32.3688 72.2105 32.6857L71.7567 33.0423ZM81.1829 25.8785H88.4656V26.4727H81.1829V25.8785ZM89.4921 29.3685H85.2456V33.5177C85.2456 33.8347 85.2024 34.0796 85.116 34.2525C85.0295 34.4254 84.8823 34.5478 84.673 34.6199C84.4717 34.6991 84.1759 34.7495 83.7869 34.7711L82.9981 34.8252L82.8037 34.2093L83.6573 34.1552C83.9382 34.1336 84.1401 34.1012 84.2624 34.058C84.392 34.0148 84.4785 33.9391 84.5217 33.8311C84.5723 33.723 84.5973 33.5501 84.5973 33.3124V29.3685H80.178V28.7959H89.4921V29.3685ZM82.9549 30.5571C82.6598 31.119 82.2816 31.7241 81.8204 32.3724C81.3598 33.0207 80.9094 33.5826 80.4697 34.058L79.9835 33.669C80.4306 33.2008 80.8844 32.6497 81.345 32.0158C81.8062 31.3747 82.1628 30.7948 82.4147 30.2762L82.9549 30.5571ZM87.223 30.3302C87.533 30.6832 87.9327 31.1982 88.4224 31.8753C88.9126 32.5525 89.3016 33.1215 89.5893 33.5826L89.0815 33.9607C88.7506 33.4277 88.3508 32.8334 87.8821 32.1779C87.4215 31.5152 87.0433 31.0145 86.7476 30.676L87.223 30.3302ZM93.1051 33.7663V26.9482L91.2249 27.3047V26.7105L93.386 26.2674H93.8182V33.7663H93.1051ZM96.5803 29.6387C97.5527 29.0336 98.4455 28.3348 99.26 27.5425C100.074 26.7501 100.733 25.9469 101.237 25.1329H101.778C102.325 25.9757 102.991 26.7789 103.777 27.5425C104.561 28.306 105.441 28.9976 106.413 29.6171L106.002 30.1681C105.109 29.5486 104.259 28.8571 103.452 28.0935C102.653 27.3228 102.004 26.5556 101.507 25.792C100.981 26.5916 100.322 27.3732 99.5301 28.1367C98.7447 28.8931 97.8945 29.5738 96.9801 30.1789L96.5803 29.6387ZM101.194 28.4393L101.821 28.4609V34.8035H101.194V28.4393ZM116.985 29.2605H112.533C112.388 29.8296 112.255 30.2726 112.133 30.5895H115.915V31.1406C115.727 31.4864 115.483 31.8753 115.18 32.3076C114.884 32.7325 114.593 33.1252 114.305 33.4853C114.924 33.8095 115.429 34.094 115.818 34.3389L115.558 34.9548C115.003 34.5874 114.258 34.1552 113.322 33.6582C112.392 33.1539 111.618 32.7686 110.998 32.502L111.225 31.9834C111.874 32.2499 112.734 32.6605 113.808 33.2152C114.319 32.5813 114.787 31.8934 115.212 31.1514H111.506L111.495 30.6327C111.647 30.2149 111.791 29.7575 111.928 29.2605H110.048V28.7094H112.079C112.144 28.4501 112.255 27.9674 112.414 27.2615H110.653V26.7105H112.522C112.652 25.9973 112.741 25.4427 112.792 25.0465L113.365 25.1329C113.293 25.6659 113.206 26.1918 113.105 26.7105H116.433V27.2615H112.997C112.889 27.8162 112.781 28.2988 112.673 28.7094H116.985V29.2605ZM110.383 25.2518C110.137 25.9793 109.832 26.7213 109.464 27.4776V34.8468H108.913V28.5041C108.502 29.21 108.03 29.8944 107.498 30.5571L107.109 30.0925C107.612 29.473 108.106 28.7238 108.589 27.845C109.071 26.9662 109.475 26.0549 109.799 25.1113L110.383 25.2518ZM126.281 31.7457C125.87 31.7457 125.481 31.5044 125.114 31.0217C124.97 30.8488 124.837 30.6579 124.714 30.4491C124.361 30.8308 123.965 31.191 123.526 31.5296L123.148 31.0866C123.623 30.7408 124.059 30.359 124.455 29.9412C124.123 29.2065 123.857 28.2088 123.655 26.9482H119.625V28.1043C119.625 28.7238 119.589 29.2497 119.517 29.6819C119.445 30.1069 119.318 30.5103 119.139 30.8921C118.959 31.2738 118.699 31.6881 118.361 32.1347L117.864 31.8213C118.21 31.3819 118.465 30.9893 118.631 30.6435C118.804 30.2978 118.923 29.9232 118.988 29.5198C119.052 29.1164 119.085 28.5906 119.085 27.9423V26.4295H123.58L123.418 25.1005H123.969C124.04 25.72 124.098 26.163 124.142 26.4295H125.849C125.712 26.271 125.535 26.0981 125.319 25.9109C125.11 25.7164 124.93 25.5687 124.779 25.4679L125.092 25.1221C125.244 25.2301 125.438 25.3922 125.676 25.6083C125.92 25.8172 126.112 25.9937 126.249 26.1378L126.011 26.4295H127.189V26.9482H124.217C124.39 27.9927 124.602 28.8319 124.855 29.4658C125.294 28.9111 125.701 28.2232 126.076 27.402L126.562 27.6073C126.087 28.587 125.6 29.3866 125.103 30.006C125.24 30.2654 125.398 30.4995 125.579 30.7084C125.823 31.0037 126.058 31.1514 126.281 31.1514C126.389 31.1514 126.471 31.1009 126.53 31.0001C126.594 30.8993 126.666 30.7228 126.746 30.4707C126.846 30.1393 126.911 29.8512 126.94 29.6063L127.405 29.844C127.311 30.2978 127.224 30.6327 127.145 30.8488C127.044 31.1514 126.925 31.3783 126.789 31.5296C126.659 31.6736 126.49 31.7457 126.281 31.7457ZM120.025 27.9314H123.461V28.3853H120.025V27.9314ZM120.338 29.1524H123.05V31.1838H120.338V29.1524ZM120.814 30.7516H122.575V29.563H120.814V30.7516ZM122.445 31.5296C122.611 31.6736 122.83 31.8861 123.104 32.1671C123.378 32.448 123.58 32.6677 123.709 32.8262L123.32 33.28C123.198 33.0927 123 32.8514 122.726 32.5561C122.459 32.2608 122.247 32.0446 122.089 31.9078L122.445 31.5296ZM124.531 32.8802L124.563 32.6425L125.092 32.8478L125.049 33.1071C125.006 33.4313 124.959 33.6726 124.909 33.8311C124.866 34.004 124.804 34.1372 124.725 34.2309C124.645 34.3245 124.523 34.393 124.358 34.4362C124.192 34.4866 123.958 34.519 123.655 34.5334C123.324 34.555 122.989 34.5658 122.651 34.5658C122.312 34.5658 121.973 34.555 121.635 34.5334C121.209 34.5118 120.914 34.4326 120.749 34.2957C120.583 34.166 120.5 33.9248 120.5 33.5718V31.9402L121.051 31.9726V33.3773C121.051 33.6222 121.098 33.7843 121.192 33.8635C121.292 33.9427 121.487 33.9932 121.775 34.0148C121.977 34.0292 122.279 34.0364 122.683 34.0364C123.086 34.0364 123.389 34.0292 123.591 34.0148C123.9 33.9932 124.105 33.9499 124.206 33.8851C124.315 33.8275 124.386 33.705 124.423 33.5177C124.444 33.4457 124.48 33.2332 124.531 32.8802ZM125.838 32.005C126.047 32.2139 126.306 32.5128 126.616 32.9018C126.925 33.2836 127.178 33.615 127.372 33.8959L126.919 34.2741C126.752 33.9932 126.515 33.6582 126.205 33.2692C125.903 32.873 125.636 32.5596 125.406 32.3292L125.838 32.005ZM117.961 34.1228C118.213 33.8275 118.454 33.4925 118.685 33.1179C118.915 32.7433 119.106 32.3868 119.258 32.0482L119.755 32.2427C119.596 32.6173 119.402 32.9955 119.171 33.3773C118.948 33.759 118.717 34.1012 118.48 34.4038L117.961 34.1228ZM129.527 25.5867H132.811V28.0719H129.527V25.5867ZM133.946 25.5867H137.263V28.0719H133.946V25.5867ZM130.056 27.5749H132.282V26.073H130.056V27.5749ZM134.475 27.5749H136.734V26.073H134.475V27.5749ZM138.117 31.7241C137.778 31.6665 137.49 31.6088 137.252 31.5512V34.6739H136.712V34.1012H134.454V34.6739H133.924V31.508H137.047C135.476 31.1334 134.309 30.5463 133.546 29.7467H133.136C132.861 30.1357 132.462 30.4671 131.936 30.7408C131.418 31.0145 130.686 31.2703 129.743 31.508H132.822V34.6739H132.293V34.1012H130.089V34.6739H129.548V31.562L128.695 31.7565L128.5 31.2162C129.573 31.029 130.413 30.82 131.018 30.5895C131.63 30.359 132.094 30.0781 132.412 29.7467H128.965V29.2389H132.79C132.941 28.9652 133.053 28.6446 133.125 28.2772L133.719 28.3961C133.633 28.7058 133.535 28.9868 133.427 29.2389H135.729C135.246 28.8427 134.922 28.5906 134.756 28.4825L135.07 28.1151C135.408 28.3456 135.761 28.6194 136.129 28.9363L135.913 29.2389H137.825V29.7467H134.281C134.67 30.1213 135.185 30.4239 135.826 30.6544C136.474 30.8777 137.296 31.0577 138.29 31.1946L138.117 31.7241ZM132.293 33.6366V32.005H130.089V33.6366H132.293ZM134.454 32.005V33.6366H136.712V32.005H134.454ZM10.1738 42.1295H5.10612C4.70272 42.9867 4.19848 43.8007 3.59339 44.5714H9.11486V49.5526H8.50977V48.7639H3.615V49.5526H3.02072V45.263C2.40842 45.9545 1.69888 46.6352 0.892093 47.3052L0.557129 46.7325C2.24274 45.4431 3.52136 43.9087 4.39298 42.1295H1.02176V41.5136H4.67391C4.89721 40.9733 5.0701 40.4619 5.19256 39.9792L5.84087 40.0981C5.71121 40.5807 5.55633 41.0525 5.37625 41.5136H10.1738V42.1295ZM8.50977 48.202V45.1765H3.615V48.202H8.50977ZM12.3497 41.881C12.1191 42.3924 11.8454 42.9399 11.5285 43.5233L11.0963 43.2208C11.3844 42.7238 11.6581 42.1799 11.9175 41.5892C12.1839 40.9913 12.3857 40.4366 12.5225 39.9252L13.0304 40.0225C12.9007 40.4835 12.7458 40.9337 12.5658 41.3731H14.2514V41.881H12.3497ZM16.5961 43.9447H17.9143V42.9399H16.2936V42.4752H17.9143V41.4487H16.6069V40.9949H17.9143V39.936L18.433 39.9576V40.9949H20.1402V42.4752H20.8425V42.9399H20.1402V44.4202H18.433V45.4034H20.3239V45.8681H18.433V46.8405H20.6048V47.3052H18.433V48.4181H17.9143V47.3052H16.1639V46.8405H17.9143V45.8681H16.5421V45.4034H17.9143V44.4202H16.5961V43.9447ZM19.0381 48.699C19.6 48.699 20.223 48.681 20.9074 48.645L20.7993 49.1312C20.3023 49.1672 19.7152 49.1853 19.0381 49.1853C18.5122 49.1853 18.1196 49.178 17.8603 49.1637C17.2696 49.142 16.7582 49.0376 16.326 48.8503C15.8938 48.663 15.5192 48.3533 15.2022 47.9211C14.9285 48.4541 14.5791 48.9944 14.1541 49.5418L13.7435 49.1961C14.2406 48.5982 14.6223 48.0075 14.8889 47.424C14.6007 46.8838 14.363 46.1778 14.1757 45.3062L14.608 45.1549C14.752 45.8248 14.9285 46.3867 15.1374 46.8405C15.3967 46.149 15.5768 45.3026 15.6777 44.3013H14.3054V43.8151L15.6669 41.3407H14.327V40.8437H16.2071V41.3407L14.8673 43.8151H16.1639V44.3229C16.0991 44.9569 16.009 45.5187 15.8938 46.0085C15.7785 46.4983 15.6308 46.9594 15.4508 47.3916C15.7245 47.8094 16.0594 48.1228 16.4556 48.3317C16.859 48.5334 17.3452 48.6486 17.9143 48.6774C18.4185 48.6918 18.7931 48.699 19.0381 48.699ZM19.654 41.4487H18.433V42.4752H19.654V41.4487ZM18.433 43.9447H19.654V42.9399H18.433V43.9447ZM14.0461 47.4456L14.1974 47.9967L13.7327 48.3425L12.8359 49.0232C12.7206 49.1024 12.609 49.2069 12.5009 49.3365L12.1876 48.8719C12.2812 48.7782 12.346 48.699 12.3821 48.6342C12.4181 48.5694 12.4361 48.4973 12.4361 48.4181V45.8357H11.2908V45.3386H12.4361V43.7827H11.8094V43.2748H14.0245V43.7827H12.944V45.3386H14.0569V45.8357H12.944V48.3749L14.0461 47.4456ZM26.9948 45.4683C27.2541 46.3183 27.7583 47.0458 28.5075 47.6509C29.2638 48.2488 30.2327 48.7134 31.4141 49.0448L31.1223 49.6499C30.0418 49.3257 29.1089 48.8719 28.3238 48.2884C27.5458 47.6977 26.9875 46.9918 26.649 46.1706C26.0439 47.5465 24.5888 48.7171 22.2837 49.6823L21.9487 49.1096C24.4699 48.1083 25.9034 46.8946 26.2492 45.4683H22.2297V44.874H26.3356V44.7875V42.7021H22.7915V42.1187H27.3297C27.6034 41.8089 27.8916 41.4415 28.1941 41.0165C28.5038 40.5916 28.7488 40.2134 28.9289 39.882L29.48 40.1521C29.3071 40.4403 29.091 40.7644 28.8316 41.1246C28.5795 41.4847 28.3274 41.8161 28.0753 42.1187H30.4956V42.7021H26.9731L26.9515 44.7551V44.874H31.0899V45.4683H26.9948ZM25.2119 42.1079C25.0462 41.8269 24.8265 41.4955 24.5528 41.1138C24.2862 40.732 24.0593 40.4331 23.8721 40.217L24.3367 39.9036C24.5239 40.1125 24.7544 40.4079 25.0282 40.7896C25.3091 41.1642 25.5361 41.4812 25.7089 41.7405L25.2119 42.1079ZM35.2648 42.0214C35.0847 41.7837 34.8218 41.4884 34.476 41.1354C34.1374 40.7752 33.8601 40.5015 33.644 40.3142L34.033 39.9036C34.2419 40.0765 34.5192 40.3394 34.865 40.6924C35.2108 41.0381 35.4845 41.3227 35.6862 41.546L35.2648 42.0214ZM36.1076 40.7248H41.4454V48.0939C41.4454 48.4757 41.4057 48.7603 41.3265 48.9476C41.2472 49.1348 41.1067 49.2645 40.9051 49.3365C40.7034 49.4158 40.3936 49.4734 39.9758 49.5094L39.2627 49.5634L39.0574 48.9692L39.857 48.9043C40.1595 48.8827 40.3756 48.8467 40.5053 48.7963C40.635 48.7458 40.7214 48.6594 40.7646 48.537C40.815 48.4145 40.8403 48.2128 40.8403 47.9319V41.2975H36.1076V40.7248ZM40.3756 43.8583H38.7333V47.5213C38.7333 47.867 38.6972 48.1264 38.6252 48.2992C38.5531 48.4649 38.4235 48.5838 38.2362 48.6558C38.0561 48.7279 37.7716 48.7782 37.3826 48.8071L36.6478 48.8611L36.4534 48.31L37.2529 48.256C37.5194 48.2344 37.7103 48.202 37.8256 48.1588C37.948 48.1155 38.0309 48.0399 38.0741 47.9319C38.1174 47.8166 38.139 47.6365 38.139 47.3916V44.1608C37.6851 44.9388 37.1809 45.6268 36.6262 46.2246C36.0715 46.8225 35.4016 47.3736 34.6165 47.8778L34.2059 47.3916C35.0342 46.8657 35.7258 46.3219 36.2805 45.76C36.8351 45.1981 37.3105 44.5642 37.7068 43.8583H34.5949V43.3072H38.139V41.7405L38.7333 41.7729V43.3072H40.3756V43.8583ZM33.9682 49.5418H33.3739V41.8161L33.9682 41.8485V49.5418ZM52.8813 44.1176H48.4296C48.2854 44.6867 48.1522 45.1297 48.0298 45.4467H51.8116V45.9977C51.6243 46.3435 51.3794 46.7325 51.0768 47.1647C50.7814 47.5897 50.4897 47.9823 50.2016 48.3425C50.8211 48.6666 51.3254 48.9511 51.7143 49.1961L51.455 49.812C50.9003 49.4446 50.1547 49.0124 49.2183 48.5153C48.2891 48.0111 47.5147 47.6257 46.8952 47.3592L47.1221 46.8405C47.7704 47.1071 48.6312 47.5177 49.7046 48.0723C50.216 47.4384 50.6842 46.7505 51.1093 46.0085H47.4031L47.3923 45.4899C47.5435 45.0721 47.6876 44.6147 47.8245 44.1176H45.9444V43.5666H47.9757C48.0406 43.3072 48.1522 42.8246 48.3107 42.1187H46.5495V41.5676H48.4188C48.5484 40.8545 48.6384 40.2998 48.6889 39.9036L49.2616 39.99C49.1895 40.5231 49.1031 41.049 49.0022 41.5676H52.3302V42.1187H48.8942C48.7861 42.6733 48.6781 43.156 48.57 43.5666H52.8813V44.1176ZM46.2793 40.1089C46.0344 40.8364 45.7283 41.5784 45.3609 42.3348V49.7039H44.8098V43.3613C44.3992 44.0672 43.9274 44.7516 43.3943 45.4143L43.0054 44.9496C43.5096 44.3302 44.003 43.5809 44.4857 42.7021C44.9683 41.8233 45.3717 40.9121 45.6958 39.9684L46.2793 40.1089ZM62.1778 46.6028C61.7672 46.6028 61.3782 46.3615 61.0109 45.8789C60.8667 45.706 60.7335 45.5151 60.6111 45.3062C60.2581 45.688 59.8619 46.0482 59.4225 46.3867L59.0443 45.9437C59.5197 45.5979 59.9555 45.2162 60.3517 44.7984C60.0204 44.0636 59.7538 43.0659 59.5522 41.8053H55.5218V42.9615C55.5218 43.5809 55.4858 44.1068 55.4138 44.539C55.3417 44.964 55.2156 45.3675 55.0356 45.7492C54.8555 46.131 54.5962 46.5452 54.2576 46.9918L53.7606 46.6785C54.1063 46.239 54.362 45.8465 54.5277 45.5007C54.7006 45.1549 54.8195 44.7803 54.8843 44.377C54.9491 43.9736 54.9816 43.4477 54.9816 42.7994V41.2867H59.4765L59.3144 39.9576H59.8655C59.9375 40.5771 59.9952 41.0201 60.0384 41.2867H61.7456C61.6087 41.1282 61.4323 40.9553 61.2162 40.768C61.0072 40.5735 60.8272 40.4258 60.6759 40.325L60.9892 39.9792C61.1405 40.0873 61.335 40.2494 61.5727 40.4655C61.8176 40.6743 62.0085 40.8509 62.1454 40.9949L61.9077 41.2867H63.0855V41.8053H60.114C60.2869 42.8498 60.4994 43.689 60.7515 44.3229C61.1909 43.7683 61.5979 43.0803 61.9725 42.2591L62.4588 42.4644C61.9833 43.4441 61.4971 44.2437 61.0001 44.8632C61.1369 45.1225 61.2954 45.3566 61.4755 45.5655C61.7204 45.8608 61.9545 46.0085 62.1778 46.0085C62.2859 46.0085 62.3687 45.9581 62.4263 45.8573C62.4912 45.7564 62.5632 45.5799 62.6424 45.3278C62.7433 44.9964 62.8081 44.7083 62.8369 44.4634L63.3016 44.7011C63.2079 45.1549 63.1215 45.4899 63.0422 45.706C62.9413 46.0085 62.8225 46.2354 62.6857 46.3867C62.556 46.5308 62.3867 46.6028 62.1778 46.6028ZM55.9216 42.7886H59.3577V43.2424H55.9216V42.7886ZM56.235 44.0096H58.9471V46.041H56.235V44.0096ZM56.7104 45.6087H58.4716V44.4202H56.7104V45.6087ZM58.342 46.3867C58.5076 46.5308 58.7273 46.7433 59.0011 47.0242C59.2748 47.3052 59.4765 47.5248 59.6062 47.6833L59.2172 48.1372C59.0947 47.9499 58.8966 47.7085 58.6229 47.4132C58.3564 47.1179 58.1438 46.9018 57.9854 46.7649L58.342 46.3867ZM60.4274 47.7374L60.4598 47.4997L60.9892 47.705L60.946 47.9643C60.9028 48.2884 60.8559 48.5297 60.8056 48.6882C60.7623 48.8611 60.7011 48.9944 60.6219 49.088C60.5426 49.1817 60.4202 49.2501 60.2545 49.2933C60.0888 49.3438 59.8547 49.3762 59.5522 49.3906C59.2208 49.4122 58.8858 49.423 58.5473 49.423C58.2087 49.423 57.8701 49.4122 57.5316 49.3906C57.1065 49.369 56.8112 49.2897 56.6456 49.1528C56.4798 49.0232 56.397 48.7819 56.397 48.4289V46.7973L56.9481 46.8297V48.2344C56.9481 48.4794 56.9949 48.6414 57.0886 48.7206C57.1894 48.7999 57.3839 48.8503 57.6721 48.8719C57.8737 48.8863 58.1763 48.8935 58.5797 48.8935C58.9831 48.8935 59.2856 48.8863 59.4873 48.8719C59.797 48.8503 60.0023 48.8071 60.1032 48.7423C60.2113 48.6846 60.2833 48.5621 60.3193 48.3749C60.3409 48.3028 60.3769 48.0904 60.4274 47.7374ZM61.7348 46.8621C61.9437 47.071 62.203 47.37 62.5128 47.759C62.8225 48.1407 63.0747 48.4721 63.2691 48.7531L62.8153 49.1312C62.6496 48.8503 62.4119 48.5153 62.1022 48.1264C61.7996 47.7301 61.5331 47.4168 61.3026 47.1863L61.7348 46.8621ZM53.8578 48.98C54.1099 48.6846 54.3512 48.3497 54.5818 47.9751C54.8123 47.6005 55.0032 47.2439 55.1544 46.9054L55.6515 47.0999C55.493 47.4745 55.2985 47.8526 55.068 48.2344C54.8447 48.6162 54.6142 48.9584 54.3765 49.2609L53.8578 48.98ZM65.4234 40.4439H68.7083V42.9291H65.4234V40.4439ZM69.8428 40.4439H73.16V42.9291H69.8428V40.4439ZM65.9529 42.432H68.1788V40.9301H65.9529V42.432ZM70.3723 42.432H72.6306V40.9301H70.3723V42.432ZM74.0136 46.5812C73.6753 46.5236 73.3869 46.4659 73.1492 46.4083V49.531H72.609V48.9584H70.3507V49.531H69.8212V46.3651H72.9439C71.3738 45.9905 70.2068 45.4034 69.443 44.6039H69.0324C68.7589 44.9928 68.3591 45.3242 67.8331 45.5979C67.3143 45.8716 66.5832 46.1274 65.6395 46.3651H68.7191V49.531H68.1896V48.9584H65.9853V49.531H65.445V46.4191L64.5914 46.6136L64.3969 46.0734C65.4702 45.8861 66.3095 45.6772 66.9145 45.4467C67.5268 45.2162 67.9918 44.9352 68.3085 44.6039H64.8616V44.096H68.6867C68.8379 43.8223 68.9494 43.5017 69.0216 43.1344L69.6159 43.2532C69.5295 43.563 69.4322 43.8439 69.3242 44.096H71.6257C71.1428 43.6998 70.8187 43.4477 70.6532 43.3397L70.9666 42.9723C71.3049 43.2028 71.6581 43.4765 72.0255 43.7935L71.8094 44.096H73.7219V44.6039H70.1778C70.5668 44.9785 71.082 45.281 71.7229 45.5115C72.3712 45.7348 73.1924 45.9149 74.1865 46.0518L74.0136 46.5812ZM68.1896 48.4937V46.8621H65.9853V48.4937H68.1896ZM70.3507 46.8621V48.4937H72.609V46.8621H70.3507ZM75.4872 48.9476L78.3938 40.8004H78.9989L76.1031 48.9476H75.4872ZM88.7506 40.1089L89.2908 40.1305V48.2884C89.2908 48.5766 89.251 48.7999 89.172 48.9584C89.093 49.124 88.9592 49.2465 88.7722 49.3257C88.5919 49.4122 88.3325 49.4662 87.9942 49.4878L87.3999 49.531L87.227 49.0124L87.897 48.9692C88.1421 48.9548 88.3217 48.9259 88.4372 48.8827C88.5527 48.8467 88.6317 48.7819 88.6749 48.6882C88.7256 48.5946 88.7506 48.4541 88.7506 48.2668V40.1089ZM86.1789 40.5951V44.2581H86.8813V44.7875H86.1789V48.3317C86.1789 48.5982 86.1499 48.7999 86.0925 48.9367C86.0351 49.0808 85.9412 49.1817 85.8116 49.2393C85.6819 49.3041 85.4982 49.3473 85.2605 49.369L84.8607 49.4122L84.6878 48.8719L85.1308 48.8287C85.2895 48.8143 85.401 48.7891 85.4658 48.7531C85.538 48.7171 85.5846 48.6522 85.6063 48.5586C85.6353 48.4649 85.6495 48.3173 85.6495 48.1156V44.7875H84.569C84.5615 45.6592 84.5291 46.3687 84.4717 46.9162C84.4211 47.4564 84.3346 47.9283 84.2124 48.3317C84.0969 48.7279 83.9281 49.1564 83.7045 49.6175L83.2183 49.4122C83.4418 48.9656 83.6107 48.555 83.7261 48.1804C83.8416 47.8058 83.9206 47.3664 83.9639 46.8621C84.0145 46.3507 84.0429 45.6592 84.0503 44.7875H83.2615V48.2128C83.2615 48.5802 83.2001 48.8323 83.0778 48.9692C82.9556 49.1132 82.7213 49.2033 82.3755 49.2393L81.9757 49.2825L81.8244 48.7314L82.2458 48.6882C82.4478 48.6666 82.5808 48.6198 82.6456 48.5478C82.7179 48.4685 82.7537 48.3065 82.7537 48.0615V44.7875H81.738C81.7306 45.6808 81.6948 46.3939 81.6299 46.927C81.5651 47.46 81.4645 47.9175 81.3274 48.2992C81.1977 48.6738 80.9999 49.1061 80.7331 49.5959L80.2577 49.3473C80.517 48.8791 80.7081 48.4721 80.8304 48.1264C80.96 47.7734 81.0539 47.3484 81.1113 46.8513C81.1687 46.3471 81.2052 45.6592 81.2193 44.7875H80.3009V44.2581H81.2193V44.1825V40.5951H83.2615V44.2581H84.0503V44.1825V40.5951H86.1789ZM87.2162 41.1246L87.7457 41.1462V47.1971H87.2162V41.1246ZM81.738 41.1462V44.2581H82.7537V41.1462H81.738ZM84.569 41.1462V44.2581H85.6603V41.1462H84.569ZM93.8763 43.599C94.5536 43.1163 95.1587 42.5761 95.6916 41.9782C96.2244 41.3731 96.6566 40.75 96.9882 40.1089H97.5717C97.9032 40.714 98.3422 41.3155 98.8899 41.9134C99.4376 42.5041 100.039 43.0335 100.694 43.5017L100.327 44.0096C98.9581 42.9147 97.9465 41.8017 97.2907 40.6708C96.9375 41.2975 96.5019 41.9061 95.9833 42.4968C95.4646 43.0803 94.8886 43.6098 94.2545 44.0852L93.8763 43.599ZM93.0227 47.7698L92.6121 47.8238L92.4392 47.2727L92.9146 47.2295C93.1382 47.2079 93.3036 47.1683 93.4117 47.1107C93.5271 47.0458 93.6062 46.945 93.6494 46.8081C93.7 46.6641 93.725 46.4551 93.725 46.1814C93.725 45.4755 93.4441 44.7335 92.8822 43.9555L93.7142 41.3083H92.1691V49.7363H91.6288V40.7572H94.2653V41.3191L93.4225 43.8691C93.7108 44.3157 93.9195 44.7335 94.0492 45.1225C94.1863 45.5043 94.2545 45.8897 94.2545 46.2787C94.2545 46.6604 94.2146 46.9522 94.1356 47.1539C94.0566 47.3556 93.9303 47.4997 93.7574 47.5861C93.592 47.6725 93.3468 47.7338 93.0227 47.7698ZM100.024 45.8897H97.5068V48.4721C97.5068 48.7458 97.471 48.9511 97.3988 49.088C97.3265 49.2249 97.2077 49.3222 97.0422 49.3798C96.8768 49.4374 96.635 49.4806 96.3183 49.5094L95.778 49.5526L95.5943 48.9908L96.1994 48.9476C96.4229 48.9259 96.585 48.8971 96.6856 48.8611C96.7863 48.8251 96.8551 48.7639 96.8909 48.6774C96.9342 48.5982 96.9558 48.4685 96.9558 48.2884V45.8897H94.5462V45.3062H96.9558V43.8367H95.335V43.2856H99.1276V43.8367H97.5068V45.3062H100.024V45.8897ZM95.9401 46.6352C95.6807 47.1107 95.3856 47.5825 95.054 48.0507C94.7299 48.5189 94.4091 48.9151 94.0924 49.2393L93.6494 48.8503C93.9735 48.5405 94.2977 48.1623 94.6218 47.7158C94.946 47.2619 95.2236 46.8153 95.4538 46.3759L95.9401 46.6352ZM98.6954 46.3975C98.9331 46.6641 99.2465 47.0566 99.6354 47.5753C100.024 48.0867 100.32 48.501 100.521 48.8179L100.089 49.1853C99.9022 48.8611 99.6172 48.4397 99.2357 47.9211C98.8541 47.4024 98.5407 47.0098 98.2956 46.7433L98.6954 46.3975ZM103.411 41.157H101.606V40.6384H106.706V41.157H105.107V42.6049H106.414V49.2501H102.125V42.6049H103.411V41.157ZM111.061 46.9594C111.032 47.3412 110.996 47.7014 110.953 48.0399C110.909 48.3857 110.852 48.6414 110.78 48.8071C110.707 48.9727 110.593 49.088 110.434 49.1528C110.275 49.2177 110.031 49.2645 109.699 49.2933C109.555 49.3077 109.339 49.3149 109.051 49.3149C108.762 49.3149 108.546 49.3077 108.403 49.2933C108.086 49.2717 107.848 49.2249 107.689 49.1528C107.531 49.088 107.416 48.9727 107.344 48.8071C107.279 48.6414 107.246 48.4001 107.246 48.0831V43.9447H109.915V41.2543H107.16V40.6708H110.488V44.5174H107.819V47.9643C107.819 48.1732 107.837 48.3281 107.873 48.4289C107.916 48.5226 107.984 48.5874 108.078 48.6234C108.172 48.6666 108.327 48.699 108.543 48.7206C108.658 48.735 108.831 48.7423 109.062 48.7423C109.292 48.7423 109.461 48.735 109.569 48.7206C109.807 48.699 109.977 48.6666 110.077 48.6234C110.178 48.5802 110.25 48.5081 110.293 48.4073C110.337 48.2992 110.372 48.1191 110.401 47.867C110.452 47.4708 110.485 47.1142 110.499 46.7973L111.061 46.9594ZM103.864 42.6049H104.642V41.157H103.864V42.6049ZM105.464 45.7168C105.175 45.7168 104.966 45.6592 104.837 45.5439C104.707 45.4215 104.642 45.2125 104.642 44.9172V43.1344H103.864V43.3397C103.864 43.8367 103.835 44.2437 103.778 44.5606C103.727 44.8776 103.637 45.1622 103.508 45.4143C103.378 45.6592 103.191 45.9221 102.946 46.203L102.665 46.0085V46.873H105.874V45.7168H105.464ZM103.411 43.1344H102.665V45.7708C102.867 45.5475 103.018 45.3314 103.119 45.1225C103.227 44.9064 103.302 44.6579 103.346 44.377C103.389 44.096 103.411 43.7251 103.411 43.264V43.1344ZM105.874 45.263V43.1344H105.107V44.7551C105.107 44.9496 105.143 45.0829 105.215 45.1549C105.294 45.227 105.431 45.263 105.626 45.263H105.874ZM102.665 47.37V48.7206H105.874V47.37H102.665ZM113.182 40.6708H120.876V42.5617H113.182V40.6708ZM115.624 41.0922H113.744V42.1403H115.624V41.0922ZM117.937 42.1403V41.0922H116.143V42.1403H117.937ZM118.455 42.1403H120.314V41.0922H118.455V42.1403ZM120.163 44.5174V48.9908H121.827V49.477H112.242V48.9908H113.896V44.5174H116.748V43.8151H112.739V43.3613H116.748V42.7454L117.31 42.7778V43.3613H121.319V43.8151H117.31V44.5174H120.163ZM119.59 45.6736V44.9712H114.468V45.6736H119.59ZM114.468 46.7649H119.59V46.0734H114.468V46.7649ZM119.59 47.8886V47.1647H114.468V47.8886H119.59ZM119.59 48.2776H114.468V48.9908H119.59V48.2776ZM132.268 49.5959C131.274 49.2213 130.403 48.8287 129.654 48.4181C128.911 48.0003 128.26 47.5429 127.698 47.0458C127.15 47.5429 126.502 48.0039 125.753 48.4289C125.004 48.8539 124.125 49.2645 123.116 49.6607L122.803 49.0556C123.797 48.6882 124.658 48.31 125.386 47.9211C126.113 47.5248 126.74 47.0963 127.266 46.6352C126.704 46.0661 126.228 45.4215 125.839 44.7011C125.45 43.9736 125.13 43.1416 124.878 42.2051H123.16V41.6216H127.449C127.226 40.8509 127.064 40.3214 126.963 40.0333L127.579 39.9144C127.701 40.2818 127.874 40.8509 128.098 41.6216H132.139V42.2051H130.399C130.169 43.1416 129.87 43.9699 129.502 44.6903C129.135 45.4107 128.674 46.059 128.119 46.6352C128.645 47.0963 129.268 47.514 129.989 47.8886C130.709 48.2632 131.555 48.6234 132.528 48.9692L132.268 49.5959ZM125.515 42.2051C125.739 43.0623 126.026 43.8187 126.38 44.4742C126.733 45.1297 127.168 45.7168 127.687 46.2354C128.198 45.7096 128.62 45.1225 128.951 44.4742C129.29 43.8187 129.56 43.0623 129.762 42.2051H125.515ZM143.175 45.6412V46.2138H140.193V49.6715H139.598V46.2138H136.314V45.6412H139.598V42.8858H137.751C137.527 43.563 137.275 44.1968 136.994 44.7875L136.422 44.5606C136.703 43.9772 136.962 43.3324 137.2 42.6265C137.437 41.9134 137.629 41.2146 137.772 40.5303L138.356 40.6708C138.234 41.2326 138.093 41.7801 137.934 42.3132H139.598V39.9252L140.193 39.9576V42.3132H142.678V42.8858H140.193V45.6412H143.175ZM136.379 40.217C136.177 40.8869 135.925 41.564 135.622 42.2483V49.6499H135.039V43.4369C134.635 44.186 134.185 44.8884 133.688 45.5439L133.277 45.1009C133.782 44.4238 134.257 43.6422 134.704 42.7562C135.158 41.8629 135.517 40.9661 135.784 40.0657L136.379 40.217Z" fill="#BDBDBD"/>
</g>
<defs>
<clipPath id="clip0_4296_5022">
<rect width="143.844" height="52" fill="white"/>
</clipPath>
</defs>
</svg>
