<svg width="16" height="12" viewBox="0 0 16 12" fill="none" xmlns="http://www.w3.org/2000/svg">
<path d="M13.1853 0.0258134C13.8758 0.791357 14.4234 1.7009 14.7966 2.70221C15.1698 3.70353 15.3613 4.77688 15.36 5.86062C15.3626 7.98772 14.6234 10.0333 13.2976 11.568L13.1897 11.6904L12.4557 10.8766C13.0489 10.2182 13.5192 9.43617 13.8396 8.57542C14.1601 7.71466 14.3244 6.79209 14.3232 5.86062C14.3257 4.03433 13.6923 2.27772 12.5556 0.958293L12.4519 0.840053L13.1853 0.0261973V0.0258134ZM2.68097 0.0192871L3.4136 0.834295C2.81767 1.49308 2.34501 2.27638 2.02289 3.13905C1.70076 4.00172 1.53554 4.92668 1.53675 5.86062C1.53434 7.684 2.16573 9.43801 3.29921 10.7568L3.40254 10.8747L2.66818 11.6881C1.97961 10.9229 1.43367 10.0142 1.06162 9.01426C0.689574 8.0143 0.498727 6.94263 0.500006 5.86062C0.500006 3.63979 1.29415 1.55717 2.68062 0.0192871H2.68097ZM4.14761 1.64738L4.87956 2.46277C4.47648 2.90797 4.15679 3.43745 3.93892 4.02065C3.72106 4.60385 3.60935 5.2292 3.61024 5.86062C3.61024 7.11212 4.04256 8.2853 4.80249 9.17094L4.88819 9.26807L4.15833 10.0858C3.65545 9.53318 3.25639 8.87513 2.98433 8.14982C2.71227 7.42451 2.57262 6.64638 2.57349 5.86062C2.57349 4.25863 3.14681 2.75607 4.14761 1.64738ZM11.7179 1.65314C12.216 2.20511 12.6109 2.86096 12.8801 3.58302C13.1493 4.30507 13.2874 5.0791 13.2865 5.86062C13.2883 7.38841 12.7594 8.85805 11.8098 9.9633L11.7145 10.0719L10.9818 9.25655C11.3844 8.81145 11.7038 8.28223 11.9214 7.69939C12.139 7.11654 12.2506 6.49161 12.2498 5.86062C12.2516 4.63442 11.829 3.45436 11.0696 2.56451L10.9846 2.46776L11.7179 1.65314ZM5.60147 3.28968L6.33687 4.10162C6.12933 4.33279 5.96483 4.60712 5.85276 4.90894C5.74069 5.21075 5.68325 5.53414 5.68372 5.86062C5.68372 6.49558 5.89764 7.09139 6.27501 7.54784L6.34344 7.62692L5.6108 8.44231C5.30482 8.10386 5.06213 7.70151 4.89671 7.25843C4.7313 6.81535 4.64642 6.3403 4.64698 5.86062C4.64596 4.89701 4.98925 3.97234 5.60147 3.28968ZM10.2565 3.28738C10.5602 3.62549 10.801 4.02677 10.9652 4.46829C11.1293 4.90981 11.2135 5.38293 11.213 5.86062C11.214 6.78008 10.9014 7.66581 10.338 8.33943L10.2606 8.42926L9.52451 7.61809C9.94284 7.15137 10.1773 6.51925 10.1763 5.86062C10.1772 5.24042 9.96926 4.64226 9.59328 4.18377L9.52175 4.10008L10.2565 3.28738ZM7.93 4.32505C8.29661 4.32505 8.64821 4.48683 8.90745 4.77481C9.16669 5.06278 9.31232 5.45336 9.31232 5.86062C9.31232 6.26788 9.16669 6.65846 8.90745 6.94644C8.64821 7.23442 8.29661 7.3962 7.93 7.3962C7.56338 7.3962 7.21178 7.23442 6.95255 6.94644C6.69331 6.65846 6.54767 6.26788 6.54767 5.86062C6.54767 5.45336 6.69331 5.06278 6.95255 4.77481C7.21178 4.48683 7.56338 4.32505 7.93 4.32505Z" fill="#475CD0"/>
</svg>
