<svg width="82" height="32" viewBox="0 0 82 32" fill="none" xmlns="http://www.w3.org/2000/svg">
<path d="M0.5 7.19565C0.5 3.77389 3.27389 1 6.69565 1H74.5217C77.9437 1 80.7174 3.77389 80.7174 7.19565V24.8043C80.7174 28.2261 77.9437 31 74.5217 31H6.69565C3.27389 31 0.5 28.2261 0.5 24.8043V7.19565Z" stroke="#475CD0"/>
<path d="M27.1641 12.5305V13.7566H25.6511V19.9653C25.6511 20.4262 25.5902 20.774 25.4685 21.0088C25.3467 21.2435 25.1424 21.4131 24.8554 21.5175C24.5771 21.6218 24.1597 21.6957 23.6032 21.7392L22.7815 21.8175L22.3772 20.5653L23.3163 20.5001C23.6554 20.474 23.8946 20.4392 24.0337 20.3957C24.1815 20.3435 24.2771 20.2609 24.3206 20.1479C24.3641 20.0349 24.3858 19.8479 24.3858 19.587V13.7566H20.7728V12.5305H24.3858V10.0914L25.6511 10.1305V12.5305H27.1641ZM20.225 20.8522H16.1685V11.0566H20.225V20.8522ZM19.0902 15.2566V12.2696H17.3032V15.2566H19.0902ZM22.638 18.3609C22.4815 17.9435 22.2206 17.3957 21.8554 16.7175C21.4989 16.0305 21.1902 15.474 20.9293 15.0479L21.9076 14.5001C22.151 14.874 22.4598 15.4044 22.8337 16.0914C23.2076 16.7696 23.4772 17.3131 23.6424 17.7218L22.638 18.3609ZM17.3032 16.4305V19.6001H19.0902V16.4305H17.3032ZM30.1299 9.97398C30.3821 10.1914 30.7125 10.5088 31.1212 10.9262C31.5386 11.3349 31.869 11.6827 32.1125 11.9696L31.2516 12.9218C31.0342 12.6174 30.7255 12.2522 30.3255 11.8262C29.9342 11.3913 29.5995 11.0522 29.3212 10.8088L30.1299 9.97398ZM32.3864 10.8479H39.2733V19.9392C39.2733 20.4088 39.2255 20.7653 39.1299 21.0088C39.0342 21.2522 38.8603 21.4305 38.6081 21.5435C38.3559 21.6566 37.9777 21.7348 37.4733 21.7783L36.6255 21.8566L36.2473 20.6696L37.0168 20.6175C37.3212 20.5914 37.5429 20.5522 37.682 20.5001C37.8212 20.4392 37.9125 20.3479 37.956 20.2262C38.0081 20.0957 38.0342 19.9001 38.0342 19.6392V12.0218H32.3864V10.8479ZM30.2994 21.7131H29.0864V12.4522L30.2994 12.5044V21.7131ZM31.656 13.4566H36.6647V19.9001H31.656V13.4566ZM35.5429 16.1175V14.5783H32.7907V16.1175H35.5429ZM32.7907 17.2522V18.7653H35.5429V17.2522H32.7907ZM46.5695 12.6218H44.5348V11.5131H47.5609C47.3869 10.9218 47.2434 10.4653 47.1304 10.1435L48.3304 9.96094C48.4434 10.274 48.613 10.7913 48.8391 11.5131H52.2174V12.6218H47.9652C47.1913 13.6653 46.613 14.3479 46.2304 14.6696L49.9348 14.5262C49.6217 14.1523 49.313 13.8218 49.0087 13.5349L49.8435 12.8435C50.1565 13.1392 50.5522 13.5566 51.0304 14.0957C51.5087 14.6261 51.8869 15.0827 52.1652 15.4653L51.3435 16.3001C51.2043 16.0914 51.0174 15.8392 50.7826 15.5435L50.3652 15.5566C50.0522 15.574 49.3522 15.6044 48.2652 15.6479C47.187 15.6914 46.2782 15.7348 45.5391 15.7783L44.5087 15.8566L44.2478 14.8522C44.4304 14.8262 44.6522 14.7174 44.913 14.5262C45.087 14.4131 45.3304 14.174 45.6435 13.8088C45.9565 13.4435 46.2652 13.0479 46.5695 12.6218ZM43.7261 13.1175C43.4913 12.874 43.1304 12.5566 42.6435 12.1653C42.1565 11.774 41.7782 11.487 41.5087 11.3044L42.1739 10.3914C42.4608 10.5653 42.8347 10.8262 43.2956 11.174C43.7652 11.5218 44.126 11.8131 44.3782 12.0479L43.7261 13.1175ZM43.2435 16.0914C42.9391 15.8044 42.5608 15.474 42.1087 15.1001C41.6565 14.7262 41.2783 14.4392 40.9739 14.2392L41.613 13.3392C41.9696 13.5653 42.3565 13.8349 42.7739 14.1479C43.1913 14.4523 43.5521 14.7435 43.8565 15.0218L43.2435 16.0914ZM45.0826 16.287L46.2174 16.3392C46.2174 16.8609 46.213 17.2436 46.2043 17.487C46.1869 18.2957 46.1174 18.9479 45.9956 19.4435C45.8826 19.9392 45.6782 20.387 45.3826 20.787C45.087 21.1957 44.6478 21.6523 44.0652 22.1566L43.2435 21.3609C43.7565 20.961 44.1391 20.6 44.3913 20.2783C44.6435 19.9479 44.8217 19.5609 44.9261 19.1175C45.0304 18.674 45.0826 18.074 45.0826 17.3175V16.287ZM52.8435 19.3262C52.835 19.761 52.7998 20.1914 52.7391 20.6175C52.6785 21.0349 52.5519 21.3174 52.3608 21.4653C52.1782 21.6131 51.8739 21.6957 51.4478 21.7131H50.7304C50.3043 21.7044 50.0043 21.6218 49.8304 21.4653C49.6652 21.3088 49.5826 21.0218 49.5826 20.6044V16.287L50.6782 16.3392V20.3175C50.6782 20.4479 50.7043 20.5348 50.7565 20.5783C50.8173 20.6218 50.9174 20.6479 51.0565 20.6566H51.3174C51.4826 20.6479 51.5957 20.6175 51.6565 20.5653C51.7174 20.5218 51.7608 20.4131 51.7869 20.2392C51.8478 19.8653 51.8869 19.4566 51.9043 19.0131L52.8435 19.3262ZM48.4608 21.5827H47.3652V16.3131L48.4608 16.3522V21.5827ZM43.3348 16.9783L43.8304 17.1088C43.7522 17.5262 43.5391 18.3131 43.1913 19.4696C42.8522 20.6261 42.6 21.4001 42.4348 21.7914L41.2608 21.4262C41.426 21.0609 41.6913 20.2957 42.0565 19.1305C42.4304 17.9566 42.6609 17.1827 42.7478 16.8088L43.3348 16.9783ZM57.2574 18.7131C57.8482 18.4262 58.4052 18.0914 58.9269 17.7088C59.4572 17.3175 59.9052 16.9087 60.2704 16.4827H57.9095V13.2218H60.6487V12.3088H57.4791V11.2522H60.6487V10.1175L61.8095 10.1566V11.2522H65.0574V12.3088H61.8095V13.2218H64.6139V16.4827H61.8095V20.187H60.6487V17.5783C59.9704 18.3523 59.0658 19.0697 57.9356 19.7305L57.2574 18.7131ZM56.0704 13.5349C55.9308 13.1957 55.6961 12.7609 55.3654 12.2305C55.0439 11.7001 54.7615 11.287 54.5182 10.9914L55.4443 10.3653C55.67 10.6436 55.9439 11.0305 56.2661 11.5262C56.5876 12.0131 56.8439 12.4348 57.0356 12.7914L56.0704 13.5349ZM60.6487 14.187H59.0052V15.5175H60.6487V14.187ZM63.5313 15.5175V14.187H61.8095V15.5175H63.5313ZM61.7313 20.5262C63.0878 20.5262 64.4091 20.487 65.6965 20.4088L65.4095 21.5435C64.0876 21.6131 62.7917 21.6479 61.5226 21.6479L60.3095 21.6348C59.57 21.6174 58.9745 21.5653 58.5226 21.4783C58.0791 21.4001 57.6748 21.2522 57.3095 21.0349C56.9528 20.8262 56.5922 20.5087 56.2269 20.0827L55.8095 20.5522C55.7313 20.6392 55.5748 20.8131 55.34 21.074C55.1137 21.3348 54.8835 21.574 54.6487 21.7914L53.9052 20.8262L55.653 19.0914V15.687H54.2574V14.5262H56.8002V19.0783C57.1048 19.461 57.4139 19.7522 57.7269 19.9522C58.04 20.1523 58.3961 20.2914 58.7965 20.3696C59.1963 20.4479 59.718 20.4957 60.3617 20.5131C60.6656 20.5218 61.1222 20.5262 61.7313 20.5262ZM62.5008 16.7435C62.9006 17.0044 63.3572 17.3218 63.8704 17.6957C64.383 18.0609 64.8135 18.3914 65.1617 18.687L64.6009 19.7044C64.2441 19.374 63.7876 18.9914 63.2313 18.5566C62.6743 18.1218 62.2224 17.7914 61.8748 17.5653L62.5008 16.7435Z" fill="white"/>
</svg>
