<svg width="27" height="27" viewBox="0 0 27 27" fill="none" xmlns="http://www.w3.org/2000/svg">
<g clip-path="url(#clip0_4336_4496)">
<path d="M6.30054 6.2998V20.6989L17.0999 13.4994L6.30054 6.2998Z" fill="white"/>
<path d="M7.20044 6.2998V20.6989L17.9998 13.4994L7.20044 6.2998Z" fill="white"/>
<path d="M9.06323 4.77905V19.1691L19.9525 12.0416L9.06323 4.77905Z" fill="white"/>
<path d="M9.09023 7.82983L9.06323 22.2199L19.8896 15.0294L9.09023 7.82983Z" fill="white"/>
<path d="M6.30054 6.29982C6.30051 6.5362 6.34705 6.77027 6.43749 6.98866C6.52794 7.20705 6.66051 7.40549 6.82765 7.57265C6.99479 7.7398 7.19321 7.8724 7.4116 7.96286C7.62998 8.05332 7.86404 8.09989 8.10042 8.09989C8.3368 8.09989 8.57087 8.05332 8.78925 7.96286C9.00764 7.8724 9.20606 7.7398 9.3732 7.57265C9.54034 7.40549 9.67291 7.20705 9.76335 6.98866C9.8538 6.77027 9.90033 6.5362 9.90031 6.29982C9.90033 6.06344 9.8538 5.82937 9.76335 5.61098C9.67291 5.39259 9.54034 5.19415 9.3732 5.02699C9.20606 4.85984 9.00764 4.72725 8.78925 4.63678C8.57087 4.54632 8.3368 4.49976 8.10042 4.49976C7.86404 4.49976 7.62998 4.54632 7.4116 4.63678C7.19321 4.72725 6.99479 4.85984 6.82765 5.02699C6.66051 5.19415 6.52794 5.39259 6.43749 5.61098C6.34705 5.82937 6.30051 6.06344 6.30054 6.29982Z" fill="white"/>
<path d="M18.8997 11.6995C17.9098 11.6995 17.0999 12.5094 17.0999 13.4994C17.0999 14.4893 17.9098 15.2632 18.8997 15.2992C19.9167 15.3352 20.7086 14.5073 20.6996 13.4994C20.6906 12.5094 19.8897 11.6995 18.8997 11.6995ZM8.10042 18.899C7.11049 18.899 6.30054 19.709 6.30054 20.6989C6.30054 21.6888 7.11049 22.4628 8.10042 22.4988C9.04536 22.5348 9.87331 21.7068 9.90031 20.6989C9.92731 19.709 9.09036 18.899 8.10042 18.899Z" fill="white"/>
</g>
<defs>
<clipPath id="clip0_4336_4496">
<rect width="18" height="18" fill="white" transform="translate(4.5 4.5)"/>
</clipPath>
</defs>
</svg>
