<svg width="11" height="12" viewBox="0 0 11 12" fill="none" xmlns="http://www.w3.org/2000/svg">
<path d="M2.42164 0.128418H1.32971C0.955491 0.128418 0.6521 0.43181 0.6521 0.806092V11.1939C0.6521 11.5681 0.955491 11.8716 1.32971 11.8716H2.42164C2.79593 11.8716 3.09932 11.5681 3.09932 11.1939V0.806092C3.09932 0.43181 2.79593 0.128418 2.42164 0.128418ZM9.7571 0.128418H8.66517C8.29088 0.128418 7.98749 0.43181 7.98749 0.806092V11.1939C7.98749 11.5681 8.29088 11.8716 8.66517 11.8716H9.7571C10.1313 11.8716 10.4347 11.5681 10.4347 11.1939V0.806092C10.4347 0.43181 10.1313 0.128418 9.7571 0.128418Z" fill="white"/>
</svg>
