<svg width="27" height="27" viewBox="0 0 27 27" fill="none" xmlns="http://www.w3.org/2000/svg">
<path d="M8.71239 4.5H7.03869C6.46505 4.5 6 4.96505 6 5.53869V21.4613C6 22.035 6.46505 22.5 7.03869 22.5H8.71239C9.28603 22.5 9.75108 22.035 9.75108 21.4613V5.53869C9.75108 4.96505 9.28603 4.5 8.71239 4.5ZM19.9562 4.5H18.2825C17.7089 4.5 17.2438 4.96505 17.2438 5.53869V21.4613C17.2438 22.035 17.7089 22.5 18.2825 22.5H19.9562C20.5298 22.5 20.9949 22.035 20.9949 21.4613V5.53869C20.9949 4.96505 20.5298 4.5 19.9562 4.5Z" fill="white"/>
</svg>
