<svg width="97" height="30" viewBox="0 0 97 30" fill="none" xmlns="http://www.w3.org/2000/svg">
<g clip-path="url(#clip0_4225_11810)">
<path d="M6.52176 0.326172H89.3589C92.7809 0.326172 95.5546 3.10006 95.5546 6.52182V23.4783C95.5546 26.9001 92.7809 29.674 89.3589 29.674H6.52176C3.1 29.674 0.326111 26.9001 0.326111 23.4783V6.52182C0.326111 3.10006 3.1 0.326172 6.52176 0.326172Z" stroke="#475CD0"/>
<path d="M19.8001 16.9274C19.208 17.4837 18.682 18.0507 18.1137 18.6018C17.5018 19.2045 16.5198 19.2045 15.9066 18.6018C15.6066 18.2978 15.4453 17.8842 15.4612 17.4573C15.4771 17.0304 15.6674 16.63 15.9885 16.3485C16.5383 15.7868 17.1013 15.2423 17.6511 14.6859C17.7899 14.5921 17.8771 14.44 17.8903 14.2722C17.9036 14.1057 17.8388 13.9418 17.7159 13.8282C17.5969 13.7198 17.4384 13.6643 17.2771 13.6761C17.1159 13.6867 16.9665 13.7634 16.8635 13.8876C16.2714 14.4797 15.6806 15.0348 15.1295 15.6216C14.5096 16.2441 14.2348 17.1308 14.3907 17.9952C14.548 18.8596 15.1176 19.5931 15.9159 19.9578C16.8383 20.4177 17.9485 20.2564 18.7018 19.556C19.3706 18.964 19.9851 18.3137 20.601 17.6688C20.7186 17.5221 20.7701 17.3344 20.7424 17.1481C20.6975 16.9458 20.5402 16.7873 20.338 16.7397C20.1397 16.6908 19.9296 16.7648 19.8001 16.9274ZM24.5446 11.3898C24.172 10.4461 23.2693 9.81704 22.2556 9.79193C21.6305 9.73773 21.0093 9.92412 20.5164 10.3127C19.8067 10.951 19.1379 11.6316 18.4758 12.3175C18.4085 12.3912 18.3635 12.4825 18.3459 12.5808C18.3284 12.679 18.3391 12.7802 18.3767 12.8726C18.4533 13.0616 18.6331 13.1885 18.8366 13.1991C19.0243 13.1924 19.204 13.1171 19.3388 12.9863C19.9309 12.3942 20.5216 11.8034 21.1138 11.2589C21.4732 10.9233 21.986 10.8056 22.4565 10.951C23.001 11.0832 23.4292 11.5008 23.5772 12.04C23.7253 12.5806 23.568 13.1581 23.1662 13.548L21.4336 15.2819C21.1878 15.4921 21.156 15.8608 21.3622 16.1106C21.608 16.3524 22.0032 16.3524 22.249 16.1106C22.8411 15.5185 23.4318 14.9634 24.024 14.3356C24.8064 13.5638 25.0151 12.3823 24.5446 11.3898Z" fill="white"/>
<path d="M17.4754 17.0449C17.5811 17.1586 17.7291 17.2233 17.8837 17.2233C18.0384 17.2233 18.1864 17.1586 18.2921 17.0449C19.4314 15.9096 20.5653 14.7691 21.6939 13.6259C21.7667 13.5334 21.8248 13.429 21.8657 13.318C21.8869 13.0669 21.7468 12.829 21.5169 12.7259C21.2935 12.6241 21.0292 12.6849 20.8719 12.8739L17.5044 16.2414C17.3855 16.3392 17.3141 16.4832 17.3089 16.6366C17.3036 16.7899 17.3644 16.9392 17.4754 17.0449Z" fill="white"/>
<path d="M31.3839 9.73032H41.4273V19.0303C41.4273 19.4651 41.3708 19.7955 41.2578 20.0216C41.1534 20.2477 40.9752 20.4086 40.723 20.5042C40.4708 20.6086 40.0969 20.6782 39.6012 20.7129L38.6621 20.7781L38.3099 19.6825L39.3143 19.6173C39.5926 19.5999 39.7925 19.5695 39.9143 19.526C40.0447 19.4825 40.1274 19.4086 40.1621 19.3042C40.2056 19.1999 40.2273 19.0347 40.2273 18.8086V10.8521H32.5578V20.726H31.3839V9.73032ZM33.2752 13.239V12.1825H39.5491V13.239H33.2752ZM33.9404 18.7173V14.4781H38.8447V18.7173H33.9404ZM37.7752 15.5086H35.0099V17.6999H37.7752V15.5086ZM54.9322 14.739H50.2627V17.7651C50.8192 17.4346 51.3279 17.0564 51.7887 16.6303C52.2583 16.2043 52.7105 15.7086 53.1453 15.1434L54.0844 16.0564C53.2844 17.0042 52.4496 17.7868 51.58 18.4042C50.7192 19.0129 49.7105 19.526 48.554 19.9434C47.4061 20.3694 45.9888 20.7434 44.3018 21.0651L43.8714 19.7868C45.3148 19.5346 46.5409 19.2521 47.5496 18.939C48.5583 18.6173 49.4365 18.2433 50.1844 17.8173H49.0105V14.739H43.7148V13.526H45.6583V10.0825L46.8974 10.1347V13.526H48.7627V9.14337L50.0018 9.19554V10.6564H54.0061V11.8042H50.0018V13.526H54.9322V14.739ZM47.6931 15.9651C46.9366 16.8346 45.8844 17.7781 44.5366 18.7955L43.8453 17.7129C45.0018 16.8956 46.0061 15.9956 46.8583 15.0129L47.6931 15.9651ZM60.2458 16.7738C59.9067 16.3651 59.5284 15.9607 59.111 15.5608V20.8695H58.0023V15.9521C57.6632 16.3434 57.2458 16.7825 56.7502 17.2695L56.098 16.2521C57.4371 15.0695 58.4197 13.7651 59.0458 12.339H56.6588V11.1651H58.1849C58.0197 10.5303 57.8328 9.89552 57.6241 9.26076L58.7197 9.07815C58.8937 9.67815 59.0893 10.3738 59.3067 11.1651H60.298V12.339C59.9675 13.0869 59.6153 13.7433 59.2415 14.3086C59.8328 14.7781 60.3762 15.2738 60.8719 15.7955L60.2458 16.7738ZM65.7893 10.7999H62.1502V17.0477H61.0154V9.6651H66.9111V17.0216H65.7893V10.7999ZM67.9676 17.9086C67.9415 18.4216 67.8893 18.9086 67.8111 19.3695C67.7589 19.7086 67.6852 19.9608 67.5893 20.126C67.4935 20.2999 67.3461 20.4216 67.1459 20.4912C66.9548 20.5695 66.6717 20.613 66.298 20.6216C66.2283 20.6303 66.0326 20.6347 65.7111 20.6347C65.3896 20.6347 65.1937 20.6303 65.1241 20.6216C64.6284 20.613 64.2806 20.5042 64.0806 20.2955C63.8893 20.0868 63.7936 19.7216 63.7936 19.1999V17.5825C63.4893 18.2347 63.0545 18.8433 62.4893 19.4086C61.9328 19.9738 61.2067 20.5434 60.311 21.1173L59.5806 20.0608C60.5632 19.4868 61.3067 18.9303 61.811 18.3912C62.3241 17.8434 62.6849 17.239 62.8936 16.5781C63.1023 15.9173 63.2328 15.0695 63.2849 14.0347C63.3024 13.6869 63.3154 13.2607 63.3241 12.7564C63.3327 12.2433 63.3371 11.8129 63.3371 11.4651L64.498 11.5173L64.4588 14.1651C64.4414 14.913 64.3806 15.5564 64.2762 16.0955L64.9023 16.1216V18.7695C64.9023 19.0651 64.9415 19.2564 65.0197 19.3434C65.1067 19.4303 65.2852 19.4782 65.5546 19.4868H66.1024C66.2935 19.4782 66.433 19.4608 66.5198 19.4347C66.6065 19.3999 66.6633 19.3434 66.6894 19.2651C66.7239 19.1782 66.7546 19.0434 66.7807 18.8608C66.8504 18.426 66.885 17.9738 66.885 17.5042L67.9676 17.9086ZM79.6461 12.326V19.239C79.6461 19.6216 79.603 19.9129 79.5157 20.1129C79.4374 20.313 79.2939 20.4607 79.0852 20.5564C78.8857 20.6608 78.5857 20.7346 78.1852 20.7781L77.4157 20.8564L77.0243 19.6434L77.7026 19.6042C77.9289 19.5868 78.0939 19.5564 78.1983 19.5129C78.3117 19.4694 78.3854 19.4042 78.42 19.3173C78.4552 19.2303 78.4722 19.0999 78.4722 18.926V18.1564H75.72V20.5825H74.5461V18.1564H71.6243C71.5115 18.6434 71.342 19.0999 71.1157 19.526C70.8985 19.9434 70.5854 20.4346 70.1765 20.9999L69.12 20.3868C69.5465 19.8564 69.8635 19.3869 70.0722 18.9781C70.2809 18.5694 70.4243 18.1303 70.5026 17.6608C70.59 17.1825 70.633 16.5651 70.633 15.8086V13.4086C70.5117 13.5216 70.32 13.6825 70.0591 13.8912L69.3287 12.9129C70.033 12.3477 70.6983 11.7043 71.3243 10.9825C71.9596 10.2521 72.4813 9.53467 72.8896 8.83032L74.0374 9.29989C73.9507 9.46508 73.8117 9.70424 73.62 10.0173H78.2374V11.0086C78.1246 11.1129 77.8552 11.4086 77.4287 11.8955C77.3504 11.9912 77.2246 12.1347 77.0504 12.326H79.6461ZM72.8504 11.0999C72.5726 11.4651 72.2159 11.8738 71.7809 12.326H75.5374C75.7376 12.0999 75.8335 11.9912 75.8244 11.9999C76.3722 11.3999 76.6461 11.0999 76.6461 11.0999H72.8504ZM71.807 14.6868H74.5461V13.4347H71.807V14.6868ZM75.72 14.6868H78.4722V13.4347H75.72V14.6868ZM74.5461 17.0477V15.8086H71.807V16.1216C71.807 16.3564 71.7985 16.6651 71.7809 17.0477H74.5461ZM75.72 15.8086V17.0477H78.4722V15.8086H75.72Z" fill="white"/>
</g>
<defs>
<clipPath id="clip0_4225_11810">
<rect width="96.5217" height="30" fill="white"/>
</clipPath>
</defs>
</svg>
