<svg width="27" height="27" viewBox="0 0 27 27" fill="none" xmlns="http://www.w3.org/2000/svg">
<g clip-path="url(#clip0_4109_1754)">
<path d="M20.25 0.337402H6.75002C3.2085 0.337402 0.337524 3.20838 0.337524 6.7499V20.2499C0.337524 23.7914 3.2085 26.6624 6.75002 26.6624H20.25C23.7915 26.6624 26.6625 23.7914 26.6625 20.2499V6.7499C26.6625 3.20838 23.7915 0.337402 20.25 0.337402Z" fill="#252525"/>
<path d="M20.25 0.337402H6.75002C3.2085 0.337402 0.337524 3.20838 0.337524 6.7499V20.2499C0.337524 23.7914 3.2085 26.6624 6.75002 26.6624H20.25C23.7915 26.6624 26.6625 23.7914 26.6625 20.2499V6.7499C26.6625 3.20838 23.7915 0.337402 20.25 0.337402Z" stroke="#252525"/>
<path d="M8.97149 20.1642C7.77532 20.1642 6.75 19.2184 6.75 17.9286V12.4254C6.75 11.2216 7.68987 10.1897 8.97149 10.1897H14.5253C15.7215 10.1897 16.7468 11.1356 16.7468 12.4254V18.0146C16.7468 19.2184 15.8069 20.2502 14.5253 20.2502L8.97149 20.1642ZM8.97149 11.3076C8.28799 11.3076 7.77532 11.8235 7.77532 12.5114V18.1006C7.77532 18.7885 8.28799 19.3044 8.97149 19.3044H14.5253C15.2088 19.3044 15.7215 18.7885 15.7215 18.1006V12.4254C15.7215 11.7375 15.2088 11.2216 14.5253 11.2216H8.97149V11.3076Z" fill="white"/>
<path d="M18.0284 6.75H12.4746C11.193 6.75 10.2531 7.78187 10.2531 8.98567V9.32965H11.193V8.98567C11.193 8.29778 11.7056 7.78187 12.3891 7.78187H17.8575C18.541 7.78187 19.0537 8.29778 19.0537 8.98567V14.4889C19.0537 15.1768 18.541 15.6927 17.8575 15.6927H17.3449V16.8105H18.0284C19.3101 16.8105 20.2499 15.7787 20.2499 14.5749V8.98567C20.2499 7.69588 19.2246 6.75 18.0284 6.75Z" fill="white"/>
</g>
<defs>
<clipPath id="clip0_4109_1754">
<rect width="27" height="27" fill="white"/>
</clipPath>
</defs>
</svg>
