<svg width="74" height="30" viewBox="0 0 74 30" fill="none" xmlns="http://www.w3.org/2000/svg">
<g clip-path="url(#clip0_4222_11805)">
<path d="M6.84787 0.326172H66.3868C69.8087 0.326172 72.5824 3.10006 72.5824 6.52182V23.4783C72.5824 26.9001 69.8087 29.674 66.3868 29.674H6.84787C3.42611 29.674 0.652222 26.9001 0.652222 23.4783V6.52182C0.652222 3.10006 3.42611 0.326172 6.84787 0.326172Z" fill="#475CD0"/>
<path d="M6.84787 0.326172H66.3868C69.8087 0.326172 72.5824 3.10006 72.5824 6.52182V23.4783C72.5824 26.9001 69.8087 29.674 66.3868 29.674H6.84787C3.42611 29.674 0.652222 26.9001 0.652222 23.4783V6.52182C0.652222 3.10006 3.42611 0.326172 6.84787 0.326172Z" stroke="#475CD0"/>
<path fill-rule="evenodd" clip-rule="evenodd" d="M16.3472 18.3397C16.3472 18.5716 16.4297 18.768 16.5948 18.9286C16.7599 19.0892 16.9585 19.1695 17.1904 19.1695H20.5234V20.8428H16.3472C16.1151 20.8428 15.8987 20.7981 15.6979 20.7089C15.4972 20.6197 15.3209 20.4992 15.1692 20.3474C15.0175 20.1957 14.8971 20.0195 14.8078 19.8187C14.7186 19.618 14.674 19.4015 14.674 19.1695V10.8036C14.674 10.5715 14.7186 10.3552 14.8078 10.1543C14.8971 9.95361 15.0175 9.77733 15.1692 9.62563C15.3209 9.47394 15.4972 9.35348 15.6979 9.2642C15.8987 9.17498 16.1151 9.13037 16.3472 9.13037H25.5564C25.7884 9.13037 26.0048 9.17498 26.2056 9.2642C26.4064 9.35348 26.5826 9.47394 26.7343 9.62563C26.886 9.77733 27.0065 9.95361 27.0958 10.1543C27.185 10.3552 27.2296 10.5715 27.2296 10.8036V14.1232L25.5564 14.1633V13.3201C25.5564 13.088 25.4739 12.8895 25.3088 12.7244C25.1437 12.5593 24.9451 12.4767 24.7131 12.4767H17.1904C16.9585 12.4767 16.7599 12.5593 16.5948 12.7244C16.4297 12.8895 16.3472 13.088 16.3472 13.3201V18.3397ZM24.3116 14.9798C24.7131 14.9798 25.0924 15.0557 25.4493 15.2074C25.8063 15.3591 26.1186 15.5688 26.3863 15.8365C26.654 16.1043 26.8659 16.4166 27.0221 16.7735C27.1783 17.1305 27.2563 17.5142 27.2563 17.9247C27.2563 18.3352 27.1783 18.7189 27.0221 19.0758C26.8723 19.4182 26.6713 19.7195 26.4189 19.9797C25.9407 20.5252 25.2388 20.8695 24.4566 20.8695C24.4333 20.8695 24.4103 20.8692 24.3872 20.8686C24.3621 20.8692 24.3369 20.8695 24.3116 20.8695C23.901 20.8695 23.5174 20.7937 23.1604 20.642C22.8034 20.4903 22.4911 20.2805 22.2234 20.0128C21.9557 19.7451 21.7438 19.4328 21.5876 19.0758C21.4314 18.7189 21.3533 18.3352 21.3533 17.9247C21.3533 17.5142 21.4314 17.1305 21.5876 16.7735C21.7438 16.4166 21.9557 16.1043 22.2234 15.8365C22.4911 15.5688 22.8034 15.3591 23.1604 15.2074C23.5174 15.0557 23.901 14.9798 24.3116 14.9798ZM26.4131 17.4782H22.174V18.4304H26.4131V17.4782Z" fill="#D9D9D9"/>
<path d="M45.0949 19.9045L44.3123 20.9349C43.0688 20.1262 42.0688 19.287 41.3123 18.4175C40.5296 19.2958 39.4818 20.1566 38.1688 21.0001L37.4383 19.9566C38.7949 19.1479 39.8383 18.3218 40.5688 17.4784C39.8557 16.4523 39.334 15.3001 39.0036 14.0218C38.7775 14.3871 38.5427 14.7392 38.2992 15.0784L37.4383 14.4001V20.8045H36.2644V17.3871C35.4122 17.7523 34.8427 18.0045 34.5557 18.1436C34.3557 18.2305 34.1557 18.3306 33.9557 18.4436L33.4601 17.2958C33.6079 17.2088 33.6992 17.1262 33.734 17.0479C33.7774 16.961 33.7992 16.8392 33.7992 16.6827V10.6045L34.9601 10.6566V16.6305L36.2644 16.0827V9.14358L37.4383 9.19576V14.1914C37.9253 13.5131 38.3818 12.6784 38.8079 11.6871C39.234 10.6871 39.5166 9.78708 39.6557 8.98706L40.8818 9.26097C40.734 9.87839 40.5644 10.474 40.3731 11.0479H44.7297V12.274H43.6862C43.547 13.3958 43.3513 14.3696 43.0992 15.1958C42.847 16.0131 42.4992 16.761 42.0557 17.4392C42.8209 18.2827 43.834 19.1044 45.0949 19.9045ZM41.2992 16.461C41.6296 15.8957 41.8905 15.2784 42.0818 14.6088C42.2731 13.9305 42.4166 13.1523 42.5123 12.274H39.8905L39.8123 12.4566C40.047 14.0132 40.5427 15.3479 41.2992 16.461ZM46.7824 20.7392V9.61315H56.865V20.7392H55.6519V20.0218H47.9824V20.7392H46.7824ZM48.0085 10.8653L47.9824 18.8479H55.6519V10.8653H48.0085ZM49.4563 17.2305V12.4045H54.1911V17.2305H49.4563ZM50.5258 16.161H53.1215V13.474H50.5258V16.161Z" fill="white"/>
</g>
<defs>
<clipPath id="clip0_4222_11805">
<rect width="73.0435" height="30" fill="white"/>
</clipPath>
</defs>
</svg>
