<svg width="74" height="30" viewBox="0 0 74 30" fill="none" xmlns="http://www.w3.org/2000/svg">
<g clip-path="url(#clip0_4175_4328)">
<path d="M0.652344 6.5217C0.652344 3.09993 3.42623 0.32605 6.848 0.32605H66.3869C69.8089 0.32605 72.5826 3.09994 72.5826 6.5217V23.4782C72.5826 26.9 69.8089 29.6739 66.3869 29.6739H6.848C3.42624 29.6739 0.652344 26.9 0.652344 23.4782V6.5217Z" stroke="#475CD0"/>
<path d="M16.347 18.3398C16.347 18.5718 16.4295 18.7681 16.5947 18.9287C16.7597 19.0893 16.9583 19.1697 17.1903 19.1697H20.5233V20.8429H16.347C16.115 20.8429 15.8986 20.7982 15.6978 20.709C15.4971 20.6198 15.3208 20.4993 15.1691 20.3476C15.0174 20.1959 14.8969 20.0196 14.8077 19.8188C14.7184 19.6181 14.6738 19.4016 14.6738 19.1697V10.8037C14.6738 10.5717 14.7184 10.3553 14.8077 10.1545C14.8969 9.95373 15.0174 9.77745 15.1691 9.62575C15.3208 9.47406 15.4971 9.3536 15.6978 9.26432C15.8986 9.1751 16.115 9.13049 16.347 9.13049H25.5563C25.7883 9.13049 26.0047 9.1751 26.2055 9.26432C26.4062 9.3536 26.5825 9.47406 26.7342 9.62575C26.8859 9.77745 27.0064 9.95373 27.0957 10.1545C27.1849 10.3553 27.2295 10.5717 27.2295 10.8037V14.1233L25.5563 14.1634V13.3202C25.5563 13.0881 25.4738 12.8896 25.3086 12.7245C25.1436 12.5594 24.945 12.4769 24.713 12.4769H17.1903C16.9583 12.4769 16.7597 12.5594 16.5947 12.7245C16.4295 12.8896 16.347 13.0881 16.347 13.3202V18.3398ZM24.3115 14.98C24.713 14.98 25.0922 15.0558 25.4492 15.2075C25.8062 15.3592 26.1185 15.5689 26.3862 15.8367C26.6539 16.1044 26.8658 16.4167 27.022 16.7736C27.1782 17.1306 27.2562 17.5143 27.2562 17.9248C27.2562 18.3353 27.1782 18.719 27.022 19.0759C26.8658 19.4329 26.6539 19.7452 26.3862 20.0129C26.1185 20.2806 25.8062 20.4904 25.4492 20.6421C25.0922 20.7938 24.713 20.8696 24.3115 20.8696C23.9009 20.8696 23.5172 20.7938 23.1602 20.6421C22.8033 20.4904 22.491 20.2806 22.2233 20.0129C21.9555 19.7452 21.7437 19.4329 21.5875 19.0759C21.4313 18.719 21.3532 18.3353 21.3532 17.9248C21.3532 17.5143 21.4313 17.1306 21.5875 16.7736C21.7437 16.4167 21.9555 16.1044 22.2233 15.8367C22.491 15.5689 22.8033 15.3592 23.1602 15.2075C23.5172 15.0558 23.9009 14.98 24.3115 14.98ZM26.3862 18.3398V17.4964H24.713V15.8233H23.8831V17.4964H22.2099V18.3398H23.8831V20.0129H24.713V18.3398H26.3862Z" fill="white"/>
<path d="M44.9123 19.6565L44.4557 20.713C43.0557 20.3652 41.8992 19.8783 40.9862 19.2522C40.0731 18.6261 39.36 17.8 38.847 16.7739H37.8818V19.6174C39.0644 19.1739 39.7427 18.9174 39.9166 18.8478L40.047 19.8261L37.4644 20.7261C37.3774 20.7522 37.2688 20.7913 37.1383 20.8435C37.0166 20.9043 36.9166 20.9522 36.8384 20.987L36.434 20.087C36.5644 20.0087 36.6514 19.9304 36.6949 19.8522C36.7383 19.7826 36.7601 19.7043 36.7601 19.6174V16.7739H35.5601C35.4731 17.513 35.3296 18.1782 35.1297 18.7696C34.9296 19.3609 34.6253 20.0695 34.2166 20.8956L33.1992 20.3478C33.5818 19.6174 33.8644 18.9783 34.047 18.4304C34.2297 17.8739 34.3601 17.2348 34.4384 16.513C34.5166 15.7826 34.5557 14.8087 34.5557 13.5913V9.61304H43.9862V12.6261H35.6905V14.1783C35.6905 14.7869 35.6775 15.3391 35.6514 15.8348H37.9079V14.7261H36.0166V13.7739H37.9079V12.913L38.9905 12.9522V13.7739H41.1036V12.913L42.1992 12.9522V13.7739H44.1949V14.7261H42.1992V15.8348H44.6644V16.7739H43.2036L43.7905 17.4783C43.2166 17.8782 42.6036 18.2695 41.9514 18.6522C42.7601 19.1043 43.747 19.4391 44.9123 19.6565ZM42.8905 11.6478V10.5783H35.6905V11.6478H42.8905ZM41.1036 14.7261H38.9905V15.8348H41.1036V14.7261ZM39.9818 16.7739C40.2861 17.2696 40.6644 17.7 41.1166 18.0652C41.8905 17.6304 42.5601 17.2 43.1253 16.7739H39.9818ZM57.6606 14.4783V15.6522H54.8302V20.8435H53.6041V15.6522H50.3041C50.2519 16.487 50.1302 17.1869 49.9389 17.7522C49.7475 18.3087 49.4606 18.8304 49.078 19.3174C48.6954 19.8044 48.1519 20.3609 47.4476 20.987L46.5345 20.087C47.178 19.5478 47.6693 19.0739 48.0085 18.6652C48.3476 18.2565 48.5954 17.8218 48.7519 17.3609C48.9171 16.9 49.0215 16.3304 49.065 15.6522H46.1041V14.4783H49.1041V14.3087V11.0609H46.7954V9.88695H56.9954V11.0609H54.8302V14.4783H57.6606ZM50.3432 14.4783H53.6041V11.0609H50.3432V14.1913V14.4783Z" fill="white"/>
</g>
<defs>
<clipPath id="clip0_4175_4328">
<rect width="73.0435" height="30" fill="white"/>
</clipPath>
</defs>
</svg>
